<svg width="26" height="24" viewBox="0 0 26 24" fill="none" xmlns="http://www.w3.org/2000/svg">
<path d="M2 4.25C2 3.65326 2.23705 3.08097 2.65901 2.65901C3.08097 2.23705 3.65326 2 4.25 2H11V22.25H4.25C3.65326 22.25 3.08097 22.0129 2.65901 21.591C2.23705 21.169 2 20.5967 2 20V4.25ZM15.5 2H22.25C22.8467 2 23.419 2.23705 23.841 2.65901C24.2629 3.08097 24.5 3.65326 24.5 4.25V9.875H15.5V2ZM15.5 14.375H24.5V20C24.5 20.5967 24.2629 21.169 23.841 21.591C23.419 22.0129 22.8467 22.25 22.25 22.25H15.5V14.375Z" stroke="#2D6974" stroke-width="2.25" stroke-linecap="round" stroke-linejoin="round"/>
</svg>
