<svg width="834" height="172" viewBox="0 0 834 172" fill="none" xmlns="http://www.w3.org/2000/svg">
<rect y="38" width="833.127" height="134" rx="30" fill="#F4F4F4"/>
<g clip-path="url(#clip0_1082_259)">
<path d="M751.542 33.2197C751.542 33.2197 745.926 48.979 745.748 59.2422C745.492 73.6552 761.494 77.4344 772.326 75.7547C783.157 74.075 787.693 67.7766 788.194 61.9098C788.694 56.0311 785.047 32.207 785.047 32.207L751.542 33.2197Z" fill="#004351"/>
<path d="M767.443 76.8053C761.071 76.8053 753.999 75.0519 749.584 70.6923C746.548 67.7032 745.047 63.8375 745.125 59.2306C745.303 48.9675 750.73 33.6159 750.963 32.9736L751.119 32.5537L785.58 31.5039L785.669 32.0967C785.814 33.0724 789.328 56.0814 788.827 61.9848C788.583 64.8255 786.681 74.2489 772.425 76.4597C770.857 76.6822 769.178 76.8053 767.443 76.8053ZM751.975 33.8999C751.085 36.4812 746.526 50.1655 746.37 59.2554C746.293 63.4425 747.649 66.9497 750.407 69.6544C755.734 74.9036 765.208 76.1511 772.236 75.0643C785.592 72.989 787.348 64.418 787.571 61.837C788.016 56.6248 785.08 36.6293 784.513 32.9118L751.975 33.8999Z" fill="#004351"/>
<path d="M774.037 58.2169L764.196 58.3281L764.118 54.1534L764.04 49.6951V49.5962L766.142 49.2134L773.459 47.8672L773.659 51.4735L774.037 58.2169Z" fill="#FBDAD7"/>
<path d="M773.659 51.4741C771.802 52.4869 767.354 54.1293 764.118 54.1416L764.04 49.6833L766.142 49.2016L773.459 47.8555L773.659 51.4741Z" fill="#B57A77"/>
<path d="M782.834 27.3527C782.756 27.3527 782.678 27.3651 782.589 27.3651V21.9432C782.589 15.2987 778.964 9.38278 773.671 7.61666C770.946 6.70269 768.689 6.67802 768.044 6.69038V6.64093C768.044 6.64093 765.464 6.46802 762.228 7.5549C756.935 9.33333 753.31 15.2369 753.31 21.8815V27.2786C753.165 27.2539 753.01 27.2416 752.854 27.2416C750.83 27.2416 749.195 29.0571 749.195 31.3049V32.1571C749.195 34.4049 750.83 36.2204 752.854 36.2204C753.01 36.2204 756.568 51.1274 767.855 51.3745C777.807 51.5968 782.756 36.3069 782.834 36.3069C784.858 36.3069 786.493 34.4913 786.493 32.2436V31.3914C786.504 29.1683 784.858 27.3527 782.834 27.3527Z" fill="#FBDAD7"/>
<path d="M769.111 38.5172C769.1 38.5172 769.089 38.5172 769.089 38.5172C768.945 38.5049 765.631 38.2826 765.442 35.6396C765.375 34.7133 765.564 33.9722 766.009 33.4288C766.398 32.9472 766.91 32.7495 767.254 32.6754L767.81 27.9946C767.844 27.6982 768.088 27.5006 768.344 27.5377C768.611 27.5747 768.789 27.8464 768.756 28.1305L768.088 33.6759H767.666C767.666 33.6759 767.065 33.7005 766.687 34.1575C766.431 34.4663 766.331 34.9356 766.376 35.5531C766.509 37.2822 769.1 37.4551 769.123 37.4551C769.389 37.4674 769.59 37.7268 769.579 38.0109C769.567 38.2949 769.356 38.5172 769.111 38.5172Z" fill="#004351"/>
<path d="M783.156 34.8372C783.111 34.8372 783.067 34.8249 783.034 34.8126C782.778 34.7384 782.633 34.442 782.7 34.158C782.778 33.8616 783.456 31.268 784.957 30.811C785.213 30.7369 785.48 30.8974 785.547 31.1815C785.613 31.4655 785.469 31.762 785.213 31.836C784.379 32.0831 783.778 33.8369 783.634 34.4421C783.556 34.689 783.367 34.8372 783.156 34.8372Z" fill="#004351"/>
<path d="M784.846 34.7756C784.646 34.7756 784.468 34.6398 784.401 34.4298C784.09 33.4788 783.567 33.2318 783.545 33.2194C783.3 33.1083 783.178 32.7995 783.278 32.5402C783.367 32.2685 783.634 32.1326 783.879 32.2314C783.979 32.2685 784.824 32.6514 785.302 34.0716C785.391 34.3433 785.269 34.6521 785.013 34.7509C784.957 34.7633 784.902 34.7756 784.846 34.7756Z" fill="#004351"/>
<path d="M752.52 34.5033C752.308 34.5033 752.119 34.3427 752.064 34.108C751.919 33.5152 751.307 31.7615 750.485 31.5021C750.229 31.428 750.084 31.1316 750.151 30.8476C750.218 30.5635 750.485 30.4029 750.74 30.477C752.242 30.934 752.92 33.5276 752.998 33.824C753.064 34.1081 752.92 34.4045 752.664 34.4786C752.597 34.4909 752.564 34.5033 752.52 34.5033Z" fill="#004351"/>
<path d="M750.829 34.431C750.774 34.431 750.718 34.4187 750.662 34.394C750.418 34.2952 750.284 33.9864 750.373 33.7147C750.84 32.2944 751.697 31.9239 751.797 31.8745C752.041 31.7756 752.319 31.9239 752.408 32.1956C752.497 32.4673 752.375 32.776 752.13 32.8748C752.097 32.8872 751.585 33.1342 751.274 34.0852C751.207 34.3075 751.029 34.431 750.829 34.431Z" fill="#004351"/>
<path d="M762.939 29.552C762.939 30.2806 762.406 30.8735 761.749 30.8735C761.093 30.8735 760.56 30.2806 760.56 29.552C760.56 28.8233 761.093 28.2305 761.749 28.2305C762.406 28.2305 762.939 28.8233 762.939 29.552Z" fill="#004351"/>
<path d="M775.238 29.5891C775.238 30.3178 774.705 30.9106 774.049 30.9106C773.392 30.9106 772.858 30.3178 772.858 29.5891C772.858 28.8604 773.392 28.2676 774.049 28.2676C774.705 28.2676 775.238 28.8604 775.238 29.5891Z" fill="#004351"/>
<path d="M768.344 42.7548C766.22 42.7548 764.597 41.8286 764.574 41.8162C764.341 41.6804 764.252 41.3592 764.374 41.0999C764.497 40.8405 764.786 40.7417 765.019 40.8776C765.186 40.9764 769.089 43.1748 772.459 40.0377C772.659 39.8525 772.959 39.8772 773.137 40.0995C773.304 40.3218 773.282 40.6553 773.081 40.8529C771.502 42.3226 769.812 42.7548 768.344 42.7548Z" fill="#004351"/>
<path d="M763.596 26.6127C763.462 26.6127 763.329 26.5633 763.218 26.4769C761.561 25.0812 760.271 26.3781 760.226 26.4275C759.971 26.6868 759.581 26.6744 759.348 26.3904C759.114 26.1064 759.125 25.6741 759.381 25.4148C760.104 24.6613 761.994 23.698 763.985 25.3653C764.263 25.6 764.319 26.0323 764.107 26.341C763.974 26.5263 763.785 26.6127 763.596 26.6127Z" fill="#004351"/>
<path d="M775.695 25.6498C775.561 25.6498 775.428 25.6004 775.317 25.514C773.716 24.1554 772.459 25.3287 772.314 25.4769C772.059 25.7363 771.669 25.7116 771.436 25.4275C771.202 25.1434 771.213 24.7112 771.469 24.4518C772.192 23.6985 774.082 22.7351 776.073 24.4024C776.351 24.6371 776.407 25.0694 776.195 25.3781C776.073 25.551 775.884 25.6498 775.695 25.6498Z" fill="#004351"/>
<path d="M779.42 12.6073C779.42 12.6073 772.37 26.7857 757.591 24.5502C757.591 24.5502 757.924 31.2689 755.066 32.3805C752.208 33.5043 745.536 23.0559 751.419 10.5572C757.302 -1.94156 775.394 -0.261915 779.253 5.70338C783.123 11.681 779.42 12.6073 779.42 12.6073Z" fill="#004351"/>
<path d="M754.611 33.1576C753.665 33.1576 752.598 32.466 751.575 31.1568C748.406 27.0935 746.826 18.8063 750.852 10.2227C753.499 4.59089 758.959 1.05866 765.82 0.515243C771.791 0.0459239 777.652 2.04669 779.743 5.28252C781.388 7.82672 781.955 9.88927 781.433 11.4084C781.066 12.4952 780.254 12.9769 779.82 13.1622C778.797 15.0271 771.691 26.8959 758.202 25.3027C758.191 27.2417 757.88 31.972 755.256 33.0094C755.067 33.1206 754.844 33.1576 754.611 33.1576ZM767.555 1.84908C767.01 1.84908 766.465 1.8738 765.92 1.91085C759.492 2.41723 754.41 5.6901 751.964 10.8773C747.627 20.0907 750.429 27.5752 752.52 30.2553C753.51 31.515 754.41 31.9102 754.855 31.7249C756.835 30.9469 757.046 26.3031 756.957 24.5863L756.912 23.7465L757.658 23.8577C758.692 24.0182 759.693 24.0923 760.66 24.0923C772.837 24.0923 778.797 12.4087 778.864 12.2729L778.997 12.0012L779.264 11.9395C779.309 11.9271 780.02 11.7171 780.276 10.9267C780.521 10.198 780.443 8.76535 778.73 6.11C777.107 3.56582 772.469 1.84908 767.555 1.84908Z" fill="#004351"/>
<path d="M776.907 13.3599C776.907 13.3599 774.371 23.549 780.432 27.9088C780.432 27.9088 780.432 31.4534 782.278 31.8239C784.124 32.1944 787.816 23.2402 786.482 16.7192C785.136 10.1858 780.432 9.07422 780.432 9.07422L776.907 13.3599Z" fill="#004351"/>
<path d="M782.4 32.5286C782.322 32.5286 782.244 32.5162 782.167 32.5039C780.231 32.1087 779.887 29.3174 779.82 28.28C773.782 23.5991 776.195 13.5952 776.306 13.163L776.351 13.0024L780.221 8.29688L780.576 8.38336C780.787 8.43276 785.681 9.68013 787.104 16.5594C788.238 22.08 785.936 29.2804 783.912 31.627C783.389 32.2322 782.878 32.5286 782.4 32.5286ZM777.474 13.694C777.195 14.9538 775.561 23.5745 780.776 27.3166L781.065 27.5266V27.9095C781.065 28.6752 781.321 30.923 782.4 31.1453C782.444 31.1577 782.678 31.0835 783.056 30.6143C784.858 28.4282 786.893 21.8331 785.869 16.8805C784.824 11.8044 781.677 10.2483 780.632 9.86541L777.474 13.694Z" fill="#004351"/>
<path d="M744.725 135.1L736.74 171.818H799.213L791.752 135.1H744.725Z" fill="#448894"/>
<path d="M762.695 55.8331L775.127 55.2773L775.416 59.7977C775.416 59.7977 788.204 61.9096 794.432 65.9483L787.626 119.525L791.741 135.099H744.713L748.917 118.129L744.213 66.6525C744.213 66.6525 749.751 62.367 763.028 60.304L762.695 55.8331Z" fill="#448894"/>
<path d="M762.695 55.8331L775.127 55.2773L775.416 59.7977C775.416 59.7977 788.204 61.9096 794.432 65.9483L787.626 119.525L791.741 135.099H744.713L748.917 118.129L744.213 66.6525C744.213 66.6525 749.751 62.367 763.028 60.304L762.695 55.8331Z" fill="#448894"/>
<path d="M743.958 67.7031C743.958 67.7031 716.624 100.864 718.137 126.887C719.649 152.909 750.385 154.305 750.385 154.305L755.423 136.952C755.423 136.952 740.31 130.518 738.042 124.923C735.773 119.328 749.607 100.728 749.607 100.728C749.607 100.728 746.96 86.3646 743.958 67.7031Z" fill="white"/>
<path d="M777.274 118.845L784.591 160.713C784.935 162.689 783.712 164.567 781.922 164.838L753.543 169.075C751.953 169.309 750.452 168.185 750.074 166.444L741.211 126.49C740.777 124.539 741.911 122.587 743.691 122.217L773.626 116.066C775.317 115.733 776.951 116.968 777.274 118.845Z" fill="#FFAC5C"/>
<path d="M753.12 169.977C751.341 169.977 749.751 168.631 749.317 166.655L740.455 126.701C740.188 125.528 740.377 124.318 740.966 123.292C741.555 122.267 742.478 121.588 743.546 121.366L773.482 115.215C775.594 114.783 777.64 116.327 778.052 118.673L785.369 160.541C785.58 161.727 785.336 162.925 784.702 163.913C784.068 164.901 783.123 165.531 782.033 165.692L753.643 169.94C753.465 169.965 753.287 169.977 753.12 169.977ZM774.182 116.895C774.037 116.895 773.893 116.907 773.76 116.944L743.824 123.095C743.179 123.231 742.623 123.638 742.267 124.256C741.911 124.873 741.8 125.602 741.956 126.306L750.819 166.26C751.108 167.569 752.231 168.409 753.432 168.236L781.811 164C782.467 163.901 783.034 163.518 783.412 162.925C783.79 162.332 783.935 161.616 783.812 160.899L776.495 119.031C776.295 117.771 775.294 116.895 774.182 116.895Z" fill="#D88744"/>
<path d="M785.792 139.113L782.1 139.953C782.1 139.953 777.818 138.459 773.282 138.557C768.744 138.656 767.488 140.324 768.578 141.731C769.667 143.127 773.949 142.571 775.216 143.596C776.473 144.622 769.167 147.042 765.731 147.042C762.295 147.042 760.604 145.647 759.604 147.882C758.592 150.117 764.052 151.612 765.731 151.797C765.731 151.797 765.731 155.058 769.512 155.527C769.512 155.527 769.512 157.676 773.037 157.676C773.037 157.676 774.293 158.8 776.729 158.516C779.164 158.232 783.868 154.687 785.213 151.34L787.649 150.401C787.637 150.401 787.126 142.188 785.792 139.113Z" fill="#FBDAD7"/>
<path d="M794.432 65.9492C794.432 65.9492 822.9 101.902 821.388 127.924C819.875 153.947 789.139 155.342 789.139 155.342L784.102 137.99C784.102 137.99 799.214 131.555 801.482 125.961C803.751 120.366 789.918 101.766 789.918 101.766C789.918 101.766 791.441 84.6107 794.432 65.9492Z" fill="white"/>
<path d="M753.499 118.191L753.31 117.425C753.088 116.524 753.599 115.609 754.422 115.424L758.258 114.572C758.937 114.424 759.615 114.819 759.871 115.535L760.427 117.03L753.499 118.191Z" fill="#E0CBB8"/>
<path d="M750.051 120.068L751.063 124.268L764.907 121.452L763.706 116.932C763.484 116.104 762.739 115.597 761.972 115.758L751.23 117.994C750.373 118.154 749.828 119.118 750.051 120.068Z" fill="#FFEEDC"/>
<path d="M794.432 65.9492C794.432 65.9492 784.936 94.627 789.606 102.173C792.108 106.224 797.735 115.129 797.735 115.129L817.629 102.754C817.618 102.754 801.349 71.013 794.432 65.9492Z" fill="#448894"/>
<path d="M744.558 66.3809C744.558 66.3809 754.055 95.0586 749.384 102.605C746.882 106.656 741.255 115.56 741.255 115.56L721.361 103.186C721.372 103.186 737.641 71.457 744.558 66.3809Z" fill="#448894"/>
<path d="M812.514 126.984C812.391 126.984 812.258 126.947 812.135 126.873C808.266 124.514 803.728 125.341 803.684 125.354C803.261 125.44 802.85 125.119 802.783 124.65C802.705 124.18 802.994 123.736 803.417 123.649C803.629 123.612 808.532 122.698 812.88 125.366C813.258 125.601 813.392 126.119 813.192 126.539C813.058 126.823 812.791 126.984 812.514 126.984Z" fill="#C7C4C4"/>
<path d="M808.243 130.566C808.065 130.566 807.877 130.491 807.732 130.356C805.541 128.244 803.072 127.91 803.05 127.898C802.617 127.849 802.316 127.416 802.361 126.935C802.405 126.453 802.795 126.119 803.228 126.169C803.35 126.181 806.208 126.576 808.755 129.034C809.077 129.343 809.111 129.899 808.833 130.257C808.677 130.467 808.466 130.566 808.243 130.566Z" fill="#C7C4C4"/>
<path d="M726.699 124.675C726.376 124.675 726.065 124.44 725.954 124.082C725.82 123.625 726.043 123.131 726.443 122.983C732.326 120.809 735.884 122.958 736.029 123.045C736.407 123.279 736.54 123.81 736.329 124.23C736.118 124.65 735.64 124.799 735.273 124.564C735.228 124.539 732.114 122.711 726.944 124.626C726.866 124.65 726.777 124.675 726.699 124.675Z" fill="#C7C4C4"/>
<path d="M729.301 127.565C728.968 127.565 728.667 127.331 728.556 126.96C728.423 126.503 728.645 126.021 729.057 125.873C732.081 124.787 734.861 125.009 734.984 125.021C735.417 125.058 735.74 125.478 735.707 125.948C735.673 126.429 735.295 126.787 734.873 126.75C734.839 126.75 732.27 126.552 729.546 127.516C729.457 127.553 729.379 127.565 729.301 127.565Z" fill="#C7C4C4"/>
<path d="M747.471 105.877C747.126 105.877 746.815 105.63 746.715 105.235C746.626 104.902 744.658 96.8243 745.447 89.1176C746.226 81.4975 748.572 72.9136 748.605 72.8276C748.728 72.3702 749.172 72.1111 749.584 72.2471C749.995 72.3826 750.229 72.8771 750.107 73.3339C750.084 73.4205 747.771 81.8555 747.015 89.3154C746.259 96.6883 748.227 104.692 748.238 104.778C748.35 105.235 748.105 105.717 747.693 105.84C747.616 105.865 747.549 105.877 747.471 105.877Z" fill="#2D6974"/>
<path d="M789.317 104.829C789.25 104.829 789.184 104.816 789.106 104.792C788.694 104.668 788.45 104.186 788.561 103.729C788.583 103.655 790.54 95.6395 789.784 88.2666C789.017 80.8066 786.715 72.3711 786.693 72.2851C786.57 71.8277 786.804 71.3461 787.215 71.1983C787.627 71.0623 788.061 71.3214 788.194 71.7788C788.216 71.8648 790.563 80.4487 791.352 88.0688C792.142 95.7755 790.162 103.853 790.084 104.186C789.984 104.581 789.662 104.829 789.317 104.829Z" fill="#2D6974"/>
<path d="M747.16 81.7576C747.082 81.7576 747.004 81.7453 746.926 81.7205C744.035 80.7197 743.334 75.5205 743.257 74.94C743.201 74.4707 743.501 74.0262 743.924 73.9644C744.358 73.9026 744.747 74.2358 744.802 74.7051C744.958 76.0021 745.736 79.4974 747.382 80.0656C747.794 80.2134 748.027 80.695 747.894 81.1524C747.805 81.5227 747.493 81.7576 747.16 81.7576Z" fill="#2D6974"/>
<path d="M788.927 79.324C788.593 79.324 788.282 79.0891 788.182 78.7188C788.049 78.2619 788.282 77.7803 788.694 77.632C790.351 77.0638 791.129 73.4825 791.274 72.272C791.329 71.8028 791.718 71.469 792.152 71.5308C792.575 71.5926 792.875 72.0248 792.819 72.5064C792.752 73.0992 792.041 78.2867 789.15 79.2869C789.083 79.3117 789.005 79.324 788.927 79.324Z" fill="#2D6974"/>
<path d="M773.771 62.5523C773.76 62.5523 773.76 62.5523 773.749 62.5523L764.586 62.318C764.152 62.3056 763.807 61.91 763.819 61.4284C763.83 60.9468 764.186 60.5641 764.619 60.5765L773.782 60.8108C774.216 60.8232 774.561 61.2188 774.549 61.7004C774.549 62.182 774.194 62.5523 773.771 62.5523Z" fill="#2D6974"/>
<path d="M780.443 109.867C780.398 109.867 780.354 109.867 780.31 109.855C768.689 107.595 754.444 109.608 754.299 109.633C753.877 109.694 753.476 109.361 753.421 108.879C753.365 108.41 753.665 107.965 754.099 107.903C754.244 107.879 768.722 105.829 780.576 108.138C780.999 108.225 781.288 108.669 781.21 109.139C781.143 109.571 780.81 109.867 780.443 109.867Z" fill="#2D6974"/>
<path d="M767.433 152.884C766.554 152.884 765.976 152.773 765.942 152.773C765.52 152.686 765.231 152.242 765.309 151.772C765.386 151.303 765.787 150.982 766.209 151.068C766.243 151.068 767.877 151.365 769.857 150.846C770.279 150.735 770.702 151.019 770.802 151.488C770.902 151.958 770.646 152.427 770.224 152.538C769.145 152.797 768.178 152.884 767.433 152.884Z" fill="#B57A77"/>
<path d="M769.823 156.415C769.567 156.415 769.4 156.391 769.356 156.379C768.933 156.292 768.655 155.835 768.733 155.366C768.811 154.896 769.211 154.588 769.634 154.662C769.7 154.674 770.701 154.81 772.247 153.81C772.614 153.563 773.103 153.711 773.314 154.119C773.537 154.526 773.403 155.07 773.036 155.304C771.568 156.255 770.423 156.415 769.823 156.415Z" fill="#B57A77"/>
<path d="M773.025 158.541C772.625 158.541 772.28 158.195 772.246 157.738C772.213 157.256 772.536 156.849 772.958 156.799C773.326 156.762 774.459 156.54 774.927 155.996C775.227 155.651 775.716 155.626 776.027 155.959C776.339 156.293 776.361 156.836 776.061 157.182C775.105 158.318 773.292 158.516 773.081 158.528C773.059 158.541 773.047 158.541 773.025 158.541Z" fill="#B57A77"/>
<path d="M778.097 34.5044H774.516C774.082 34.5044 773.737 34.1216 773.737 33.6399C773.737 33.1583 774.082 32.7754 774.516 32.7754H778.097C778.53 32.7754 778.875 33.1583 778.875 33.6399C778.875 34.1216 778.53 34.5044 778.097 34.5044Z" fill="#FF7F90"/>
<path d="M761.105 34.6158H757.524C757.091 34.6158 756.746 34.2329 756.746 33.7512C756.746 33.2696 757.091 32.8867 757.524 32.8867H761.105C761.539 32.8867 761.884 33.2696 761.884 33.7512C761.884 34.2329 761.539 34.6158 761.105 34.6158Z" fill="#FF7F90"/>
<path d="M776.539 18.5964C776.372 18.5964 776.206 18.5223 776.072 18.3741C775.839 18.09 775.861 17.6578 776.117 17.3984C776.15 17.3613 779.486 13.928 780.22 9.54351C780.287 9.16065 780.609 8.91362 780.943 8.98774C781.288 9.06181 781.51 9.42 781.443 9.7905C780.631 14.6442 777.106 18.2629 776.951 18.4235C776.84 18.5347 776.684 18.5964 776.539 18.5964Z" fill="#056370"/>
<path d="M750.952 16.9299C750.907 16.9299 750.863 16.9299 750.829 16.9176C750.496 16.8435 750.273 16.4729 750.34 16.1024C750.373 15.8925 751.319 10.9152 754.755 7.1977C754.999 6.926 755.4 6.93836 755.633 7.21007C755.878 7.48177 755.867 7.92639 755.622 8.18574C752.464 11.5945 751.563 16.3247 751.552 16.3741C751.508 16.6952 751.241 16.9299 750.952 16.9299Z" fill="#056370"/>
<path d="M752.876 19.6707C752.865 19.6707 752.843 19.6707 752.832 19.6707C752.487 19.646 752.231 19.3125 752.253 18.9297C752.264 18.7691 752.554 14.9034 754.844 11.7417C755.056 11.4453 755.456 11.3959 755.723 11.6305C755.99 11.8652 756.034 12.3098 755.823 12.6062C753.788 15.4221 753.51 18.9914 753.51 19.0285C753.477 19.3866 753.199 19.6707 752.876 19.6707Z" fill="#056370"/>
</g>
<defs>
<clipPath id="clip0_1082_259">
<rect width="104" height="172" fill="white" transform="translate(717.85)"/>
</clipPath>
</defs>
</svg>
