<svg width="954" height="192" viewBox="0 0 954 192" fill="none" xmlns="http://www.w3.org/2000/svg">
<rect y="58" width="954" height="134" rx="30" fill="#F4F4F4"/>
<g clip-path="url(#clip0_933_201)">
<path d="M890.753 180.054H860.705L861.552 64.7846L873.846 61.416L888.965 64.9378L890.753 180.054Z" fill="#AACECE"/>
<path d="M886.485 168.379H861.785V175.144H886.485V168.379Z" fill="#682400"/>
<path d="M907.842 175.049L908.299 191.748H845.111L846.217 175.097L907.842 175.049Z" fill="#004351"/>
<path d="M866.217 63.5594L883.513 62.8418L885.915 191.901L909.336 191.758C909.336 191.758 907.574 83.3021 899.435 68.5931C894.58 59.8177 867.746 63.3012 867.746 63.3012C867.746 63.3012 856.066 64.0858 850.571 70.7559C845.085 77.4263 841.353 191.719 841.353 191.719L862.658 191.623L866.217 63.5594Z" fill="white"/>
<path d="M880.758 64.057L868.593 64.124L868.913 59.9992L869.293 54.8889L880.308 53.4058L880.481 57.5877L880.758 64.057Z" fill="#FFDBD8"/>
<path d="M880.524 56.7936C878.39 57.9419 874.468 59.0427 869.008 58.7457L869.302 54.8986L880.317 53.4155L880.524 56.7936Z" fill="#B57A77"/>
<path d="M889.872 31.3284C889.786 31.3284 889.699 31.338 889.622 31.338V25.6343C889.622 18.6483 885.803 12.4374 880.222 10.5713C877.354 9.61434 874.969 9.5856 874.287 9.60476V9.55691C874.287 9.55691 871.565 9.37507 868.153 10.5235C862.572 12.3896 858.753 18.6004 858.753 25.5864V31.2614C858.597 31.2422 858.442 31.2231 858.278 31.2231C856.144 31.2231 854.416 33.1371 854.416 35.5009V36.3908C854.416 38.7546 856.144 40.6686 858.278 40.6686C858.442 40.6686 858.597 40.6494 858.753 40.6303C858.813 47.779 862.865 54.0376 868.645 55.6931C870.278 56.162 872.092 56.6406 874.088 56.6023C875.514 56.5735 878.045 56.2291 879.729 55.741C885.492 54.095 889.535 47.8652 889.622 40.7451C889.708 40.7547 889.794 40.7643 889.881 40.7643C892.015 40.7643 893.742 38.8503 893.742 36.4866V35.5965C893.734 33.2423 892.006 31.3284 889.872 31.3284Z" fill="#FFDBD8"/>
<path d="M874.416 40.4197C874.407 40.4197 874.399 40.4197 874.39 40.4197C874.235 40.4101 870.485 40.1518 870.261 37.1851C870.183 36.142 870.398 35.3094 870.9 34.6969C871.349 34.1514 871.937 33.9313 872.334 33.8357L872.973 28.4765C873.008 28.1703 873.267 27.9502 873.543 27.9885C873.82 28.0267 874.019 28.3138 873.984 28.6201L873.232 34.8979H872.792C872.792 34.8979 872.083 34.917 871.651 35.453C871.349 35.8166 871.228 36.3621 871.28 37.0703C871.427 39.0608 874.425 39.2713 874.45 39.2713C874.727 39.2905 874.943 39.5584 874.934 39.8647C874.909 40.19 874.684 40.4197 874.416 40.4197Z" fill="#004351"/>
<path d="M889.691 38.2568C889.647 38.2568 889.604 38.2472 889.552 38.2376C889.284 38.1515 889.12 37.8453 889.198 37.5486C889.284 37.2137 890.053 34.2853 891.747 33.7685C892.015 33.6824 892.299 33.8642 892.369 34.1609C892.446 34.4576 892.282 34.7733 892.015 34.8499C891.055 35.137 890.356 37.1563 890.183 37.8357C890.114 38.0845 889.906 38.2568 889.691 38.2568Z" fill="#004351"/>
<path d="M891.609 38.1802C891.401 38.1802 891.203 38.0366 891.133 37.807C890.771 36.7064 890.157 36.4193 890.14 36.4097C889.881 36.2949 889.751 35.9695 889.846 35.6824C889.941 35.3954 890.226 35.2423 890.494 35.3475C890.598 35.3858 891.565 35.8164 892.092 37.4146C892.187 37.7113 892.058 38.0271 891.79 38.1419C891.729 38.1706 891.669 38.1802 891.609 38.1802Z" fill="#004351"/>
<path d="M858.321 37.9598C858.096 37.9598 857.889 37.7972 857.829 37.5484C857.656 36.8689 856.956 34.8497 855.997 34.5625C855.729 34.4764 855.565 34.1702 855.643 33.8735C855.721 33.5768 855.997 33.395 856.265 33.4812C857.958 33.9884 858.727 36.9263 858.813 37.2612C858.891 37.5579 858.727 37.8737 858.459 37.9503C858.407 37.9503 858.364 37.9598 858.321 37.9598Z" fill="#004351"/>
<path d="M856.394 37.8833C856.334 37.8833 856.273 37.8737 856.221 37.845C855.954 37.7398 855.824 37.4144 855.919 37.1177C856.446 35.5196 857.414 35.0985 857.517 35.0506C857.785 34.9454 858.07 35.0985 858.165 35.3856C858.26 35.6726 858.122 35.998 857.863 36.1033C857.828 36.1225 857.232 36.4095 856.869 37.5005C856.792 37.7398 856.601 37.8833 856.394 37.8833Z" fill="#004351"/>
<path d="M867.384 30.2564C867.384 31.089 866.77 31.7685 866.018 31.7685C865.267 31.7685 864.653 31.089 864.653 30.2564C864.653 29.4238 865.267 28.7444 866.018 28.7444C866.77 28.754 867.384 29.4238 867.384 30.2564Z" fill="#004351"/>
<path d="M881.422 30.295C881.422 31.1276 880.809 31.8071 880.058 31.8071C879.306 31.8071 878.692 31.1276 878.692 30.295C878.692 29.4625 879.306 28.783 880.058 28.783C880.809 28.7925 881.422 29.4625 881.422 30.295Z" fill="#004351"/>
<path d="M873.552 45.2521C871.142 45.2521 869.293 44.1992 869.267 44.18C869.016 44.0368 868.921 43.6919 869.051 43.4145C869.181 43.1371 869.492 43.0318 869.742 43.1755C869.932 43.2804 874.407 45.8164 878.269 42.2184C878.485 42.0172 878.805 42.046 878.986 42.2854C879.168 42.5245 879.142 42.8785 878.926 43.0797C877.137 44.7544 875.211 45.2521 873.552 45.2521Z" fill="#004351"/>
<path d="M868.135 26.6964C868.032 26.6964 867.919 26.6581 867.824 26.5815C865.82 24.8972 864.204 26.4762 864.144 26.5433C863.936 26.7538 863.617 26.7346 863.427 26.5145C863.237 26.2848 863.245 25.9308 863.453 25.7202C864.239 24.9164 866.287 23.8637 868.446 25.682C868.671 25.8733 868.714 26.2274 868.542 26.4762C868.438 26.6198 868.282 26.6964 868.135 26.6964Z" fill="#004351"/>
<path d="M881.941 25.5958C881.837 25.5958 881.725 25.5575 881.63 25.481C879.608 23.7775 878.019 25.3757 877.949 25.4426C877.742 25.6532 877.423 25.6436 877.233 25.4139C877.042 25.1843 877.051 24.8302 877.259 24.6197C878.044 23.8158 880.092 22.7631 882.252 24.5814C882.477 24.7728 882.52 25.1269 882.347 25.3757C882.243 25.5192 882.096 25.5958 881.941 25.5958Z" fill="#004351"/>
<path d="M875.047 168.532C874.693 168.532 874.407 168.216 874.407 167.824L874.321 66.3826C874.321 65.9903 874.606 65.6746 874.96 65.6746C875.314 65.6746 875.6 65.9903 875.6 66.3826L875.686 167.824C875.686 168.216 875.401 168.532 875.047 168.532Z" fill="#CDE8E5"/>
<path d="M882.295 14.3607C882.295 14.3607 876.187 18.6767 870.433 18.9734C864.68 19.2701 866.096 16.2268 866.096 16.2268C866.096 16.2268 862.554 19.6624 859.816 19.6624C859.816 19.6624 860.256 30.5434 859.816 32.7062C859.375 34.8594 845.829 26.1413 852.204 12.6095C858.58 -0.922358 874.243 -2.29084 883.099 4.66645C883.099 4.66645 890.978 5.15453 893.544 14.2746C896.827 25.9403 890.537 33.3952 889.121 33.3952C887.704 33.3952 886.727 22.3133 886.727 22.3133C886.727 22.3133 882.822 19.5572 882.295 14.3607Z" fill="#004351"/>
<path d="M889.111 33.9503C888.325 33.9503 887.643 32.9264 886.882 27.9405C886.537 25.6724 886.312 23.3852 886.234 22.6292C885.44 21.9976 882.649 19.519 881.906 15.2891C880.152 16.4183 875.237 19.2989 870.459 19.5477C867.91 19.6817 866.364 19.2032 865.725 18.1026C865.613 17.9016 865.535 17.7007 865.491 17.4997C864.316 18.4663 862.243 19.9496 860.351 20.1984C860.437 22.4761 860.714 30.888 860.316 32.8402C860.239 33.2135 859.979 33.4814 859.617 33.5676C858.26 33.8929 855.046 31.7971 852.774 28.4955C850.865 25.7203 848.187 19.9305 851.755 12.3511C854.545 6.43696 859.366 2.2932 865.345 0.704603C871.556 -0.950986 878.407 0.36008 883.28 4.12104C884.42 4.25503 891.591 5.44168 894.027 14.112C896.567 23.146 893.483 29.1941 892.031 31.3665C890.977 32.9359 889.837 33.9503 889.111 33.9503ZM882.71 13.4038L882.805 14.3034C883.306 19.1745 886.96 21.8062 886.995 21.8349L887.202 21.9784L887.228 22.256C887.634 26.9069 888.498 32.1799 889.155 32.8211C889.431 32.735 890.338 32.0842 891.392 30.3999C892.662 28.3615 895.375 22.7345 893.042 14.4469C890.615 5.82447 883.366 5.25031 883.055 5.23115L882.908 5.22157L882.788 5.1259C878.148 1.47976 871.547 0.1974 865.569 1.79557C859.884 3.30761 855.288 7.24082 852.645 12.8679C849.068 20.4664 852.118 26.0648 854.26 28.7347C856.481 31.4909 858.77 32.5436 859.331 32.4766C859.651 30.553 859.418 22.6388 859.297 19.6912L859.271 19.0979H859.807C862.329 19.0979 865.725 15.8346 865.759 15.8059L867.772 13.8536L866.545 16.4853C866.537 16.5045 866.312 17.0308 866.58 17.4902C866.822 17.8921 867.634 18.5524 870.407 18.4089C875.953 18.1218 881.958 13.9302 882.018 13.8919L882.71 13.4038Z" fill="#004351"/>
<path d="M850.165 71.5786C850.165 71.5786 812.429 119.964 824.316 143.544C837.535 169.746 879.418 151.133 879.418 151.133L875.6 126.74L846.623 126.682C846.623 126.692 851.755 77.0721 850.165 71.5786Z" fill="white"/>
<path d="M897.604 66.5261C903.082 67.0908 937.302 118.414 926.296 142.511C913.924 169.613 872.412 147.889 872.412 147.889L875.081 126.175L903.85 129.419C903.859 129.419 892.421 65.9901 897.604 66.5261Z" fill="white"/>
<path d="M897.112 131.257C897.042 131.257 896.973 131.247 896.896 131.218C881.431 125.141 863.263 127.888 863.081 127.917C862.736 127.974 862.407 127.706 862.364 127.314C862.312 126.931 862.554 126.567 862.908 126.519C863.09 126.491 881.578 123.696 897.328 129.888C897.656 130.022 897.829 130.424 897.716 130.788C897.621 131.075 897.379 131.257 897.112 131.257Z" fill="#C0BABA"/>
<path d="M903.565 116.261C903.237 116.261 902.952 115.974 902.934 115.61C902.917 115.304 900.939 85.0726 896.965 75.9045C896.809 75.5505 896.947 75.1294 897.267 74.9665C897.586 74.7945 897.967 74.9474 898.113 75.3018C902.191 84.7186 904.127 114.27 904.204 115.524C904.23 115.916 903.962 116.251 903.617 116.28C903.591 116.261 903.582 116.261 903.565 116.261Z" fill="#C0BABA"/>
<path d="M832.567 132.099C832.377 132.099 832.178 132.003 832.057 131.812C831.85 131.496 831.902 131.056 832.187 130.826C832.342 130.701 835.997 127.716 842.001 127.869C842.355 127.879 842.632 128.204 842.623 128.587C842.614 128.969 842.329 129.276 841.984 129.276C841.975 129.276 841.975 129.276 841.967 129.276C836.42 129.151 832.973 131.926 832.938 131.955C832.835 132.06 832.696 132.099 832.567 132.099Z" fill="#C0BABA"/>
<path d="M917.57 133.228C917.44 133.228 917.302 133.18 917.189 133.084C917.138 133.037 913.699 130.271 908.161 130.405C907.798 130.424 907.522 130.108 907.513 129.716C907.505 129.324 907.781 129.007 908.135 128.998C914.14 128.845 917.803 131.831 917.949 131.955C918.235 132.185 918.286 132.635 918.079 132.941C917.949 133.132 917.76 133.228 917.57 133.228Z" fill="#C0BABA"/>
<path d="M846.269 114.758C846.252 114.758 846.235 114.758 846.226 114.758C845.872 114.73 845.613 114.394 845.639 114.002C845.716 112.748 847.651 83.1966 851.729 73.7798C851.885 73.4258 852.265 73.2821 852.576 73.445C852.896 73.6174 853.025 74.0385 852.878 74.3829C848.904 83.5602 846.926 113.782 846.908 114.088C846.883 114.481 846.597 114.758 846.269 114.758Z" fill="#C0BABA"/>
<path d="M909.043 128.721C908.784 128.721 908.542 128.539 908.447 128.262C908.325 127.898 908.498 127.486 908.826 127.352C914.226 125.161 918.053 127.008 918.218 127.085C918.537 127.247 918.684 127.658 918.537 128.013C918.39 128.367 918.019 128.529 917.699 128.367C917.639 128.338 914.14 126.692 909.267 128.663C909.19 128.702 909.112 128.721 909.043 128.721Z" fill="#C0BABA"/>
<path d="M841.094 127.592C841.025 127.592 840.947 127.582 840.878 127.544C835.962 125.553 832.48 127.228 832.446 127.247C832.126 127.41 831.746 127.247 831.608 126.893C831.461 126.539 831.608 126.118 831.928 125.964C832.092 125.888 835.919 124.041 841.319 126.233C841.647 126.367 841.82 126.769 841.699 127.142C841.604 127.41 841.353 127.592 841.094 127.592Z" fill="#C0BABA"/>
<path d="M862.995 127.219C862.995 127.219 861.492 123.199 858.217 122.319C858.217 122.319 857.69 119.477 855.211 118.989C855.211 118.989 854.701 115.83 850.986 115.83C850.986 115.83 850.433 113.084 846.269 114.069C842.105 115.046 836.533 121.056 838.122 123.017C839.712 124.979 844.498 120.567 844.498 120.567C844.498 120.567 837.509 126.348 838.572 128.998C839.634 131.649 844.144 128.118 844.947 127.037C844.947 127.037 841.137 130.759 843.09 132.329C845.034 133.898 851.142 128.702 851.142 128.702C851.142 128.702 848.04 131.64 849.906 132.721C851.764 133.802 857.25 129.582 857.25 129.582C857.25 129.582 862.295 128.884 862.995 127.219Z" fill="#FFDBD8"/>
<path d="M889.362 127.812C889.362 127.812 890.866 123.793 894.14 122.912C894.14 122.912 894.667 120.07 897.146 119.581C897.146 119.581 897.656 116.424 901.371 116.424C901.371 116.424 901.924 113.677 906.088 114.663C910.252 115.639 915.825 121.649 914.235 123.611C912.645 125.572 907.859 121.161 907.859 121.161C907.859 121.161 914.848 126.941 913.786 129.592C912.723 132.243 908.213 128.711 907.41 127.63C907.41 127.63 911.22 131.353 909.267 132.922C907.323 134.492 901.215 129.295 901.215 129.295C901.215 129.295 904.317 132.233 902.451 133.314C900.593 134.396 895.107 130.176 895.107 130.176C895.107 130.176 890.071 129.477 889.362 127.812Z" fill="#FFDBD8"/>
<path d="M885.595 83.5509C885.526 83.5509 885.457 83.5413 885.397 83.5317C884.844 83.4076 884.489 82.8141 884.602 82.2019C887.574 65.8373 883.522 62.8419 883.479 62.8132L882.952 62.612L882.485 60.2964C884.248 60.5929 889.88 64.5741 886.597 82.6517C886.502 83.1873 886.07 83.5509 885.595 83.5509Z" fill="#003C68"/>
<path d="M884.956 86.0776C886.736 86.0776 888.178 84.5091 888.178 82.5749C888.178 80.6403 886.736 79.0723 884.956 79.0723C883.176 79.0723 881.734 80.6403 881.734 82.5749C881.734 84.5091 883.176 86.0776 884.956 86.0776Z" fill="#003C68"/>
<path d="M884.956 87.2066C882.615 87.2066 880.714 85.13 880.714 82.5749C880.714 80.0197 882.615 77.9431 884.956 77.9431C887.298 77.9431 889.198 80.0197 889.198 82.5749C889.198 85.13 887.298 87.2066 884.956 87.2066ZM884.956 80.2013C883.738 80.2013 882.753 81.2638 882.753 82.5749C882.753 83.886 883.747 84.948 884.956 84.948C886.174 84.948 887.159 83.886 887.159 82.5749C887.159 81.2733 886.174 80.2013 884.956 80.2013Z" fill="#003C68"/>
<path d="M885.759 85.1395C886.847 85.1395 887.729 84.1841 887.729 83.0054C887.729 81.8268 886.847 80.8713 885.759 80.8713C884.671 80.8713 883.79 81.8268 883.79 83.0054C883.79 84.1841 884.671 85.1395 885.759 85.1395Z" fill="#00548B"/>
<path d="M873.898 92.4608C873.855 92.0968 873.647 91.8098 873.362 91.6757C873.527 91.4845 873.63 91.2167 873.604 90.9294C873.457 88.6329 872.455 85.5321 870.114 83.7042C868.671 82.5751 866.917 82.1253 864.991 82.3739C862.217 66.5166 866.174 63.5883 866.209 63.5596L866.174 63.5787L866.632 61.3105C863.876 61.6837 859.902 65.2534 862.995 82.862C858.062 84.69 857.44 90.7286 857.811 93.7431C857.863 94.1355 858.114 94.4416 858.433 94.547C858.217 94.7764 858.105 95.1113 858.166 95.4657C858.2 95.6569 858.554 97.3891 859.755 98.2024C860.153 98.4707 860.593 98.6044 861.051 98.6044C861.31 98.6044 861.578 98.566 861.855 98.4802C862.33 98.3366 862.606 97.791 862.468 97.2645C862.338 96.7385 861.846 96.432 861.371 96.5852C860.999 96.7002 860.801 96.6044 860.68 96.5278C860.222 96.2216 859.963 95.3508 859.902 95.0734C859.833 94.7094 859.591 94.4416 859.289 94.3362C859.487 94.1259 859.6 93.8098 859.565 93.4845C859.531 93.188 858.736 86.2018 863.885 84.6325C865.924 84.0103 867.669 84.2402 869.06 85.331C870.891 86.7666 871.677 89.3217 871.799 91.0826C871.824 91.4654 872.04 91.7811 872.343 91.9152C872.17 92.1159 872.066 92.4033 872.101 92.6998C872.127 92.9868 872.135 93.896 871.781 94.3554C871.695 94.4703 871.531 94.6332 871.142 94.6523C870.649 94.6806 870.269 95.14 870.295 95.6856C870.321 96.2121 870.71 96.6236 871.185 96.6236C871.203 96.6236 871.211 96.6236 871.228 96.6236C872.014 96.5757 872.68 96.2312 873.138 95.6282C874.079 94.4224 873.915 92.6519 873.898 92.4608Z" fill="#003C68"/>
<path d="M851.798 158.273C848.213 158.273 846.14 157.919 846.088 157.899C845.742 157.832 845.509 157.469 845.561 157.086C845.621 156.703 845.941 156.445 846.295 156.502C846.442 156.531 860.801 158.99 879.902 150.531C880.231 150.387 880.602 150.559 880.732 150.923C880.861 151.286 880.706 151.698 880.377 151.842C868.17 157.248 857.837 158.273 851.798 158.273Z" fill="#C0BABA"/>
<path d="M905.267 156.636C905.25 156.636 905.233 156.636 905.216 156.636C886.494 155.095 874.935 150.234 868.533 146.416C861.526 142.243 859.012 138.453 858.909 138.291C858.701 137.975 858.77 137.535 859.055 137.305C859.341 137.076 859.738 137.152 859.945 137.468C859.971 137.506 862.451 141.219 869.241 145.238C875.522 148.961 886.883 153.717 905.302 155.229C905.656 155.258 905.915 155.593 905.89 155.985C905.872 156.359 905.596 156.636 905.267 156.636Z" fill="#C0BABA"/>
<path d="M844.152 121.246C843.997 121.246 843.85 121.189 843.729 121.065C843.47 120.807 843.444 120.357 843.686 120.069C843.79 119.945 846.2 117.017 849.647 115.916C849.984 115.811 850.338 116.022 850.433 116.395C850.528 116.768 850.338 117.16 850.001 117.266C846.9 118.261 844.653 120.979 844.636 121.007C844.498 121.161 844.325 121.246 844.152 121.246Z" fill="#B57A77"/>
<path d="M844.938 127.726C844.843 127.726 844.748 127.697 844.653 127.649C844.342 127.477 844.213 127.046 844.368 126.702C844.446 126.539 846.234 122.625 848.463 121.132C850.615 119.687 852.671 119.037 852.757 119.008C853.094 118.902 853.448 119.122 853.543 119.496C853.638 119.869 853.44 120.261 853.103 120.367C853.085 120.376 851.116 120.998 849.12 122.338C847.202 123.63 845.517 127.305 845.5 127.333C845.396 127.582 845.172 127.726 844.938 127.726Z" fill="#B57A77"/>
<path d="M851.66 128.367C851.548 128.367 851.427 128.328 851.323 128.261C851.021 128.06 850.934 127.62 851.116 127.295C851.185 127.161 852.921 124.098 855.66 123.113C855.997 122.988 856.351 123.199 856.464 123.562C856.576 123.936 856.386 124.328 856.058 124.452C853.768 125.275 852.213 128.003 852.204 128.032C852.083 128.242 851.876 128.367 851.66 128.367Z" fill="#B57A77"/>
<path d="M900.343 128.577C900.187 128.577 900.04 128.52 899.919 128.396C899.894 128.367 897.423 125.917 895.747 125.027C895.427 124.864 895.297 124.443 895.444 124.089C895.6 123.735 895.971 123.591 896.291 123.754C898.14 124.73 900.662 127.237 900.774 127.343C901.034 127.601 901.06 128.051 900.818 128.338C900.688 128.501 900.515 128.577 900.343 128.577Z" fill="#B57A77"/>
<path d="M907.047 127.735C906.857 127.735 906.675 127.649 906.555 127.477C906.529 127.438 903.79 123.677 902.097 122.347C900.438 121.036 898.952 120.682 898.943 120.672C898.598 120.596 898.382 120.223 898.451 119.84C898.52 119.457 898.857 119.218 899.202 119.294C899.271 119.313 900.965 119.715 902.84 121.199C904.671 122.653 907.436 126.433 907.548 126.596C907.764 126.902 907.721 127.342 907.453 127.592C907.323 127.677 907.185 127.735 907.047 127.735Z" fill="#B57A77"/>
<path d="M907.721 121.247C907.557 121.247 907.393 121.18 907.272 121.036C907.229 120.988 904.991 118.558 902.693 118.127C902.347 118.06 902.114 117.697 902.166 117.314C902.226 116.931 902.555 116.672 902.9 116.73C905.613 117.228 908.067 119.917 908.17 120.031C908.421 120.309 908.421 120.749 908.17 121.027C908.049 121.17 907.885 121.247 907.721 121.247Z" fill="#B57A77"/>
<path d="M868.775 57.7795L875.6 64.7174L871.513 71.3591L865.664 62.8802L868.775 57.7795Z" fill="#103550"/>
<path d="M881.051 57.9229L874.243 64.8419L878.321 71.4645L884.144 63.014L881.051 57.9229Z" fill="#103550"/>
<path d="M849.163 87.5894C848.965 87.5894 848.766 87.4841 848.645 87.2929C846.045 83.2159 846.9 79.3497 846.934 79.1873C847.021 78.8137 847.366 78.5842 847.712 78.68C848.049 78.7758 848.256 79.1585 848.17 79.5317C848.135 79.675 847.436 82.9577 849.682 86.4699C849.889 86.7856 849.82 87.2258 849.526 87.4553C849.414 87.5415 849.284 87.5894 849.163 87.5894Z" fill="#C0BABA"/>
<path d="M900.17 85.3306C900.024 85.3306 899.868 85.2732 899.747 85.1586C899.479 84.9 899.462 84.4502 899.687 84.1632C902.002 81.2541 901.328 76.9955 901.319 76.9572C901.259 76.5744 901.483 76.2108 901.829 76.1342C902.175 76.0671 902.503 76.3158 902.572 76.6985C902.607 76.8997 903.358 81.6847 900.637 85.0916C900.525 85.2444 900.343 85.3306 900.17 85.3306Z" fill="#C0BABA"/>
<path d="M885.232 35.5008H881.267C880.913 35.5008 880.628 35.185 880.628 34.7926C880.628 34.4003 880.913 34.0845 881.267 34.0845H885.232C885.586 34.0845 885.872 34.4003 885.872 34.7926C885.872 35.185 885.586 35.5008 885.232 35.5008Z" fill="#FF7F90"/>
<path d="M866.408 35.596H862.442C862.088 35.596 861.803 35.2803 861.803 34.8879C861.803 34.4955 862.088 34.1797 862.442 34.1797H866.408C866.762 34.1797 867.047 34.4955 867.047 34.8879C867.047 35.2803 866.762 35.596 866.408 35.596Z" fill="#FF7F90"/>
<path d="M845.345 184.8C845.068 184.8 844.818 184.599 844.731 184.293C844.628 183.92 844.826 183.527 845.163 183.412C845.224 183.393 851.306 181.307 855.867 174.455C856.075 174.139 856.472 174.072 856.757 174.302C857.042 174.532 857.103 174.972 856.896 175.288C852.075 182.542 845.794 184.676 845.535 184.762C845.466 184.791 845.396 184.8 845.345 184.8Z" fill="#C0BABA"/>
<path d="M904.671 184.609C904.611 184.609 904.55 184.599 904.49 184.58C904.222 184.494 897.95 182.36 893.129 175.106C892.922 174.79 892.982 174.35 893.267 174.12C893.552 173.891 893.95 173.957 894.157 174.273C898.727 181.145 904.801 183.212 904.861 183.231C905.198 183.346 905.388 183.738 905.293 184.111C905.198 184.408 904.939 184.609 904.671 184.609Z" fill="#C0BABA"/>
<path d="M882.598 13.0784C882.546 13.0784 882.494 13.0688 882.433 13.0496C882.166 12.9539 882.019 12.6286 882.114 12.3319C882.459 11.1931 883.289 7.89149 883.029 6.31247C882.978 6.00622 883.159 5.70956 883.435 5.65213C883.712 5.59469 883.98 5.79569 884.032 6.10193C884.395 8.28386 883.133 12.5042 883.081 12.6764C883.012 12.9252 882.814 13.0784 882.598 13.0784Z" fill="#056370"/>
<path d="M852.299 16.1791C852.265 16.1791 852.23 16.179 852.196 16.1695C851.919 16.1025 851.746 15.8058 851.798 15.5092C851.841 15.289 852.835 10.1692 858.2 5.94885C858.433 5.76705 858.744 5.82444 858.908 6.08283C859.072 6.34122 859.021 6.68574 858.787 6.86757C853.768 10.8104 852.809 15.6814 852.792 15.7388C852.748 15.9972 852.541 16.1791 852.299 16.1791Z" fill="#056370"/>
<path d="M855.487 16.5999C855.47 16.5999 855.453 16.5999 855.427 16.5999C855.15 16.5616 854.943 16.284 854.977 15.9778C854.986 15.8534 855.323 12.8484 858.226 10.1306C858.442 9.92962 858.761 9.95836 858.943 10.1976C859.124 10.4369 859.098 10.7909 858.882 10.9919C856.291 13.4226 855.997 16.0735 855.988 16.1022C855.962 16.3893 855.738 16.5999 855.487 16.5999Z" fill="#056370"/>
<path d="M892.965 18.1792C892.714 18.1792 892.498 17.9686 892.464 17.6911C892.023 13.9876 890.157 12.2554 890.14 12.2363C889.924 12.0353 889.889 11.6812 890.071 11.442C890.252 11.2028 890.563 11.1645 890.788 11.3654C890.874 11.442 892.973 13.3751 893.474 17.5476C893.509 17.8538 893.319 18.1409 893.034 18.1792C893.008 18.1792 892.982 18.1792 892.965 18.1792Z" fill="#056370"/>
</g>
<defs>
<clipPath id="clip0_933_201">
<rect width="106.62" height="192" fill="white" transform="translate(822)"/>
</clipPath>
</defs>
</svg>
