<svg width="28" height="38" viewBox="0 0 28 38" fill="none" xmlns="http://www.w3.org/2000/svg">
<g clip-path="url(#clip0_378_245)">
<path d="M24.5153 4.7706H20.5067V6.66993H24.5262C25.5451 6.66993 26.3711 7.49593 26.3711 8.51482V33.9342C26.3711 34.9546 25.5436 35.7806 24.5247 35.7806H3.73467C3.49219 35.7806 3.25209 35.7328 3.02807 35.64C2.80405 35.5473 2.6005 35.4112 2.42904 35.2398C2.25758 35.0683 2.12157 34.8648 2.02878 34.6408C1.93599 34.4167 1.88823 34.1766 1.88823 33.9342V8.51482C1.88823 7.49438 2.71578 6.66838 3.73467 6.66838H7.75423V4.7706H3.74556C3.25299 4.77039 2.7652 4.86726 2.31009 5.05567C1.85497 5.24407 1.44144 5.52032 1.09314 5.86862C0.74484 6.21692 0.468592 6.63045 0.280187 7.08557C0.0917817 7.54069 -0.00508692 8.02847 -0.00488249 8.52104V33.917C-0.00488253 34.4095 0.0921369 34.8971 0.280633 35.352C0.46913 35.807 0.74541 36.2203 1.09369 36.5685C1.44197 36.9166 1.85543 37.1927 2.31045 37.381C2.76546 37.5693 3.25312 37.6661 3.74556 37.6659H24.5138C25.0064 37.6661 25.4941 37.5693 25.9493 37.3809C26.4044 37.1925 26.8179 36.9162 27.1662 36.5679C27.5145 36.2196 27.7908 35.8061 27.9792 35.351C28.1676 34.8958 28.2644 34.4081 28.2642 33.9155V8.51949C28.2644 8.02691 28.1676 7.53913 27.9792 7.08401C27.7908 6.6289 27.5145 6.21537 27.1662 5.86707C26.8179 5.51877 26.4044 5.24252 25.9493 5.05411C25.4941 4.86571 25.0064 4.76884 24.5138 4.76904L24.5153 4.7706Z" fill="#2D6974"/>
<path d="M19.6082 3.79461H17.5564C17.5564 2.87666 17.1917 1.99632 16.5426 1.34723C15.8936 0.698148 15.0132 0.333496 14.0953 0.333496C13.1773 0.333496 12.297 0.698148 11.6479 1.34723C10.9988 1.99632 10.6342 2.87666 10.6342 3.79461H8.59638V8.54994H19.5988V3.79461H19.6082ZM16.0957 3.79461H12.0979V3.74483C12.0979 3.21428 12.3087 2.70546 12.6839 2.3303C13.059 1.95515 13.5678 1.74439 14.0984 1.74439C14.6289 1.74439 15.1377 1.95515 15.5129 2.3303C15.8881 2.70546 16.0988 3.21428 16.0988 3.74483V3.79772V3.79461H16.0957ZM9.25127 13.5744H23.9637V15.3944H9.25127V13.5744ZM9.25127 21.1935H23.9637V23.0135H9.25127V21.1935ZM9.25127 28.7224H23.9637V30.5517H9.25127V28.7224ZM4.08838 12.3999H8.25727V16.5688H4.08838V12.3999ZM4.08838 20.0191H8.25727V24.1879H4.08838V20.0191ZM4.08838 27.5511H8.25727V31.7199H4.08838V27.5511Z" fill="#2D6974"/>
</g>
<defs>
<clipPath id="clip0_378_245">
<rect width="28" height="37.3333" fill="white" transform="translate(0 0.333496)"/>
</clipPath>
</defs>
</svg>
