<svg width="22" height="22" viewBox="0 0 22 22" fill="none" xmlns="http://www.w3.org/2000/svg">
<path d="M20.1667 4.58301V6.41634H17.4167V9.16634H15.5833V6.41634H12.8333V4.58301H15.5833V1.83301H17.4167V4.58301H20.1667ZM17.4167 17.4163H4.58333V4.58301H10.0833V2.74967H4.58333C3.575 2.74967 2.75 3.57467 2.75 4.58301V17.4163C2.75 18.4247 3.575 19.2497 4.58333 19.2497H17.4167C18.425 19.2497 19.25 18.4247 19.25 17.4163V11.9163H17.4167V17.4163ZM13.75 11.9163V15.583H15.5833V11.9163H13.75ZM10.0833 15.583H11.9167V8.24967H10.0833V15.583ZM8.25 15.583V10.083H6.41667V15.583H8.25Z" fill="black"/>
</svg>
