<svg width="21" height="25" viewBox="0 0 21 25" fill="none" xmlns="http://www.w3.org/2000/svg">
<path fill-rule="evenodd" clip-rule="evenodd" d="M2.62501 8.125C2.62501 6.03642 3.4547 4.03338 4.93155 2.55653C6.4084 1.07969 8.41143 0.25 10.5 0.25C12.5886 0.25 14.5916 1.07969 16.0685 2.55653C17.5453 4.03338 18.375 6.03642 18.375 8.125V12.3595L20.4248 16.459C20.5191 16.6477 20.5637 16.8574 20.5542 17.0681C20.5447 17.2789 20.4815 17.4837 20.3706 17.6631C20.2597 17.8426 20.1047 17.9907 19.9205 18.0934C19.7362 18.1961 19.5287 18.25 19.3178 18.25H14.8583C14.608 19.2155 14.0442 20.0706 13.2554 20.681C12.4666 21.2915 11.4974 21.6227 10.5 21.6227C9.50259 21.6227 8.5334 21.2915 7.74459 20.681C6.95578 20.0706 6.39201 19.2155 6.14176 18.25H1.68226C1.4713 18.25 1.26383 18.1961 1.07956 18.0934C0.895295 17.9907 0.740343 17.8426 0.629426 17.6631C0.51851 17.4837 0.45531 17.2789 0.44583 17.0681C0.436351 16.8574 0.480905 16.6477 0.575263 16.459L2.62501 12.3595V8.125ZM8.55151 18.25C8.749 18.592 9.03303 18.876 9.37506 19.0735C9.71709 19.2709 10.1051 19.3749 10.5 19.3749C10.895 19.3749 11.2829 19.2709 11.625 19.0735C11.967 18.876 12.251 18.592 12.4485 18.25H8.55151ZM10.5 2.5C9.00817 2.5 7.57743 3.09263 6.52254 4.14752C5.46765 5.20242 4.87501 6.63316 4.87501 8.125V12.3595C4.87499 12.7086 4.79372 13.053 4.63764 13.3652L3.32139 16H17.6798L16.3635 13.3652C16.207 13.0531 16.1254 12.7087 16.125 12.3595V8.125C16.125 6.63316 15.5324 5.20242 14.4775 4.14752C13.4226 3.09263 11.9919 2.5 10.5 2.5Z" fill="white"/>
</svg>
