<svg width="24" height="26" viewBox="0 0 24 26" fill="none" xmlns="http://www.w3.org/2000/svg">
<path d="M12 15.5C13.3807 15.5 14.5 14.3807 14.5 13C14.5 11.6193 13.3807 10.5 12 10.5C10.6193 10.5 9.5 11.6193 9.5 13C9.5 14.3807 10.6193 15.5 12 15.5Z" stroke="white" stroke-width="1.875"/>
<path d="M3.7488 5.35008L4.21755 4.53758C4.03351 4.43141 3.81886 4.3909 3.60879 4.4227C3.39872 4.45449 3.20567 4.5567 3.0613 4.71258L3.7488 5.35008ZM1.25005 9.68008L0.353797 9.40258C0.2911 9.60564 0.299257 9.82398 0.376931 10.0218C0.454604 10.2196 0.597186 10.3852 0.781297 10.4913L1.25005 9.68008ZM1.24755 16.3188L0.778797 15.5063C0.594647 15.6127 0.452145 15.7786 0.374689 15.9766C0.297232 16.1747 0.289424 16.3932 0.352547 16.5963L1.24755 16.3188ZM3.74755 20.6488L3.06005 21.2863C3.20443 21.4422 3.39747 21.5444 3.60754 21.5762C3.81762 21.608 4.03226 21.5675 4.2163 21.4613L3.74755 20.6488ZM9.49755 23.9676H8.56005C8.56005 24.4051 8.8638 24.7838 9.29005 24.8813L9.49755 23.9676ZM14.4988 23.9701L14.7075 24.8851C14.9147 24.8377 15.0997 24.7214 15.2321 24.5552C15.3645 24.3889 15.4365 24.1826 15.4363 23.9701H14.4988ZM20.25 20.6501L19.7813 21.4626C19.9653 21.5687 20.18 21.6092 20.3901 21.5775C20.6001 21.5457 20.7932 21.4434 20.9375 21.2876L20.25 20.6501ZM22.7475 16.3176L23.6438 16.5951C23.7065 16.392 23.6983 16.1737 23.6207 15.9759C23.543 15.778 23.4004 15.6125 23.2163 15.5063L22.7475 16.3176ZM22.75 9.67883L23.2188 10.4913C23.4029 10.3849 23.5454 10.2191 23.6229 10.021C23.7004 9.82294 23.7082 9.60442 23.645 9.40133L22.75 9.67883ZM20.25 5.34758L20.9375 4.71133C20.7932 4.55545 20.6001 4.45324 20.3901 4.42145C20.18 4.38965 19.9653 4.43016 19.7813 4.53633L20.25 5.34758ZM14.5 2.03133H15.4375C15.4375 1.819 15.3654 1.61299 15.233 1.44699C15.1006 1.28099 14.9158 1.16485 14.7088 1.11758L14.5 2.03133ZM9.50005 2.02883L9.2913 1.11383C9.0841 1.16115 8.89912 1.27748 8.76671 1.44373C8.6343 1.60998 8.56231 1.81629 8.56255 2.02883H9.50005ZM2.1463 9.95758C2.60125 8.47872 3.38354 7.12137 4.43505 5.98633L3.06005 4.71133C1.81748 6.05254 0.892934 7.65639 0.355047 9.40383L2.1463 9.95758ZM3.0688 18.1563C2.68292 17.4887 2.37267 16.7802 2.1438 16.0438L0.353797 16.5976C0.623602 17.4676 0.989614 18.3049 1.44505 19.0938L3.0688 18.1563ZM4.4363 20.0138C3.91284 19.4474 3.45417 18.8244 3.0688 18.1563L1.44505 19.0938C1.90015 19.8828 2.44183 20.6174 3.06005 21.2863L4.4363 20.0138ZM14.2913 23.0576C12.783 23.4009 11.2167 23.4 9.7088 23.0551L9.2913 24.8826C11.0739 25.2907 12.9256 25.292 14.7088 24.8863L14.2913 23.0576ZM21.8538 16.0426C21.3988 17.5214 20.6166 18.8788 19.565 20.0138L20.94 21.2888C22.1826 19.9476 23.1072 18.3438 23.645 16.5963L21.8538 16.0426ZM20.9313 7.84383C21.3238 8.52966 21.6321 9.23383 21.8563 9.95633L23.6463 9.40258C23.3765 8.53251 23.0105 7.69525 22.555 6.90633L20.9313 7.84383ZM19.5625 5.98633C20.075 6.54008 20.535 7.16133 20.93 7.84383L22.555 6.90633C22.0996 6.11725 21.5562 5.3802 20.9375 4.71133L19.5625 5.98633ZM9.70755 2.94258C11.2159 2.59929 12.7821 2.60015 14.29 2.94508L14.7088 1.11758C12.9262 0.709473 11.0732 0.708192 9.29005 1.11383L9.70755 2.94258ZM10.4363 4.34008V2.02758H8.5613V4.34008H10.4363ZM6.2188 5.69258L4.21755 4.53758L3.28005 6.16133L5.28005 7.31633L6.2188 5.69258ZM2.7813 14.3538L0.780047 15.5088L1.71755 17.1326L3.7188 15.9776L2.7813 14.3538ZM3.7188 10.0226L1.7188 8.86883L0.781297 10.4938L2.7813 11.6476L3.7188 10.0226ZM10.4375 23.9688V21.6601H8.56255V23.9688H10.4375ZM5.2813 18.6838L3.28005 19.8388L4.21755 21.4638L6.21755 20.3076L5.2813 18.6838ZM20.72 19.8388L18.7188 18.6838L17.7813 20.3076L19.7813 21.4626L20.72 19.8388ZM15.4375 23.9713V21.6601H13.5625V23.9726L15.4375 23.9713ZM22.2825 8.86758L20.2813 10.0226L21.2188 11.6476L23.2188 10.4913L22.2825 8.86758ZM23.2175 15.5076L21.2188 14.3526L20.2813 15.9776L22.2813 17.1313L23.2175 15.5076ZM15.4375 4.34008V2.03133H13.5625V4.34008H15.4375ZM19.7825 4.53758L17.7813 5.69258L18.7188 7.31758L20.72 6.16133L19.7825 4.53758ZM13.5625 4.34008C13.5625 6.98633 16.4275 8.64133 18.7188 7.31758L17.7813 5.69258C17.5438 5.82969 17.2744 5.90188 17.0002 5.90191C16.726 5.90194 16.4566 5.8298 16.2191 5.69274C15.9816 5.55568 15.7843 5.35853 15.6471 5.12109C15.5099 4.88366 15.4377 4.6143 15.4375 4.34008H13.5625ZM20.2813 10.0226C17.99 11.3463 17.99 14.6538 20.2813 15.9776L21.2188 14.3526C20.9813 14.2154 20.7841 14.0182 20.6469 13.7807C20.5098 13.5431 20.4376 13.2737 20.4376 12.9995C20.4376 12.7252 20.5098 12.4558 20.6469 12.2182C20.7841 11.9807 20.9813 11.7835 21.2188 11.6463L20.2813 10.0226ZM18.7188 18.6838C16.4275 17.3601 13.5625 19.0138 13.5625 21.6601H15.4375C15.4377 21.3859 15.5099 21.1165 15.6471 20.8791C15.7843 20.6416 15.9816 20.4445 16.2191 20.3074C16.4566 20.1704 16.726 20.0982 17.0002 20.0982C17.2744 20.0983 17.5438 20.1705 17.7813 20.3076L18.7188 18.6838ZM10.4375 21.6601C10.4375 19.0138 7.57255 17.3601 5.2813 18.6838L6.21755 20.3076C6.45503 20.1705 6.72566 20.0983 6.99988 20.0982C7.2741 20.0982 7.5435 20.1704 7.78101 20.3074C8.01852 20.4445 8.21578 20.6416 8.35296 20.8791C8.49015 21.1165 8.56243 21.3859 8.56255 21.6601H10.4375ZM3.7188 15.9776C6.01005 14.6538 6.01005 11.3463 3.7188 10.0226L2.7813 11.6476C3.01881 11.7847 3.21604 11.982 3.35316 12.2195C3.49029 12.457 3.56248 12.7264 3.56248 13.0007C3.56248 13.275 3.49029 13.5444 3.35316 13.7819C3.21604 14.0194 3.01881 14.2167 2.7813 14.3538L3.7188 15.9776ZM8.56255 4.34008C8.56243 4.6143 8.49015 4.88366 8.35296 5.12109C8.21578 5.35853 8.01852 5.55568 7.78101 5.69274C7.5435 5.8298 7.2741 5.90194 6.99988 5.90191C6.72566 5.90188 6.45628 5.82969 6.2188 5.69258L5.2813 7.31758C7.57255 8.64008 10.4375 6.98633 10.4375 4.34008H8.56255Z" fill="white"/>
</svg>
