<svg width="26" height="19" viewBox="0 0 26 19" fill="none" xmlns="http://www.w3.org/2000/svg">
<path d="M14.3375 8.01279C15.0968 6.95187 15.5051 5.67993 15.5051 4.37529C15.5051 3.07065 15.0968 1.79871 14.3375 0.73779C15.0485 0.253454 15.8897 -0.00371129 16.75 0.000290136C17.9103 0.000290136 19.0231 0.461227 19.8436 1.2817C20.6641 2.10217 21.125 3.21497 21.125 4.37529C21.125 5.53561 20.6641 6.64841 19.8436 7.46888C19.0231 8.28935 17.9103 8.75029 16.75 8.75029C15.8897 8.75429 15.0485 8.49713 14.3375 8.01279ZM4.875 4.37529C4.875 3.51 5.13159 2.66414 5.61232 1.94467C6.09305 1.22521 6.77633 0.664451 7.57576 0.333317C8.37519 0.00218401 9.25485 -0.0844556 10.1035 0.0843548C10.9522 0.253165 11.7317 0.669844 12.3436 1.2817C12.9554 1.89355 13.3721 2.6731 13.5409 3.52177C13.7097 4.37044 13.6231 5.2501 13.292 6.04953C12.9608 6.84896 12.4001 7.53224 11.6806 8.01297C10.9612 8.4937 10.1153 8.75029 9.25 8.75029C8.08968 8.75029 6.97688 8.28935 6.15641 7.46888C5.33594 6.64841 4.875 5.53561 4.875 4.37529ZM7.375 4.37529C7.375 4.74613 7.48497 5.10864 7.69099 5.41698C7.89702 5.72533 8.18986 5.96565 8.53247 6.10756C8.87508 6.24948 9.25208 6.28661 9.6158 6.21426C9.97951 6.14192 10.3136 5.96334 10.5758 5.70112C10.838 5.43889 11.0166 5.1048 11.089 4.74108C11.1613 4.37737 11.1242 4.00037 10.9823 3.65776C10.8404 3.31515 10.6 3.02231 10.2917 2.81628C9.98335 2.61026 9.62084 2.50029 9.25 2.50029C8.75272 2.50029 8.27581 2.69783 7.92417 3.04946C7.57254 3.4011 7.375 3.87801 7.375 4.37529ZM18 16.2503V18.7503H0.5V16.2503C0.5 16.2503 0.5 11.2503 9.25 11.2503C18 11.2503 18 16.2503 18 16.2503ZM15.5 16.2503C15.325 15.2753 13.8375 13.7503 9.25 13.7503C4.6625 13.7503 3.0875 15.3878 3 16.2503M17.9375 11.2503C18.7036 11.8462 19.33 12.6026 19.7727 13.4664C20.2154 14.3302 20.4636 15.2804 20.5 16.2503V18.7503H25.5V16.2503C25.5 16.2503 25.5 11.7128 17.925 11.2503H17.9375Z" fill="white"/>
</svg>
