<svg width="22" height="22" viewBox="0 0 22 22" fill="none" xmlns="http://www.w3.org/2000/svg">
<path d="M7.07683 15.0851L8.69108 14.6194L18.4105 4.78355C18.4872 4.70499 18.5298 4.59943 18.5293 4.48966C18.5288 4.37989 18.4851 4.27473 18.4077 4.19689L17.8257 3.60839C17.788 3.56974 17.7431 3.53897 17.6935 3.51787C17.6438 3.49678 17.5905 3.48578 17.5366 3.48553C17.4826 3.48527 17.4292 3.49576 17.3794 3.51638C17.3295 3.53701 17.2843 3.56735 17.2463 3.60564L7.55258 13.4158L7.07683 15.0851ZM18.9779 2.44239L19.56 3.0318C20.363 3.84489 20.3703 5.15664 19.5747 5.96147L9.55916 16.098L6.10883 17.0916C6.00452 17.121 5.89546 17.1294 5.78787 17.1166C5.68028 17.1038 5.57628 17.0699 5.48179 17.0169C5.38731 16.9638 5.30419 16.8927 5.2372 16.8075C5.1702 16.7224 5.12064 16.6249 5.09133 16.5206C5.04637 16.3693 5.04574 16.2083 5.0895 16.0567L6.09325 12.5367L16.0822 2.4268C16.2721 2.23555 16.4982 2.08403 16.7473 1.98108C16.9965 1.87813 17.2636 1.82581 17.5331 1.82717C17.8027 1.82854 18.0692 1.88356 18.3173 1.98903C18.5653 2.0945 18.7899 2.24922 18.9779 2.44239ZM8.41883 3.49931C8.8735 3.49931 9.242 3.87239 9.242 4.33256C9.24272 4.44133 9.222 4.54919 9.18101 4.64995C9.14002 4.75072 9.07958 4.84241 9.00312 4.9198C8.92667 4.99719 8.83572 5.05875 8.73546 5.10096C8.6352 5.14317 8.52761 5.16521 8.41883 5.1658H5.12616C4.21683 5.1658 3.47983 5.91197 3.47983 6.83139V16.8286C3.47983 17.7489 4.21683 18.4951 5.12616 18.4951H15.0042C15.9135 18.4951 16.6514 17.7489 16.6514 16.8286V13.4965C16.6514 13.0363 17.0199 12.6632 17.4746 12.6632C17.9292 12.6632 18.2977 13.0363 18.2977 13.4974V16.8286C18.2977 18.6692 16.8228 20.1616 15.0042 20.1616H5.12616C3.3075 20.1616 1.8335 18.6692 1.8335 16.8286V6.83139C1.8335 4.99164 3.3075 3.49931 5.12616 3.49931H8.41883Z" fill="black"/>
</svg>
