<svg width="94" height="192" viewBox="0 0 94 192" fill="none" xmlns="http://www.w3.org/2000/svg">
<g clip-path="url(#clip0_431_493)">
<path d="M60.8929 180.054H34.6523L35.3917 64.7846L46.1279 61.416L59.3311 64.9378L60.8929 180.054Z" fill="#AACECE"/>
<path d="M57.1682 168.378H35.5977V175.144H57.1682V168.378Z" fill="#682400"/>
<path d="M75.8177 175.049L76.2174 191.748H21.0352L22.0009 175.097L75.8177 175.049Z" fill="#004351"/>
<path d="M39.4678 63.5596L54.5722 62.842L56.6698 191.901L77.1234 191.758C77.1234 191.758 75.5845 83.3023 68.4771 68.5933C64.2369 59.8179 40.803 63.3014 40.803 63.3014C40.803 63.3014 30.6026 64.0861 25.8042 70.7561C21.0132 77.4265 17.7539 191.719 17.7539 191.719L36.3592 191.624L39.4678 63.5596Z" fill="white"/>
<path d="M52.166 64.057L41.543 64.124L41.8223 59.9992L42.154 54.8889L51.7736 53.4058L51.9245 57.5877L52.166 64.057Z" fill="#FFDBD8"/>
<path d="M51.9595 56.7936C50.0958 57.9419 46.6707 59.0427 41.9023 58.7457L42.1588 54.8986L51.7783 53.4155L51.9595 56.7936Z" fill="#B57A77"/>
<path d="M60.1237 31.3284C60.0484 31.3284 59.9728 31.338 59.9051 31.338V25.6343C59.9051 18.6483 56.5702 12.4374 51.6964 10.5713C49.1915 9.61434 47.1092 9.5856 46.5131 9.60476V9.55691C46.5131 9.55691 44.1365 9.37507 41.1563 10.5235C36.2824 12.3896 32.9476 18.6004 32.9476 25.5864V31.2614C32.8118 31.2422 32.676 31.2231 32.5326 31.2231C30.6691 31.2231 29.1602 33.1371 29.1602 35.5009V36.3908C29.1602 38.7546 30.6691 40.6686 32.5326 40.6686C32.676 40.6686 32.8118 40.6494 32.9476 40.6303C33.0004 47.779 36.5389 54.0376 41.5865 55.6931C43.0123 56.162 44.5966 56.6406 46.3396 56.6023C47.5846 56.5735 49.7949 56.2291 51.2661 55.741C56.2985 54.095 59.8295 47.8652 59.9051 40.7451C59.9804 40.7547 60.056 40.7643 60.1313 40.7643C61.995 40.7643 63.5037 38.8503 63.5037 36.4866V35.5965C63.4964 33.2423 61.9874 31.3284 60.1237 31.3284Z" fill="#FFDBD8"/>
<path d="M46.6267 40.42C46.6191 40.42 46.6118 40.42 46.6042 40.42C46.4685 40.4104 43.194 40.152 42.9979 37.1853C42.9299 36.1422 43.1183 35.3096 43.5562 34.6972C43.9483 34.1517 44.4615 33.9316 44.8085 33.8359L45.3668 28.4767C45.397 28.1705 45.6232 27.9504 45.8647 27.9887C46.1062 28.027 46.2797 28.3141 46.2495 28.6203L45.593 34.8982H45.2082C45.2082 34.8982 44.5895 34.9173 44.2124 35.4532C43.9483 35.8168 43.8428 36.3624 43.8879 37.0705C44.0163 39.0611 46.6344 39.2716 46.6569 39.2716C46.8984 39.2907 47.0872 39.5587 47.0795 39.8649C47.057 40.1903 46.8606 40.42 46.6267 40.42Z" fill="#004351"/>
<path d="M59.9666 38.2568C59.9288 38.2568 59.891 38.2472 59.8459 38.2376C59.612 38.1515 59.4687 37.8453 59.5363 37.5486C59.612 37.2137 60.2834 34.2853 61.7623 33.7685C61.9961 33.6824 62.2449 33.8642 62.3053 34.1609C62.3733 34.4576 62.23 34.7733 61.9962 34.8499C61.1585 35.137 60.5475 37.1563 60.3965 37.8357C60.3362 38.0845 60.155 38.2568 59.9666 38.2568Z" fill="#004351"/>
<path d="M61.6406 38.1799C61.4595 38.1799 61.286 38.0364 61.2256 37.8067C60.9088 36.7062 60.3731 36.4191 60.3578 36.4095C60.1316 36.2947 60.0184 35.9693 60.1014 35.6822C60.1843 35.3951 60.4334 35.242 60.6673 35.3473C60.7579 35.3855 61.6028 35.8162 62.0629 37.4144C62.1458 37.711 62.0327 38.0268 61.7988 38.1417C61.7461 38.1704 61.6934 38.1799 61.6406 38.1799Z" fill="#004351"/>
<path d="M32.5706 37.9601C32.3744 37.9601 32.1934 37.7974 32.1406 37.5486C31.9897 36.8691 31.3786 34.8499 30.5411 34.5628C30.3072 34.4766 30.1638 34.1704 30.2318 33.8737C30.2997 33.5771 30.5411 33.3953 30.775 33.4814C32.2537 33.9886 32.9252 36.9265 33.0007 37.2615C33.0686 37.5582 32.9252 37.874 32.6913 37.9505C32.6461 37.9505 32.6083 37.9601 32.5706 37.9601Z" fill="#004351"/>
<path d="M30.8874 37.8836C30.8346 37.8836 30.7818 37.874 30.7365 37.8453C30.5026 37.74 30.3894 37.4146 30.4724 37.118C30.9326 35.5198 31.7776 35.0987 31.8682 35.0509C32.1021 34.9456 32.351 35.0987 32.434 35.3858C32.517 35.6729 32.3963 35.9983 32.17 36.1035C32.1398 36.1227 31.6192 36.4098 31.3023 37.5008C31.2344 37.74 31.0684 37.8836 30.8874 37.8836Z" fill="#004351"/>
<path d="M40.4857 30.2562C40.4857 31.0887 39.95 31.7682 39.2935 31.7682C38.6373 31.7682 38.1016 31.0887 38.1016 30.2562C38.1016 29.4236 38.6373 28.7441 39.2935 28.7441C39.95 28.7537 40.4857 29.4236 40.4857 30.2562Z" fill="#004351"/>
<path d="M52.7435 30.2948C52.7435 31.1274 52.2078 31.8068 51.5516 31.8068C50.8951 31.8068 50.3594 31.1274 50.3594 30.2948C50.3594 29.4622 50.8951 28.7827 51.5516 28.7827C52.2078 28.7923 52.7435 29.4622 52.7435 30.2948Z" fill="#004351"/>
<path d="M45.8722 45.2523C43.767 45.2523 42.1524 44.1994 42.1299 44.1803C41.9109 44.037 41.828 43.6921 41.9411 43.4148C42.0546 43.1374 42.3259 43.032 42.5449 43.1757C42.7107 43.2807 46.6189 45.8166 49.9916 42.2186C50.18 42.0175 50.4594 42.0462 50.6176 42.2857C50.7762 42.5247 50.7536 42.8788 50.5648 43.0799C49.003 44.7546 47.3209 45.2523 45.8722 45.2523Z" fill="#004351"/>
<path d="M41.1412 26.6964C41.0507 26.6964 40.9525 26.6581 40.8696 26.5815C39.119 24.8972 37.7081 26.4762 37.6554 26.5433C37.4743 26.7538 37.1952 26.7346 37.0293 26.5145C36.8633 26.2848 36.8708 25.9308 37.0519 25.7202C37.7383 24.9164 39.5267 23.8637 41.4126 25.682C41.609 25.8733 41.6464 26.2274 41.4959 26.4762C41.4053 26.6198 41.2693 26.6964 41.1412 26.6964Z" fill="#004351"/>
<path d="M53.1998 25.5958C53.1092 25.5958 53.011 25.5575 52.9281 25.481C51.1626 23.7775 49.7743 25.3757 49.7139 25.4426C49.5328 25.6532 49.2538 25.6436 49.088 25.4139C48.9218 25.1843 48.9294 24.8302 49.1105 24.6197C49.7969 23.8158 51.5853 22.7631 53.4711 24.5814C53.6675 24.7728 53.7054 25.1269 53.5544 25.3757C53.4639 25.5192 53.3355 25.5958 53.1998 25.5958Z" fill="#004351"/>
<path d="M47.1766 168.531C46.8674 168.531 46.6183 168.216 46.6183 167.823L46.543 66.3823C46.543 65.99 46.7921 65.6743 47.1013 65.6743C47.4104 65.6743 47.6596 65.99 47.6596 66.3823L47.7349 167.823C47.7349 168.216 47.4861 168.531 47.1766 168.531Z" fill="#CDE8E5"/>
<path d="M53.5078 14.3605C53.5078 14.3605 48.1739 18.6765 43.1488 18.9732C38.1241 19.2699 39.3614 16.2266 39.3614 16.2266C39.3614 16.2266 36.2682 19.6622 33.8765 19.6622C33.8765 19.6622 34.2613 30.5431 33.8765 32.7059C33.4917 34.8591 21.6616 26.141 27.2296 12.6092C32.7976 -0.922602 46.4761 -2.29108 54.2094 4.6662C54.2094 4.6662 61.0902 5.15428 63.3311 14.2744C66.1983 25.9401 60.7054 33.395 59.4684 33.395C58.2311 33.395 57.3785 22.313 57.3785 22.313C57.3785 22.313 53.9683 19.5569 53.5078 14.3605Z" fill="#004351"/>
<path d="M59.4585 33.9503C58.7719 33.9503 58.1757 32.9264 57.5119 27.9405C57.21 25.6724 57.014 23.3852 56.946 22.6292C56.252 21.9976 53.8151 19.519 53.1662 15.2891C51.6346 16.4183 47.3417 19.2989 43.1695 19.5477C40.9436 19.6817 39.5931 19.2032 39.0348 18.1026C38.9369 17.9016 38.8689 17.7007 38.8311 17.4997C37.805 18.4663 35.9943 19.9496 34.342 20.1984C34.4175 22.4761 34.6589 30.888 34.3118 32.8402C34.2439 33.2135 34.0176 33.4814 33.7007 33.5676C32.5162 33.8929 29.7096 31.7971 27.7253 28.4955C26.0579 25.7203 23.719 19.9305 26.835 12.3511C29.272 6.43696 33.4819 2.2932 38.7031 0.704603C44.1275 -0.950986 50.1107 0.36008 54.3658 4.12104C55.3616 4.25503 61.6237 5.44168 63.7515 14.112C65.9694 23.146 63.2761 29.1941 62.0086 31.3665C61.088 32.9359 60.0921 33.9503 59.4585 33.9503ZM53.8679 13.4038L53.9508 14.3034C54.3883 19.1745 57.5799 21.8062 57.6101 21.8349L57.7909 21.9784L57.8138 22.256C58.1684 26.9069 58.9228 32.1799 59.4964 32.8211C59.7375 32.735 60.5297 32.0842 61.4503 30.3999C62.5592 28.3615 64.9285 22.7345 62.8913 14.4469C60.7712 5.82447 54.4411 5.25031 54.1697 5.23115L54.0414 5.22157L53.9359 5.1259C49.8841 1.47976 44.1199 0.1974 38.8991 1.79557C33.9346 3.30761 29.9208 7.24082 27.6121 12.8679C24.4886 20.4664 27.1519 26.0648 29.023 28.7347C30.962 31.4909 32.9613 32.5436 33.4517 32.4766C33.7309 30.553 33.5272 22.6388 33.4216 19.6912L33.3989 19.0979H33.8667C36.0698 19.0979 39.0348 15.8346 39.065 15.8059L40.8228 13.8536L39.7517 16.4853C39.744 16.5045 39.548 17.0308 39.7818 17.4902C39.9932 17.8921 40.7024 18.5524 43.124 18.4089C47.9676 18.1218 53.2113 13.9302 53.2641 13.8919L53.8679 13.4038Z" fill="#004351"/>
<path d="M25.4483 71.5786C25.4483 71.5786 -7.50709 119.964 2.87446 143.544C14.4179 169.746 50.995 151.133 50.995 151.133L47.6601 126.74L22.355 126.682C22.355 126.692 26.8366 77.0721 25.4483 71.5786Z" fill="white"/>
<path d="M66.8755 66.5263C71.6587 67.0911 101.543 118.414 91.9315 142.511C81.1273 169.613 44.875 147.889 44.875 147.889L47.2061 126.175L72.3301 129.419C72.3378 129.419 62.3487 65.9903 66.8755 66.5263Z" fill="white"/>
<path d="M66.4447 131.257C66.3843 131.257 66.324 131.247 66.2563 131.218C52.7512 125.142 36.8845 127.888 36.7261 127.917C36.4243 127.974 36.1376 127.706 36.0999 127.314C36.0546 126.931 36.2659 126.568 36.5752 126.52C36.7336 126.491 52.8792 123.697 66.6335 129.888C66.9201 130.022 67.071 130.424 66.9728 130.788C66.8899 131.075 66.6786 131.257 66.4447 131.257Z" fill="#C0BABA"/>
<path d="M72.0819 116.26C71.7949 116.26 71.5462 115.973 71.5309 115.61C71.516 115.303 69.7883 85.0723 66.3177 75.9042C66.1817 75.5502 66.3025 75.1291 66.5818 74.9663C66.8608 74.7943 67.1928 74.9471 67.3209 75.3016C70.882 84.7183 72.5722 114.27 72.6402 115.524C72.6628 115.916 72.4289 116.251 72.127 116.28C72.1045 116.26 72.0968 116.26 72.0819 116.26Z" fill="#C0BABA"/>
<path d="M10.0787 132.099C9.91272 132.099 9.73919 132.003 9.63357 131.812C9.45251 131.496 9.49776 131.056 9.74676 130.826C9.88253 130.701 13.074 127.716 18.3176 127.869C18.6269 127.879 18.8683 128.204 18.8608 128.587C18.8532 128.969 18.6043 129.276 18.3025 129.276C18.2949 129.276 18.2949 129.276 18.2874 129.276C13.4437 129.151 10.4333 131.926 10.4031 131.955C10.3126 132.06 10.1919 132.099 10.0787 132.099Z" fill="#C0BABA"/>
<path d="M84.3137 133.228C84.2006 133.228 84.0798 133.18 83.9816 133.084C83.9365 133.037 80.9337 130.271 76.0974 130.405C75.7806 130.424 75.539 130.108 75.5314 129.716C75.5241 129.324 75.7653 129.007 76.0748 128.998C81.3185 128.845 84.5174 131.831 84.6454 131.955C84.8946 132.185 84.9397 132.635 84.7589 132.941C84.6454 133.132 84.4796 133.228 84.3137 133.228Z" fill="#C0BABA"/>
<path d="M22.0445 114.759C22.0294 114.759 22.0143 114.759 22.0068 114.759C21.6974 114.73 21.4711 114.395 21.4938 114.002C21.5616 112.749 23.2517 83.1968 26.8128 73.7801C26.9486 73.4261 27.2806 73.2824 27.5522 73.4452C27.8313 73.6177 27.9445 74.0387 27.8162 74.3832C24.3457 83.5604 22.6179 113.782 22.6028 114.088C22.5802 114.481 22.3312 114.759 22.0445 114.759Z" fill="#C0BABA"/>
<path d="M76.8668 128.721C76.6406 128.721 76.4293 128.539 76.3464 128.262C76.2405 127.898 76.3915 127.486 76.6781 127.352C81.3937 125.161 84.7358 127.008 84.8795 127.085C85.1585 127.247 85.2869 127.658 85.1585 128.013C85.0301 128.367 84.7057 128.529 84.4267 128.367C84.374 128.338 81.3184 126.692 77.0629 128.663C76.9952 128.702 76.9272 128.721 76.8668 128.721Z" fill="#C0BABA"/>
<path d="M17.5254 127.592C17.465 127.592 17.3971 127.582 17.3368 127.544C13.0439 125.553 10.0033 127.228 9.97314 127.247C9.69399 127.41 9.36199 127.247 9.24131 126.893C9.11302 126.539 9.24131 126.118 9.52046 125.965C9.6638 125.888 13.0061 124.041 17.7216 126.233C18.0083 126.367 18.1592 126.769 18.0535 127.142C17.9705 127.41 17.7518 127.592 17.5254 127.592Z" fill="#C0BABA"/>
<path d="M36.6513 127.219C36.6513 127.219 35.3385 123.199 32.4791 122.319C32.4791 122.319 32.0189 119.477 29.8535 118.989C29.8535 118.989 29.4084 115.83 26.1641 115.83C26.1641 115.83 25.6813 113.084 22.0447 114.069C18.4081 115.046 13.5418 121.056 14.93 123.017C16.3182 124.979 20.498 120.567 20.498 120.567C20.498 120.567 14.3943 126.348 15.3223 128.998C16.2503 131.649 20.1887 128.118 20.8904 127.037C20.8904 127.037 17.5631 130.759 19.2682 132.329C20.9658 133.898 26.2999 128.702 26.2999 128.702C26.2999 128.702 23.5914 131.64 25.221 132.721C26.8432 133.802 31.6341 129.582 31.6341 129.582C31.6341 129.582 36.0402 128.884 36.6513 127.219Z" fill="#FFDBD8"/>
<path d="M59.6797 127.812C59.6797 127.812 60.9927 123.793 63.8519 122.912C63.8519 122.912 64.3123 120.07 66.4775 119.581C66.4775 119.581 66.9227 116.424 70.1671 116.424C70.1671 116.424 70.6497 113.677 74.2865 114.663C77.923 115.639 82.7895 121.649 81.4012 123.611C80.0129 125.572 75.8331 121.161 75.8331 121.161C75.8331 121.161 81.937 126.941 81.0087 129.592C80.0809 132.243 76.1426 128.711 75.4406 127.63C75.4406 127.63 78.7679 131.353 77.0628 132.922C75.3653 134.492 70.0311 129.295 70.0311 129.295C70.0311 129.295 72.7397 132.233 71.1102 133.314C69.488 134.396 64.6972 130.176 64.6972 130.176C64.6972 130.176 60.2984 129.477 59.6797 127.812Z" fill="#FFDBD8"/>
<path d="M56.3877 83.5509C56.3274 83.5509 56.267 83.5413 56.2143 83.5317C55.7316 83.4076 55.4221 82.8141 55.5203 82.2019C58.1154 65.8373 54.5772 62.8419 54.5393 62.8132L54.0792 62.612L53.6719 60.2964C55.2108 60.5929 60.13 64.5741 57.2628 82.6517C57.1799 83.1873 56.8028 83.5509 56.3877 83.5509Z" fill="#003C68"/>
<path d="M55.8297 86.0776C57.3839 86.0776 58.6438 84.5091 58.6438 82.5749C58.6438 80.6403 57.3839 79.0723 55.8297 79.0723C54.2755 79.0723 53.0156 80.6403 53.0156 82.5749C53.0156 84.5091 54.2755 86.0776 55.8297 86.0776Z" fill="#003C68"/>
<path d="M55.8295 87.2068C53.785 87.2068 52.125 85.1302 52.125 82.5751C52.125 80.02 53.785 77.9434 55.8295 77.9434C57.8743 77.9434 59.5339 80.02 59.5339 82.5751C59.5339 85.1302 57.8743 87.2068 55.8295 87.2068ZM55.8295 80.2015C54.7656 80.2015 53.9058 81.264 53.9058 82.5751C53.9058 83.8862 54.7732 84.9482 55.8295 84.9482C56.8933 84.9482 57.7535 83.8862 57.7535 82.5751C57.7535 81.2736 56.8933 80.2015 55.8295 80.2015Z" fill="#003C68"/>
<path d="M56.5325 85.1397C57.4825 85.1397 58.2529 84.1843 58.2529 83.0057C58.2529 81.827 57.4825 80.8716 56.5325 80.8716C55.5825 80.8716 54.8125 81.827 54.8125 83.0057C54.8125 84.1843 55.5825 85.1397 56.5325 85.1397Z" fill="#00548B"/>
<path d="M46.173 92.4608C46.1352 92.0968 45.954 91.8098 45.7049 91.6757C45.8486 91.4845 45.9388 91.2167 45.9162 90.9294C45.7882 88.6329 44.9127 85.5321 42.8683 83.7042C41.6084 82.5751 40.0767 82.1253 38.3942 82.3739C35.9724 66.5166 39.4279 63.5883 39.4581 63.5596L39.4279 63.5787L39.8276 61.3105C37.4209 61.6837 33.9503 65.2534 36.6514 82.862C32.3433 84.69 31.8001 90.7286 32.1245 93.7431C32.1698 94.1355 32.3886 94.4416 32.6677 94.547C32.4791 94.7764 32.3811 95.1113 32.4339 95.4657C32.4641 95.6569 32.7734 97.3891 33.8221 98.2024C34.1692 98.4707 34.5539 98.6044 34.9538 98.6044C35.1801 98.6044 35.414 98.566 35.6554 98.4802C36.0704 98.3366 36.3118 97.791 36.1911 97.2645C36.078 96.7385 35.6479 96.432 35.233 96.5852C34.9085 96.7002 34.735 96.6044 34.6294 96.5278C34.2295 96.2216 34.0032 95.3508 33.9503 95.0734C33.89 94.7094 33.6788 94.4416 33.4147 94.3362C33.5882 94.1259 33.6863 93.8098 33.6561 93.4845C33.6259 93.188 32.9318 86.2018 37.4285 84.6325C39.2089 84.0103 40.7329 84.2402 41.9477 85.331C43.5473 86.7666 44.2337 89.3217 44.3395 91.0826C44.3621 91.4654 44.5508 91.7811 44.8149 91.9152C44.6639 92.1159 44.5734 92.4033 44.6036 92.6998C44.6261 92.9868 44.6338 93.896 44.3242 94.3554C44.2489 94.4703 44.1056 94.6332 43.7659 94.6523C43.336 94.6806 43.0039 95.14 43.0269 95.6856C43.0494 96.2121 43.3888 96.6236 43.8038 96.6236C43.819 96.6236 43.8263 96.6236 43.8416 96.6236C44.5279 96.5757 45.1091 96.2312 45.5089 95.6282C46.3312 94.4224 46.1879 92.6519 46.173 92.4608Z" fill="#003C68"/>
<path d="M26.8754 158.273C23.7444 158.273 21.9337 157.919 21.8884 157.899C21.5866 157.832 21.3829 157.469 21.4282 157.086C21.481 156.703 21.7601 156.445 22.0695 156.502C22.1977 156.531 34.7371 158.99 51.4184 150.531C51.7054 150.387 52.0295 150.559 52.1429 150.923C52.2561 151.286 52.12 151.698 51.8334 151.842C41.1729 157.248 32.1492 158.273 26.8754 158.273Z" fill="#C0BABA"/>
<path d="M73.5703 156.636C73.5554 156.636 73.5402 156.636 73.5252 156.636C57.1758 155.095 47.0809 150.234 41.4902 146.415C35.3714 142.243 33.1758 138.453 33.0853 138.291C32.9042 137.974 32.9646 137.534 33.2136 137.305C33.4625 137.075 33.8096 137.152 33.9907 137.468C34.0133 137.506 36.1786 141.219 42.1089 145.238C47.5937 148.961 57.5152 153.717 73.6005 155.229C73.9101 155.258 74.1363 155.593 74.1137 155.985C74.0985 156.359 73.857 156.636 73.5703 156.636Z" fill="#C0BABA"/>
<path d="M20.198 121.246C20.0622 121.246 19.9339 121.189 19.8283 121.065C19.6019 120.807 19.5793 120.357 19.7905 120.069C19.8811 119.945 21.9861 117.017 24.9964 115.916C25.2907 115.811 25.6 116.022 25.683 116.395C25.766 116.768 25.6 117.16 25.3058 117.266C22.5972 118.261 20.6356 120.979 20.6205 121.007C20.4998 121.161 20.3489 121.246 20.198 121.246Z" fill="#B57A77"/>
<path d="M20.8836 127.726C20.8006 127.726 20.7176 127.697 20.6346 127.649C20.363 127.477 20.2499 127.046 20.3857 126.702C20.4536 126.539 22.0153 122.625 23.9619 121.132C25.8405 119.687 27.6361 119.037 27.7116 119.008C28.0059 118.902 28.3152 119.122 28.3982 119.496C28.4812 119.869 28.3076 120.261 28.0134 120.367C27.9983 120.376 26.2781 120.998 24.5353 122.338C22.8603 123.63 21.3891 127.305 21.374 127.333C21.2835 127.582 21.0873 127.726 20.8836 127.726Z" fill="#B57A77"/>
<path d="M26.753 128.367C26.6549 128.367 26.5493 128.328 26.4588 128.261C26.1947 128.06 26.1192 127.62 26.2777 127.295C26.338 127.161 27.8545 124.098 30.2462 123.113C30.5405 122.988 30.8498 123.199 30.9479 123.562C31.0459 123.936 30.8799 124.328 30.5933 124.452C28.5939 125.275 27.2358 128.003 27.2283 128.032C27.1227 128.242 26.9416 128.367 26.753 128.367Z" fill="#B57A77"/>
<path d="M69.2679 128.577C69.1322 128.577 69.0038 128.52 68.8983 128.396C68.8758 128.367 66.7179 125.917 65.2543 125.027C64.9749 124.864 64.8618 124.443 64.9902 124.089C65.1259 123.735 65.4503 123.591 65.7296 123.754C67.3442 124.73 69.5472 127.237 69.645 127.343C69.8716 127.601 69.8942 128.051 69.6829 128.338C69.5698 128.501 69.4188 128.577 69.2679 128.577Z" fill="#B57A77"/>
<path d="M75.1237 127.735C74.9578 127.735 74.7993 127.649 74.6938 127.477C74.6712 127.438 72.2794 123.678 70.8006 122.347C69.3519 121.036 68.0545 120.682 68.0469 120.673C67.745 120.596 67.5566 120.223 67.6166 119.84C67.677 119.457 67.9712 119.218 68.2731 119.295C68.3335 119.314 69.8123 119.716 71.4494 121.199C73.0491 122.653 75.4634 126.434 75.5613 126.596C75.75 126.902 75.7122 127.343 75.4783 127.592C75.3652 127.678 75.2445 127.735 75.1237 127.735Z" fill="#B57A77"/>
<path d="M75.713 121.247C75.5697 121.247 75.4264 121.18 75.3209 121.037C75.2831 120.989 73.3288 118.558 71.3222 118.127C71.0203 118.06 70.8166 117.697 70.8617 117.314C70.9145 116.931 71.2014 116.673 71.503 116.73C73.8722 117.228 76.0149 119.917 76.1054 120.032C76.324 120.309 76.324 120.75 76.1054 121.027C75.9996 121.171 75.8563 121.247 75.713 121.247Z" fill="#B57A77"/>
<path d="M41.7006 57.7798L47.6608 64.7176L44.092 71.3593L38.9844 62.8805L41.7006 57.7798Z" fill="#103550"/>
<path d="M52.4219 57.9229L46.4766 64.8419L50.0377 71.4645L55.1228 63.014L52.4219 57.9229Z" fill="#103550"/>
<path d="M24.5722 87.5894C24.3987 87.5894 24.2251 87.4841 24.1195 87.2929C21.8485 83.2159 22.5955 79.3497 22.6257 79.1873C22.7011 78.8137 23.0029 78.5842 23.3047 78.68C23.5989 78.7758 23.78 79.1585 23.7045 79.5317C23.6744 79.675 23.0632 82.9577 25.0249 86.4699C25.2059 86.7856 25.1456 87.2258 24.8891 87.4553C24.791 87.5415 24.6778 87.5894 24.5722 87.5894Z" fill="#C0BABA"/>
<path d="M69.1169 85.3309C68.9888 85.3309 68.8528 85.2734 68.7473 85.1589C68.5135 84.9002 68.4982 84.4504 68.6946 84.1635C70.7165 81.2543 70.128 76.9957 70.1204 76.9574C70.0676 76.5747 70.2637 76.2111 70.5655 76.1344C70.8674 76.0674 71.154 76.316 71.2144 76.6988C71.2446 76.8999 71.9011 81.685 69.5246 85.0918C69.4264 85.2447 69.2678 85.3309 69.1169 85.3309Z" fill="#C0BABA"/>
<path d="M56.072 35.5008H52.6091C52.2996 35.5008 52.0508 35.185 52.0508 34.7926C52.0508 34.4003 52.2996 34.0845 52.6091 34.0845H56.072C56.3812 34.0845 56.6303 34.4003 56.6303 34.7926C56.6303 35.185 56.3812 35.5008 56.072 35.5008Z" fill="#FF7F90"/>
<path d="M39.6307 35.596H36.1677C35.8583 35.596 35.6094 35.2803 35.6094 34.8879C35.6094 34.4955 35.8583 34.1797 36.1677 34.1797H39.6307C39.9399 34.1797 40.189 34.4955 40.189 34.8879C40.189 35.2803 39.9399 35.596 39.6307 35.596Z" fill="#FF7F90"/>
<path d="M21.2394 184.8C20.998 184.8 20.7792 184.6 20.7037 184.293C20.6132 183.92 20.7867 183.528 21.081 183.413C21.1338 183.394 26.4453 181.307 30.4289 174.455C30.61 174.14 30.9571 174.073 31.206 174.302C31.455 174.532 31.5078 174.972 31.3267 175.288C27.1168 182.542 21.6317 184.676 21.4054 184.762C21.345 184.791 21.2847 184.8 21.2394 184.8Z" fill="#C0BABA"/>
<path d="M73.0466 184.609C72.9938 184.609 72.9407 184.599 72.888 184.58C72.6541 184.494 67.1765 182.36 62.9669 175.106C62.7858 174.79 62.8385 174.35 63.0873 174.12C63.3364 173.891 63.6834 173.957 63.8645 174.273C67.8556 181.145 73.1597 183.212 73.2124 183.231C73.5067 183.346 73.6725 183.738 73.5896 184.111C73.5067 184.408 73.2804 184.609 73.0466 184.609Z" fill="#C0BABA"/>
<path d="M53.7719 13.0786C53.7268 13.0786 53.6814 13.069 53.6286 13.0499C53.3948 12.9542 53.2664 12.6288 53.3497 12.3321C53.6512 11.1933 54.3757 7.89173 54.1491 6.31271C54.104 6.00647 54.2626 5.70981 54.5037 5.65237C54.7453 5.59494 54.9791 5.79594 55.0246 6.10218C55.3414 8.28411 54.2397 12.5044 54.1946 12.6767C54.1342 12.9255 53.9607 13.0786 53.7719 13.0786Z" fill="#056370"/>
<path d="M27.3128 16.1788C27.2826 16.1788 27.2524 16.1788 27.2222 16.1692C26.9808 16.1022 26.8299 15.8056 26.8752 15.5089C26.9129 15.2888 27.7806 10.1689 32.4659 5.9486C32.6696 5.76681 32.9412 5.8242 33.0845 6.08259C33.2279 6.34097 33.1826 6.68549 32.9789 6.86733C28.5954 10.8101 27.7579 15.6812 27.7428 15.7386C27.7051 15.997 27.5241 16.1788 27.3128 16.1788Z" fill="#056370"/>
<path d="M30.0969 16.5999C30.0818 16.5999 30.0667 16.5999 30.0441 16.5999C29.8026 16.5616 29.6216 16.284 29.6517 15.9778C29.6593 15.8534 29.9535 12.8484 32.4886 10.1306C32.6772 9.92962 32.9563 9.95836 33.1148 10.1976C33.2732 10.4369 33.2506 10.7909 33.062 10.9919C30.7986 13.4226 30.542 16.0735 30.5345 16.1022C30.5118 16.3893 30.3157 16.5999 30.0969 16.5999Z" fill="#056370"/>
<path d="M62.8248 18.1792C62.6062 18.1792 62.4174 17.9686 62.3872 17.6911C62.0024 13.9876 60.373 12.2554 60.3577 12.2363C60.1693 12.0353 60.1391 11.6812 60.2973 11.442C60.4559 11.2028 60.7276 11.1645 60.9236 11.3654C60.9989 11.442 62.8324 13.3751 63.27 17.5476C63.3002 17.8538 63.1343 18.1409 62.8852 18.1792C62.8626 18.1792 62.8401 18.1792 62.8248 18.1792Z" fill="#056370"/>
</g>
<defs>
<clipPath id="clip0_431_493">
<rect width="93.1114" height="192" fill="white" transform="translate(0.851562)"/>
</clipPath>
</defs>
</svg>
