<svg width="40" height="40" viewBox="0 0 40 40" fill="none" xmlns="http://www.w3.org/2000/svg">
<path d="M28.0499 3.7085C26.1333 1.79183 23.6416 0.833496 21.3416 0.833496C19.0416 0.833496 16.3583 1.79183 14.6333 3.7085L3.5166 14.4418C-0.316732 18.2752 -0.316732 24.2168 3.5166 28.0502C7.34994 31.8835 13.2916 31.8835 17.1249 28.0502L28.0499 17.1252C31.6916 13.4835 31.6916 7.35016 28.0499 3.7085ZM25.3666 14.4418L19.9999 19.8085L13.0999 13.1002L4.6666 21.5335C4.6666 20.0002 5.04993 18.2752 6.3916 17.1252L17.3166 6.20016C18.2749 5.24183 19.8083 4.66683 21.1499 4.66683C22.4916 4.66683 24.0249 5.24183 25.1749 6.20016C27.4749 8.69183 27.4749 12.1418 25.3666 14.4418ZM34.5666 10.6085C34.5666 12.1418 34.1833 13.4835 33.7999 15.0168C35.7166 17.3168 35.7166 20.7668 33.6083 22.8752L28.2416 28.2418L25.3666 25.3668L19.9999 30.7335C17.5083 33.2252 14.0583 34.5668 10.7999 34.5668C11.1833 35.1418 11.5666 35.7168 12.1416 36.2918C15.9749 40.1252 21.9166 40.1252 25.7499 36.2918L36.6749 25.3668C40.5083 21.5335 40.5083 15.5918 36.6749 11.7585C35.7166 11.3752 35.1416 10.9918 34.5666 10.6085Z" fill="#3375A4"/>
</svg>
