<svg width="30" height="30" viewBox="0 0 30 30" fill="none" xmlns="http://www.w3.org/2000/svg">
<path d="M15 17.5C16.3807 17.5 17.5 16.3807 17.5 15C17.5 13.6193 16.3807 12.5 15 12.5C13.6193 12.5 12.5 13.6193 12.5 15C12.5 16.3807 13.6193 17.5 15 17.5Z" stroke="white" stroke-width="1.875"/>
<path d="M6.74875 7.35008L7.2175 6.53758C7.03346 6.43141 6.81882 6.3909 6.60875 6.4227C6.39867 6.45449 6.20563 6.5567 6.06125 6.71258L6.74875 7.35008ZM4.25 11.6801L3.35375 11.4026C3.29105 11.6056 3.29921 11.824 3.37688 12.0218C3.45456 12.2196 3.59714 12.3852 3.78125 12.4913L4.25 11.6801ZM4.2475 18.3188L3.77875 17.5063C3.5946 17.6127 3.4521 17.7786 3.37464 17.9766C3.29719 18.1747 3.28938 18.3932 3.3525 18.5963L4.2475 18.3188ZM6.7475 22.6488L6.06 23.2863C6.20438 23.4422 6.39742 23.5444 6.6075 23.5762C6.81757 23.608 7.03221 23.5675 7.21625 23.4613L6.7475 22.6488ZM12.4975 25.9676H11.56C11.56 26.4051 11.8638 26.7838 12.29 26.8813L12.4975 25.9676ZM17.4988 25.9701L17.7075 26.8851C17.9147 26.8377 18.0997 26.7214 18.2321 26.5552C18.3645 26.3889 18.4365 26.1826 18.4363 25.9701H17.4988ZM23.25 22.6501L22.7813 23.4626C22.9653 23.5687 23.1799 23.6092 23.39 23.5775C23.6001 23.5457 23.7931 23.4434 23.9375 23.2876L23.25 22.6501ZM25.7475 18.3176L26.6438 18.5951C26.7064 18.392 26.6983 18.1737 26.6206 17.9759C26.5429 17.778 26.4004 17.6125 26.2163 17.5063L25.7475 18.3176ZM25.75 11.6788L26.2188 12.4913C26.4029 12.3849 26.5454 12.2191 26.6229 12.021C26.7003 11.8229 26.7081 11.6044 26.645 11.4013L25.75 11.6788ZM23.25 7.34758L23.9375 6.71133C23.7931 6.55545 23.6001 6.45324 23.39 6.42145C23.1799 6.38965 22.9653 6.43016 22.7813 6.53633L23.25 7.34758ZM17.5 4.03133H18.4375C18.4375 3.819 18.3653 3.61299 18.2329 3.44699C18.1006 3.28099 17.9157 3.16485 17.7088 3.11758L17.5 4.03133ZM12.5 4.02883L12.2913 3.11383C12.084 3.16115 11.8991 3.27748 11.7667 3.44373C11.6343 3.60998 11.5623 3.81629 11.5625 4.02883H12.5ZM5.14625 11.9576C5.60121 10.4787 6.38349 9.12137 7.435 7.98633L6.06 6.71133C4.81743 8.05254 3.89289 9.65639 3.355 11.4038L5.14625 11.9576ZM6.06875 20.1563C5.68287 19.4887 5.37262 18.7802 5.14375 18.0438L3.35375 18.5976C3.62356 19.4676 3.98957 20.3049 4.445 21.0938L6.06875 20.1563ZM7.43625 22.0138C6.91279 21.4474 6.45413 20.8244 6.06875 20.1563L4.445 21.0938C4.9001 21.8828 5.44178 22.6174 6.06 23.2863L7.43625 22.0138ZM17.2913 25.0576C15.7829 25.4009 14.2167 25.4 12.7088 25.0551L12.2913 26.8826C14.0739 27.2907 15.9256 27.292 17.7088 26.8863L17.2913 25.0576ZM24.8538 18.0426C24.3988 19.5214 23.6165 20.8788 22.565 22.0138L23.94 23.2888C25.1826 21.9476 26.1071 20.3438 26.645 18.5963L24.8538 18.0426ZM23.9313 9.84383C24.3238 10.5297 24.6321 11.2338 24.8563 11.9563L26.6462 11.4026C26.3764 10.5325 26.0104 9.69525 25.555 8.90633L23.9313 9.84383ZM22.5625 7.98633C23.075 8.54008 23.535 9.16133 23.93 9.84383L25.555 8.90633C25.0995 8.11725 24.5562 7.3802 23.9375 6.71133L22.5625 7.98633ZM12.7075 4.94258C14.2158 4.59929 15.7821 4.60015 17.29 4.94508L17.7088 3.11758C15.9261 2.70947 14.0732 2.70819 12.29 3.11383L12.7075 4.94258ZM13.4363 6.34008V4.02758H11.5613V6.34008H13.4363ZM9.21875 7.69258L7.2175 6.53758L6.28 8.16133L8.28 9.31633L9.21875 7.69258ZM5.78125 16.3538L3.78 17.5088L4.7175 19.1326L6.71875 17.9776L5.78125 16.3538ZM6.71875 12.0226L4.71875 10.8688L3.78125 12.4938L5.78125 13.6476L6.71875 12.0226ZM13.4375 25.9688V23.6601H11.5625V25.9688H13.4375ZM8.28125 20.6838L6.28 21.8388L7.2175 23.4638L9.2175 22.3076L8.28125 20.6838ZM23.72 21.8388L21.7188 20.6838L20.7812 22.3076L22.7813 23.4626L23.72 21.8388ZM18.4375 25.9713V23.6601H16.5625V25.9726L18.4375 25.9713ZM25.2825 10.8676L23.2812 12.0226L24.2188 13.6476L26.2188 12.4913L25.2825 10.8676ZM26.2175 17.5076L24.2188 16.3526L23.2812 17.9776L25.2813 19.1313L26.2175 17.5076ZM18.4375 6.34008V4.03133H16.5625V6.34008H18.4375ZM22.7825 6.53758L20.7812 7.69258L21.7188 9.31758L23.72 8.16133L22.7825 6.53758ZM16.5625 6.34008C16.5625 8.98633 19.4275 10.6413 21.7188 9.31758L20.7812 7.69258C20.5438 7.82969 20.2744 7.90188 20.0002 7.90191C19.7259 7.90194 19.4565 7.8298 19.219 7.69274C18.9815 7.55568 18.7843 7.35853 18.6471 7.12109C18.5099 6.88366 18.4376 6.6143 18.4375 6.34008H16.5625ZM23.2812 12.0226C20.99 13.3463 20.99 16.6538 23.2812 17.9776L24.2188 16.3526C23.9812 16.2154 23.784 16.0182 23.6469 15.7807C23.5098 15.5431 23.4376 15.2737 23.4376 14.9995C23.4376 14.7252 23.5098 14.4558 23.6469 14.2182C23.784 13.9807 23.9812 13.7835 24.2188 13.6463L23.2812 12.0226ZM21.7188 20.6838C19.4275 19.3601 16.5625 21.0138 16.5625 23.6601H18.4375C18.4376 23.3859 18.5099 23.1165 18.6471 22.8791C18.7843 22.6416 18.9815 22.4445 19.219 22.3074C19.4565 22.1704 19.7259 22.0982 20.0002 22.0982C20.2744 22.0983 20.5438 22.1705 20.7812 22.3076L21.7188 20.6838ZM13.4375 23.6601C13.4375 21.0138 10.5725 19.3601 8.28125 20.6838L9.2175 22.3076C9.45498 22.1705 9.72562 22.0983 9.99983 22.0982C10.2741 22.0982 10.5435 22.1704 10.781 22.3074C11.0185 22.4445 11.2157 22.6416 11.3529 22.8791C11.4901 23.1165 11.5624 23.3859 11.5625 23.6601H13.4375ZM6.71875 17.9776C9.01 16.6538 9.01 13.3463 6.71875 12.0226L5.78125 13.6476C6.01876 13.7847 6.21599 13.982 6.35312 14.2195C6.49024 14.457 6.56243 14.7264 6.56243 15.0007C6.56243 15.275 6.49024 15.5444 6.35312 15.7819C6.21599 16.0194 6.01876 16.2167 5.78125 16.3538L6.71875 17.9776ZM11.5625 6.34008C11.5624 6.6143 11.4901 6.88366 11.3529 7.12109C11.2157 7.35853 11.0185 7.55568 10.781 7.69274C10.5435 7.8298 10.2741 7.90194 9.99983 7.90191C9.72562 7.90188 9.45623 7.82969 9.21875 7.69258L8.28125 9.31758C10.5725 10.6401 13.4375 8.98633 13.4375 6.34008H11.5625Z" fill="white"/>
</svg>
