<svg width="30" height="30" viewBox="0 0 30 30" fill="none" xmlns="http://www.w3.org/2000/svg">
<path d="M16.3375 13.0125C17.0968 11.9516 17.5051 10.6797 17.5051 9.37505C17.5051 8.0704 17.0968 6.79847 16.3375 5.73755C17.0485 5.25321 17.8897 4.99604 18.75 5.00005C19.9103 5.00005 21.0231 5.46098 21.8436 6.28145C22.6641 7.10193 23.125 8.21472 23.125 9.37505C23.125 10.5354 22.6641 11.6482 21.8436 12.4686C21.0231 13.2891 19.9103 13.75 18.75 13.75C17.8897 13.754 17.0485 13.4969 16.3375 13.0125ZM6.875 9.37505C6.875 8.50975 7.13159 7.66389 7.61232 6.94443C8.09305 6.22496 8.77633 5.66421 9.57576 5.33307C10.3752 5.00194 11.2549 4.9153 12.1035 5.08411C12.9522 5.25292 13.7317 5.6696 14.3436 6.28145C14.9554 6.89331 15.3721 7.67286 15.5409 8.52153C15.7097 9.37019 15.6231 10.2499 15.292 11.0493C14.9608 11.8487 14.4001 12.532 13.6806 13.0127C12.9612 13.4935 12.1153 13.75 11.25 13.75C10.0897 13.75 8.97688 13.2891 8.15641 12.4686C7.33594 11.6482 6.875 10.5354 6.875 9.37505ZM9.375 9.37505C9.375 9.74589 9.48497 10.1084 9.69099 10.4167C9.89702 10.7251 10.1899 10.9654 10.5325 11.1073C10.8751 11.2492 11.2521 11.2864 11.6158 11.214C11.9795 11.1417 12.3136 10.9631 12.5758 10.7009C12.838 10.4386 13.0166 10.1046 13.089 9.74084C13.1613 9.37713 13.1242 9.00013 12.9823 8.65751C12.8404 8.3149 12.6 8.02207 12.2917 7.81604C11.9834 7.61001 11.6208 7.50005 11.25 7.50005C10.7527 7.50005 10.2758 7.69759 9.92417 8.04922C9.57254 8.40085 9.375 8.87777 9.375 9.37505ZM20 21.25V23.75H2.5V21.25C2.5 21.25 2.5 16.25 11.25 16.25C20 16.25 20 21.25 20 21.25ZM17.5 21.25C17.325 20.275 15.8375 18.75 11.25 18.75C6.6625 18.75 5.0875 20.3875 5 21.25M19.9375 16.25C20.7036 16.846 21.33 17.6024 21.7727 18.4661C22.2154 19.3299 22.4636 20.2801 22.5 21.25V23.75H27.5V21.25C27.5 21.25 27.5 16.7125 19.925 16.25H19.9375Z" fill="white"/>
</svg>
