<svg width="35" height="35" viewBox="0 0 35 35" fill="none" xmlns="http://www.w3.org/2000/svg">
<g clip-path="url(#clip0_74_49)">
<path fill-rule="evenodd" clip-rule="evenodd" d="M29.5488 18.2439C29.8377 18.0465 30 17.779 30 17.5C30 17.2211 29.8377 16.9535 29.5488 16.7561L17.2054 8.33503C17.0642 8.23161 16.8939 8.14866 16.7046 8.09113C16.5153 8.03359 16.311 8.00266 16.1039 8.00016C15.8967 7.99767 15.6909 8.02367 15.4988 8.07661C15.3067 8.12955 15.1321 8.20835 14.9856 8.30831C14.8391 8.40827 14.7236 8.52733 14.646 8.65841C14.5684 8.78948 14.5303 8.92987 14.534 9.07121C14.5376 9.21254 14.583 9.35194 14.6673 9.48106C14.7516 9.61018 14.8732 9.72639 15.0248 9.82276L24.7349 16.4474H-4.45708C-4.86629 16.4474 -5.25874 16.5583 -5.54809 16.7557C-5.83744 16.9531 -6 17.2208 -6 17.5C-6 17.7792 -5.83744 18.0469 -5.54809 18.2443C-5.25874 18.4417 -4.86629 18.5526 -4.45708 18.5526H24.7349L15.0248 25.1772C14.8732 25.2736 14.7516 25.3898 14.6673 25.5189C14.583 25.6481 14.5376 25.7875 14.534 25.9288C14.5303 26.0701 14.5684 26.2105 14.646 26.3416C14.7236 26.4727 14.8391 26.5917 14.9856 26.6917C15.1321 26.7916 15.3067 26.8704 15.4988 26.9234C15.6909 26.9763 15.8967 27.0023 16.1039 26.9998C16.311 26.9973 16.5153 26.9664 16.7046 26.9089C16.8939 26.8513 17.0642 26.7684 17.2054 26.665L29.5488 18.2439Z" fill="white"/>
</g>
<defs>
<clipPath id="clip0_74_49">
<rect width="35" height="35" fill="white" transform="matrix(0 -1 -1 0 35 35)"/>
</clipPath>
</defs>
</svg>
