<svg width="256" height="461" viewBox="0 0 256 461" fill="none" xmlns="http://www.w3.org/2000/svg">
<g clip-path="url(#clip0_265_74)">
<path d="M165.079 432.316H92.9336L94.9664 155.55L124.484 147.462L160.785 155.918L165.079 432.316Z" fill="#AACECE"/>
<path d="M154.832 404.284H95.5264V420.529H154.832V404.284Z" fill="#682400"/>
<path d="M206.11 420.299L207.209 460.395H55.4912L58.1464 420.414L206.11 420.299Z" fill="#004351"/>
<path d="M106.168 152.609L147.696 150.886L153.463 460.763L209.698 460.418C209.698 460.418 205.467 200.012 185.926 164.695C174.268 143.625 109.839 151.989 109.839 151.989C109.839 151.989 81.7939 153.873 68.6011 169.888C55.429 185.904 46.4678 460.326 46.4678 460.326L97.6212 460.096L106.168 152.609Z" fill="white"/>
<path d="M141.079 153.804L111.872 153.965L112.64 144.061L113.552 131.791L140 128.23L140.415 138.271L141.079 153.804Z" fill="#FFDBD8"/>
<path d="M140.519 136.364C135.395 139.121 125.978 141.764 112.868 141.051L113.573 131.814L140.021 128.253L140.519 136.364Z" fill="#B57A77"/>
<path d="M162.963 75.2204C162.756 75.2204 162.548 75.2434 162.362 75.2434V61.5487C162.362 44.775 153.193 29.8625 139.793 25.3818C132.906 23.0841 127.181 23.0151 125.542 23.0611V22.9462C125.542 22.9462 119.008 22.5096 110.814 25.267C97.4139 29.7476 88.2452 44.6601 88.2452 61.4338V75.0596C87.8719 75.0136 87.4985 74.9677 87.1043 74.9677C81.9807 74.9677 77.832 79.5632 77.832 85.2387V87.3756C77.832 93.0511 81.9807 97.6466 87.1043 97.6466C87.4985 97.6466 87.8719 97.6006 88.2452 97.5547C88.3904 114.719 98.1191 129.746 111.997 133.721C115.917 134.847 120.273 135.996 125.065 135.904C128.488 135.835 134.565 135.008 138.61 133.836C152.446 129.884 162.154 114.926 162.362 97.8304C162.569 97.8534 162.777 97.8764 162.984 97.8764C168.108 97.8764 172.256 93.2809 172.256 87.6054V85.4684C172.236 79.8159 168.087 75.2204 162.963 75.2204Z" fill="#FFDBD8"/>
<path d="M125.853 97.0491C125.832 97.0491 125.812 97.0491 125.791 97.0491C125.418 97.0261 116.415 96.4057 115.876 89.2826C115.689 86.7781 116.207 84.779 117.411 83.3084C118.489 81.9987 119.9 81.4702 120.854 81.2405L122.389 68.3729C122.472 67.6377 123.094 67.1092 123.758 67.2011C124.422 67.293 124.899 67.9823 124.816 68.7176L123.011 83.791H121.953C121.953 83.791 120.252 83.8369 119.215 85.1237C118.489 85.9968 118.199 87.3066 118.323 89.0069C118.676 93.7863 125.874 94.2918 125.936 94.2918C126.6 94.3377 127.119 94.9811 127.098 95.7164C127.036 96.4976 126.496 97.0491 125.853 97.0491Z" fill="#004351"/>
<path d="M162.528 91.8561C162.424 91.8561 162.32 91.8331 162.196 91.8101C161.553 91.6033 161.159 90.8681 161.345 90.1558C161.553 89.3516 163.399 82.3204 167.465 81.0796C168.108 80.8728 168.792 81.3094 168.958 82.0217C169.145 82.734 168.751 83.4922 168.108 83.6761C165.805 84.3654 164.125 89.2137 163.71 90.8451C163.544 91.4425 163.046 91.8561 162.528 91.8561Z" fill="#004351"/>
<path d="M167.133 91.6724C166.635 91.6724 166.158 91.3277 165.992 90.7763C165.121 88.1338 163.648 87.4445 163.606 87.4215C162.984 87.1458 162.673 86.3645 162.901 85.6752C163.129 84.9859 163.814 84.6183 164.457 84.871C164.706 84.9629 167.029 85.9969 168.294 89.8342C168.522 90.5465 168.211 91.3048 167.568 91.5805C167.423 91.6494 167.278 91.6724 167.133 91.6724Z" fill="#004351"/>
<path d="M87.2084 91.1439C86.669 91.1439 86.1712 90.7533 86.026 90.1559C85.6111 88.5245 83.9309 83.6762 81.6284 82.9868C80.9853 82.78 80.5912 82.0447 80.7779 81.3324C80.9646 80.6201 81.6284 80.1836 82.2714 80.3904C86.3371 81.6082 88.1833 88.6623 88.3907 89.4665C88.5774 90.1789 88.1833 90.9371 87.5403 91.1209C87.4158 91.1209 87.3121 91.1439 87.2084 91.1439Z" fill="#004351"/>
<path d="M82.5826 90.96C82.4374 90.96 82.2922 90.937 82.1677 90.8681C81.5247 90.6153 81.2135 89.8341 81.4417 89.1218C82.707 85.2845 85.0303 84.2735 85.2792 84.1586C85.9223 83.9059 86.6068 84.2735 86.835 84.9628C87.0632 85.6521 86.7313 86.4333 86.109 86.686C86.026 86.732 84.5947 87.4214 83.7235 90.0409C83.5368 90.6153 83.0804 90.96 82.5826 90.96Z" fill="#004351"/>
<path d="M108.968 72.6469C108.968 74.6459 107.495 76.2774 105.69 76.2774C103.886 76.2774 102.413 74.6459 102.413 72.6469C102.413 70.6478 103.886 69.0164 105.69 69.0164C107.495 69.0394 108.968 70.6478 108.968 72.6469Z" fill="#004351"/>
<path d="M142.676 72.7387C142.676 74.7378 141.203 76.3692 139.399 76.3692C137.594 76.3692 136.121 74.7378 136.121 72.7387C136.121 70.7397 137.594 69.1082 139.399 69.1082C141.203 69.1312 142.676 70.7397 142.676 72.7387Z" fill="#004351"/>
<path d="M123.779 108.653C117.991 108.653 113.552 106.125 113.49 106.079C112.888 105.735 112.66 104.907 112.971 104.241C113.283 103.575 114.029 103.322 114.631 103.667C115.087 103.919 125.832 110.008 135.105 101.369C135.623 100.886 136.391 100.955 136.826 101.53C137.262 102.104 137.2 102.954 136.681 103.437C132.387 107.458 127.762 108.653 123.779 108.653Z" fill="#004351"/>
<path d="M110.773 64.099C110.524 64.099 110.254 64.0071 110.026 63.8233C105.213 59.7792 101.334 63.5705 101.189 63.7314C100.691 64.2369 99.9234 64.1909 99.4671 63.6624C99.0107 63.1109 99.0314 62.2608 99.5293 61.7553C101.417 59.8252 106.334 57.2976 111.519 61.6634C112.059 62.1229 112.162 62.9731 111.748 63.5705C111.499 63.9152 111.125 64.099 110.773 64.099Z" fill="#004351"/>
<path d="M143.921 61.4567C143.672 61.4567 143.402 61.3648 143.174 61.181C138.32 57.0909 134.503 60.9282 134.337 61.089C133.839 61.5945 133.072 61.5716 132.616 61.0201C132.159 60.4686 132.18 59.6185 132.678 59.113C134.565 57.1828 139.482 54.6553 144.667 59.0211C145.207 59.4806 145.311 60.3308 144.896 60.9282C144.647 61.2729 144.294 61.4567 143.921 61.4567Z" fill="#004351"/>
<path d="M127.367 404.651C126.517 404.651 125.832 403.893 125.832 402.951L125.625 159.387C125.625 158.445 126.31 157.687 127.16 157.687C128.01 157.687 128.695 158.445 128.695 159.387L128.902 402.951C128.902 403.893 128.218 404.651 127.367 404.651Z" fill="#CDE8E5"/>
<path d="M144.771 34.4808C144.771 34.4808 130.106 44.8437 116.29 45.556C102.475 46.2684 105.877 38.9614 105.877 38.9614C105.877 38.9614 97.3727 47.2104 90.797 47.2104C90.797 47.2104 91.8549 73.336 90.797 78.529C89.7391 83.6989 57.2133 62.7663 72.522 30.2759C87.8307 -2.21456 125.438 -5.50033 146.7 11.2044C146.7 11.2044 165.618 12.3763 171.779 34.274C179.662 62.2838 164.56 80.1834 161.159 80.1834C157.757 80.1834 155.413 53.5752 155.413 53.5752C155.413 53.5752 146.037 46.9577 144.771 34.4808Z" fill="#004351"/>
<path d="M161.138 81.5162C159.25 81.5162 157.611 79.0576 155.786 67.0862C154.956 61.6405 154.417 56.1488 154.23 54.3336C152.322 52.8171 145.622 46.8659 143.838 36.7097C139.627 39.4211 127.824 46.3374 116.353 46.9348C110.233 47.2565 106.52 46.1076 104.985 43.4652C104.716 42.9826 104.529 42.5001 104.425 42.0176C101.604 44.3383 96.6254 47.8999 92.0826 48.4973C92.29 53.966 92.9538 74.1633 91.9996 78.8508C91.8129 79.7469 91.1906 80.3903 90.3194 80.5971C87.0627 81.3783 79.3461 76.3462 73.8906 68.4189C69.3062 61.7554 62.8758 47.8539 71.4428 29.6556C78.143 15.4554 89.7178 5.50607 104.073 1.69178C118.987 -2.28336 135.437 0.864567 147.136 9.89479C149.874 10.2165 167.091 13.0657 172.941 33.8835C179.039 55.5744 171.634 70.0963 168.149 75.3122C165.618 79.0805 162.88 81.5162 161.138 81.5162ZM145.767 32.1831L145.995 34.343C147.198 46.0387 155.973 52.3575 156.056 52.4264L156.553 52.7711L156.616 53.4375C157.591 64.6046 159.665 77.2653 161.242 78.8048C161.905 78.598 164.083 77.0355 166.614 72.9915C169.663 68.0972 176.177 54.5864 170.576 34.6877C164.747 13.9848 147.343 12.6062 146.597 12.5602L146.244 12.5372L145.954 12.3075C134.814 3.55296 118.966 0.473965 104.612 4.31123C90.9624 7.9417 79.9269 17.3855 73.5794 30.8964C64.9916 49.1406 72.3141 62.5826 77.4584 68.9933C82.7895 75.6109 88.2865 78.1385 89.6348 77.9776C90.4024 73.3591 89.8423 54.3566 89.5519 47.2795L89.4896 45.8548H90.7757C96.8328 45.8548 104.985 38.0195 105.068 37.9505L109.901 33.2631L106.956 39.5819C106.935 39.6279 106.396 40.8917 107.039 41.9946C107.62 42.9597 109.57 44.5451 116.228 44.2005C129.545 43.5111 143.962 33.4469 144.107 33.355L145.767 32.1831Z" fill="#004351"/>
<path d="M67.6262 171.864C67.6262 171.864 -22.9812 288.039 5.56175 344.656C37.2993 407.569 137.864 362.878 137.864 362.878L128.695 304.308L59.1214 304.17C59.1214 304.193 71.443 185.054 67.6262 171.864Z" fill="white"/>
<path d="M181.529 159.732C194.68 161.088 276.845 284.317 250.418 342.175C220.713 407.248 121.041 355.088 121.041 355.088L127.45 302.952L196.526 310.741C196.547 310.741 169.083 158.445 181.529 159.732Z" fill="white"/>
<path d="M180.346 315.153C180.18 315.153 180.014 315.13 179.828 315.061C142.697 300.47 99.0735 307.065 98.6379 307.134C97.8082 307.272 97.0199 306.628 96.9162 305.686C96.7917 304.767 97.3726 303.894 98.223 303.779C98.6587 303.71 143.049 297.001 180.865 311.867C181.653 312.189 182.068 313.154 181.798 314.027C181.57 314.717 180.989 315.153 180.346 315.153Z" fill="#C0BABA"/>
<path d="M195.842 279.147C195.053 279.147 194.369 278.458 194.327 277.585C194.286 276.849 189.536 204.263 179.994 182.25C179.62 181.4 179.952 180.389 180.72 179.998C181.487 179.585 182.4 179.952 182.752 180.803C192.543 203.413 197.19 274.368 197.377 277.378C197.439 278.32 196.796 279.124 195.966 279.193C195.904 279.147 195.883 279.147 195.842 279.147Z" fill="#C0BABA"/>
<path d="M25.3714 317.175C24.915 317.175 24.4379 316.945 24.1475 316.486C23.6497 315.728 23.7741 314.671 24.4587 314.119C24.832 313.82 33.6065 306.651 48.0232 307.019C48.8737 307.042 49.5375 307.823 49.5168 308.742C49.496 309.661 48.8115 310.397 47.9818 310.397C47.961 310.397 47.961 310.397 47.9403 310.397C34.623 310.098 26.3463 316.761 26.2633 316.83C26.0144 317.083 25.6825 317.175 25.3714 317.175Z" fill="#C0BABA"/>
<path d="M229.467 319.887C229.156 319.887 228.824 319.772 228.554 319.542C228.43 319.427 220.174 312.786 206.877 313.108C206.006 313.154 205.342 312.396 205.321 311.454C205.301 310.512 205.964 309.753 206.815 309.73C221.232 309.363 230.027 316.532 230.379 316.83C231.064 317.382 231.188 318.462 230.691 319.197C230.379 319.657 229.923 319.887 229.467 319.887Z" fill="#C0BABA"/>
<path d="M58.2705 275.54C58.229 275.54 58.1875 275.54 58.1667 275.54C57.3162 275.471 56.6939 274.666 56.7562 273.724C56.9428 270.714 61.5894 199.759 71.3803 177.149C71.7537 176.299 72.6664 175.954 73.4132 176.345C74.1807 176.759 74.4919 177.77 74.1393 178.597C64.5973 200.632 59.847 273.196 59.8055 273.931C59.7433 274.873 59.0588 275.54 58.2705 275.54Z" fill="#C0BABA"/>
<path d="M208.993 309.064C208.371 309.064 207.79 308.627 207.562 307.961C207.271 307.088 207.686 306.1 208.474 305.778C221.439 300.516 230.628 304.951 231.023 305.135C231.79 305.525 232.143 306.513 231.79 307.364C231.437 308.214 230.545 308.604 229.778 308.214C229.633 308.145 221.232 304.193 209.532 308.926C209.346 309.018 209.159 309.064 208.993 309.064Z" fill="#C0BABA"/>
<path d="M45.8451 306.353C45.6791 306.353 45.4924 306.33 45.3265 306.238C33.5235 301.458 25.1638 305.479 25.0809 305.525C24.3134 305.916 23.4006 305.525 23.0688 304.675C22.7161 303.825 23.0688 302.814 23.8363 302.446C24.2304 302.263 33.4197 297.828 46.3844 303.09C47.1727 303.412 47.5875 304.377 47.2971 305.273C47.0689 305.916 46.4674 306.353 45.8451 306.353Z" fill="#C0BABA"/>
<path d="M98.4302 305.457C98.4302 305.457 94.8208 295.806 86.959 293.692C86.959 293.692 85.6937 286.868 79.7403 285.696C79.7403 285.696 78.5164 278.113 69.5968 278.113C69.5968 278.113 68.2692 271.519 58.2708 273.885C48.2725 276.229 34.8929 290.659 38.7097 295.369C42.5265 300.08 54.0184 289.487 54.0184 289.487C54.0184 289.487 37.2369 303.366 39.7884 309.73C42.3398 316.095 53.1679 307.616 55.0971 305.02C55.0971 305.02 45.9492 313.958 50.6372 317.727C55.3045 321.495 69.9701 309.018 69.9701 309.018C69.9701 309.018 62.5232 316.072 67.0038 318.669C71.4637 321.265 84.6358 311.132 84.6358 311.132C84.6358 311.132 96.75 309.455 98.4302 305.457Z" fill="#FFDBD8"/>
<path d="M161.739 306.881C161.739 306.881 165.349 297.231 173.21 295.117C173.21 295.117 174.476 288.292 180.429 287.12C180.429 287.12 181.653 279.538 190.573 279.538C190.573 279.538 191.9 272.943 201.899 275.31C211.897 277.654 225.277 292.084 221.46 296.794C217.643 301.504 206.151 290.912 206.151 290.912C206.151 290.912 222.933 304.79 220.381 311.155C217.83 317.52 207.002 309.041 205.072 306.445C205.072 306.445 214.22 315.383 209.532 319.151C204.865 322.92 190.199 310.443 190.199 310.443C190.199 310.443 197.646 317.497 193.166 320.093C188.706 322.69 175.534 312.557 175.534 312.557C175.534 312.557 163.44 310.879 161.739 306.881Z" fill="#FFDBD8"/>
<path d="M152.695 200.609C152.529 200.609 152.363 200.586 152.218 200.563C150.891 200.265 150.04 198.84 150.31 197.37C157.445 158.078 147.717 150.886 147.613 150.817L146.348 150.334L145.228 144.774C149.459 145.486 162.984 155.045 155.101 198.45C154.873 199.736 153.836 200.609 152.695 200.609Z" fill="#003C68"/>
<path d="M151.16 206.676C155.433 206.676 158.897 202.91 158.897 198.266C158.897 193.621 155.433 189.856 151.16 189.856C146.887 189.856 143.423 193.621 143.423 198.266C143.423 202.91 146.887 206.676 151.16 206.676Z" fill="#003C68"/>
<path d="M151.16 209.387C145.539 209.387 140.975 204.401 140.975 198.266C140.975 192.131 145.539 187.145 151.16 187.145C156.782 187.145 161.345 192.131 161.345 198.266C161.345 204.401 156.782 209.387 151.16 209.387ZM151.16 192.567C148.235 192.567 145.871 195.118 145.871 198.266C145.871 201.414 148.256 203.964 151.16 203.964C154.085 203.964 156.45 201.414 156.45 198.266C156.45 195.141 154.085 192.567 151.16 192.567Z" fill="#003C68"/>
<path d="M153.089 204.424C155.701 204.424 157.819 202.13 157.819 199.3C157.819 196.47 155.701 194.176 153.089 194.176C150.477 194.176 148.36 196.47 148.36 199.3C148.36 202.13 150.477 204.424 153.089 204.424Z" fill="#00548B"/>
<path d="M124.609 222.002C124.505 221.128 124.007 220.439 123.322 220.117C123.717 219.658 123.965 219.015 123.903 218.325C123.551 212.811 121.144 205.366 115.523 200.977C112.059 198.266 107.848 197.186 103.222 197.783C96.5632 159.709 106.064 152.678 106.147 152.609L106.064 152.655L107.163 147.209C100.546 148.105 91.0039 156.676 98.4301 198.955C86.5856 203.344 85.092 217.843 85.984 225.081C86.1085 226.023 86.71 226.758 87.4775 227.011C86.9589 227.562 86.6893 228.366 86.8345 229.217C86.9175 229.676 87.7679 233.835 90.6513 235.788C91.6055 236.432 92.6634 236.753 93.7628 236.753C94.3851 236.753 95.0282 236.661 95.6919 236.455C96.8328 236.11 97.4966 234.8 97.1647 233.536C96.8536 232.273 95.6712 231.537 94.5303 231.905C93.6383 232.181 93.1612 231.951 92.8708 231.767C91.7714 231.032 91.1491 228.941 91.0039 228.275C90.838 227.401 90.2572 226.758 89.5311 226.505C90.0082 226 90.2779 225.241 90.1949 224.46C90.1119 223.748 88.2035 206.974 100.567 203.206C105.462 201.712 109.652 202.264 112.992 204.883C117.39 208.33 119.277 214.465 119.568 218.693C119.63 219.612 120.149 220.37 120.875 220.692C120.46 221.174 120.211 221.864 120.294 222.576C120.356 223.265 120.377 225.448 119.526 226.551C119.319 226.827 118.925 227.218 117.991 227.264C116.809 227.332 115.896 228.435 115.959 229.745C116.021 231.009 116.954 231.997 118.095 231.997C118.137 231.997 118.157 231.997 118.199 231.997C120.086 231.882 121.684 231.055 122.783 229.607C125.044 226.712 124.65 222.461 124.609 222.002Z" fill="#003C68"/>
<path d="M71.5467 380.019C62.9382 380.019 57.9598 379.169 57.8353 379.123C57.0056 378.962 56.4455 378.089 56.57 377.17C56.7152 376.251 57.4827 375.63 58.3332 375.768C58.6858 375.837 93.1614 381.742 139.025 361.43C139.814 361.085 140.705 361.499 141.017 362.372C141.328 363.245 140.954 364.233 140.166 364.578C110.856 377.56 86.0464 380.019 71.5467 380.019Z" fill="#C0BABA"/>
<path d="M199.928 376.09C199.887 376.09 199.845 376.09 199.804 376.09C154.853 372.39 127.098 360.718 111.727 351.55C94.9036 341.531 88.8672 332.432 88.6183 332.042C88.1205 331.283 88.2864 330.226 88.971 329.675C89.6555 329.124 90.6097 329.307 91.1075 330.066C91.1698 330.157 97.1231 339.073 113.428 348.723C128.508 357.662 155.786 369.082 200.011 372.712C200.862 372.781 201.484 373.585 201.422 374.527C201.38 375.424 200.716 376.09 199.928 376.09Z" fill="#C0BABA"/>
<path d="M53.1886 291.118C52.8152 291.118 52.4626 290.981 52.1721 290.682C51.5498 290.062 51.4876 288.982 52.0684 288.292C52.3174 287.994 58.1048 280.962 66.3814 278.32C67.1904 278.067 68.0409 278.573 68.2691 279.469C68.4974 280.365 68.0409 281.307 67.2319 281.56C59.785 283.949 54.3917 290.475 54.3502 290.544C54.0183 290.912 53.6034 291.118 53.1886 291.118Z" fill="#B57A77"/>
<path d="M55.0761 306.674C54.848 306.674 54.6198 306.605 54.3916 306.49C53.6448 306.077 53.3337 305.043 53.7071 304.216C53.8938 303.825 58.1877 294.427 63.5395 290.843C68.7046 287.373 73.6415 285.811 73.849 285.742C74.658 285.489 75.5084 286.017 75.7366 286.914C75.9648 287.81 75.4877 288.752 74.6787 289.005C74.6372 289.028 69.9077 290.521 65.116 293.738C60.5109 296.84 56.4659 305.663 56.4245 305.732C56.1755 306.33 55.6362 306.674 55.0761 306.674Z" fill="#B57A77"/>
<path d="M71.2149 308.214C70.9452 308.214 70.6548 308.122 70.4059 307.961C69.6798 307.479 69.4724 306.422 69.908 305.64C70.074 305.319 74.2435 297.966 80.8191 295.599C81.6281 295.3 82.4787 295.806 82.7483 296.679C83.018 297.575 82.5616 298.517 81.7734 298.816C76.2764 300.792 72.5424 307.341 72.5217 307.41C72.2313 307.915 71.7334 308.214 71.2149 308.214Z" fill="#B57A77"/>
<path d="M188.104 308.719C187.731 308.719 187.378 308.582 187.088 308.283C187.026 308.214 181.093 302.332 177.069 300.195C176.301 299.804 175.99 298.793 176.343 297.943C176.716 297.093 177.608 296.748 178.376 297.139C182.815 299.482 188.872 305.502 189.141 305.755C189.764 306.376 189.826 307.456 189.245 308.145C188.934 308.535 188.519 308.719 188.104 308.719Z" fill="#B57A77"/>
<path d="M204.201 306.697C203.745 306.697 203.309 306.49 203.019 306.077C202.957 305.985 196.381 296.955 192.315 293.761C188.332 290.613 184.765 289.763 184.744 289.74C183.914 289.556 183.396 288.66 183.561 287.741C183.727 286.822 184.536 286.247 185.366 286.431C185.532 286.477 189.598 287.442 194.099 291.004C198.497 294.496 205.135 303.572 205.404 303.963C205.923 304.698 205.819 305.755 205.176 306.353C204.865 306.559 204.533 306.697 204.201 306.697Z" fill="#B57A77"/>
<path d="M205.819 291.118C205.425 291.118 205.031 290.958 204.741 290.613C204.637 290.498 199.264 284.662 193.747 283.628C192.917 283.467 192.357 282.594 192.481 281.675C192.626 280.756 193.415 280.135 194.244 280.273C200.758 281.468 206.649 287.925 206.898 288.2C207.499 288.867 207.499 289.924 206.898 290.59C206.607 290.935 206.213 291.118 205.819 291.118Z" fill="#B57A77"/>
<path d="M112.308 138.731L128.695 155.389L118.883 171.336L104.84 150.978L112.308 138.731Z" fill="#103550"/>
<path d="M141.784 139.075L125.438 155.688L135.229 171.589L149.21 151.299L141.784 139.075Z" fill="#103550"/>
<path d="M65.2197 210.306C64.7426 210.306 64.2655 210.053 63.9751 209.594C57.7313 199.805 59.7849 190.522 59.8679 190.132C60.0753 189.235 60.905 188.684 61.7348 188.914C62.5438 189.144 63.0416 190.063 62.8342 190.959C62.7512 191.303 61.071 199.185 66.4643 207.618C66.9621 208.376 66.7962 209.433 66.0909 209.984C65.8212 210.191 65.5101 210.306 65.2197 210.306Z" fill="#C0BABA"/>
<path d="M187.689 204.883C187.337 204.883 186.963 204.745 186.673 204.47C186.03 203.849 185.988 202.769 186.528 202.08C192.087 195.095 190.469 184.87 190.448 184.778C190.303 183.859 190.842 182.986 191.672 182.802C192.502 182.641 193.29 183.238 193.456 184.157C193.539 184.64 195.344 196.129 188.81 204.309C188.54 204.676 188.104 204.883 187.689 204.883Z" fill="#C0BABA"/>
<path d="M151.824 85.2386H142.303C141.452 85.2386 140.768 84.4803 140.768 83.5382C140.768 82.5961 141.452 81.8379 142.303 81.8379H151.824C152.674 81.8379 153.359 82.5961 153.359 83.5382C153.359 84.4803 152.674 85.2386 151.824 85.2386Z" fill="#FF7F90"/>
<path d="M106.624 85.4683H97.1024C96.2519 85.4683 95.5674 84.7101 95.5674 83.768C95.5674 82.8259 96.2519 82.0676 97.1024 82.0676H106.624C107.474 82.0676 108.159 82.8259 108.159 83.768C108.159 84.7101 107.474 85.4683 106.624 85.4683Z" fill="#FF7F90"/>
<path d="M56.0516 443.713C55.3878 443.713 54.7862 443.231 54.5788 442.495C54.3299 441.599 54.807 440.657 55.616 440.381C55.7612 440.335 70.3646 435.326 81.3171 418.874C81.815 418.116 82.7692 417.955 83.4537 418.507C84.1382 419.058 84.2834 420.115 83.7856 420.873C72.2107 438.29 57.1302 443.414 56.5079 443.621C56.342 443.69 56.176 443.713 56.0516 443.713Z" fill="#C0BABA"/>
<path d="M198.497 443.254C198.352 443.254 198.206 443.231 198.061 443.185C197.418 442.978 182.358 437.854 170.784 420.437C170.286 419.679 170.431 418.622 171.115 418.07C171.8 417.519 172.754 417.679 173.252 418.438C184.225 434.936 198.808 439.899 198.953 439.945C199.762 440.221 200.218 441.163 199.99 442.059C199.762 442.771 199.14 443.254 198.497 443.254Z" fill="#C0BABA"/>
<path d="M145.497 31.4018C145.373 31.4018 145.248 31.3788 145.103 31.3328C144.46 31.103 144.107 30.3218 144.336 29.6095C145.165 26.8752 147.157 18.9479 146.534 15.1566C146.41 14.4213 146.846 13.709 147.509 13.5711C148.173 13.4332 148.816 13.9158 148.941 14.6511C149.812 19.89 146.783 30.0231 146.659 30.4367C146.493 31.0341 146.016 31.4018 145.497 31.4018Z" fill="#056370"/>
<path d="M72.7496 38.8466C72.6666 38.8466 72.5836 38.8465 72.5006 38.8236C71.8369 38.6627 71.422 37.9504 71.5464 37.2381C71.6502 36.7096 74.0357 24.4166 86.9174 14.2834C87.4774 13.8469 88.2242 13.9847 88.6183 14.6051C89.0124 15.2255 88.888 16.0527 88.3279 16.4893C76.276 25.9561 73.9734 37.6517 73.9319 37.7896C73.8282 38.41 73.3304 38.8466 72.7496 38.8466Z" fill="#056370"/>
<path d="M80.4038 39.8577C80.3623 39.8577 80.3208 39.8577 80.2586 39.8577C79.5948 39.7658 79.097 39.0994 79.1799 38.3641C79.2007 38.0654 80.0097 30.8504 86.9795 24.3248C87.4981 23.8422 88.2656 23.9112 88.7012 24.4856C89.1368 25.0601 89.0746 25.9102 88.556 26.3928C82.333 32.2291 81.6277 38.5939 81.6069 38.6628C81.5447 39.3522 81.0054 39.8577 80.4038 39.8577Z" fill="#056370"/>
<path d="M170.389 43.649C169.788 43.649 169.269 43.1435 169.186 42.4771C168.128 33.5848 163.648 29.4258 163.606 29.3798C163.088 28.8973 163.005 28.0471 163.44 27.4727C163.876 26.8983 164.623 26.8064 165.162 27.2889C165.369 27.4727 170.41 32.1142 171.613 42.1325C171.696 42.8677 171.24 43.5571 170.555 43.649C170.493 43.649 170.431 43.649 170.389 43.649Z" fill="#056370"/>
</g>
<defs>
<clipPath id="clip0_265_74">
<rect width="256" height="461" fill="white"/>
</clipPath>
</defs>
</svg>
