<svg width="136" height="24" viewBox="0 0 136 24" fill="none" xmlns="http://www.w3.org/2000/svg">
<path d="M7.8 2H16.2C19.4 2 22 4.6 22 7.8V16.2C22 17.7383 21.3889 19.2135 20.3012 20.3012C19.2135 21.3889 17.7383 22 16.2 22H7.8C4.6 22 2 19.4 2 16.2V7.8C2 6.26174 2.61107 4.78649 3.69878 3.69878C4.78649 2.61107 6.26174 2 7.8 2ZM7.6 4C6.64522 4 5.72955 4.37928 5.05442 5.05442C4.37928 5.72955 4 6.64522 4 7.6V16.4C4 18.39 5.61 20 7.6 20H16.4C17.3548 20 18.2705 19.6207 18.9456 18.9456C19.6207 18.2705 20 17.3548 20 16.4V7.6C20 5.61 18.39 4 16.4 4H7.6ZM17.25 5.5C17.5815 5.5 17.8995 5.6317 18.1339 5.86612C18.3683 6.10054 18.5 6.41848 18.5 6.75C18.5 7.08152 18.3683 7.39946 18.1339 7.63388C17.8995 7.8683 17.5815 8 17.25 8C16.9185 8 16.6005 7.8683 16.3661 7.63388C16.1317 7.39946 16 7.08152 16 6.75C16 6.41848 16.1317 6.10054 16.3661 5.86612C16.6005 5.6317 16.9185 5.5 17.25 5.5ZM12 7C13.3261 7 14.5979 7.52678 15.5355 8.46447C16.4732 9.40215 17 10.6739 17 12C17 13.3261 16.4732 14.5979 15.5355 15.5355C14.5979 16.4732 13.3261 17 12 17C10.6739 17 9.40215 16.4732 8.46447 15.5355C7.52678 14.5979 7 13.3261 7 12C7 10.6739 7.52678 9.40215 8.46447 8.46447C9.40215 7.52678 10.6739 7 12 7ZM12 9C11.2044 9 10.4413 9.31607 9.87868 9.87868C9.31607 10.4413 9 11.2044 9 12C9 12.7956 9.31607 13.5587 9.87868 14.1213C10.4413 14.6839 11.2044 15 12 15C12.7956 15 13.5587 14.6839 14.1213 14.1213C14.6839 13.5587 15 12.7956 15 12C15 11.2044 14.6839 10.4413 14.1213 9.87868C13.5587 9.31607 12.7956 9 12 9Z" fill="white"/>
<path d="M124 2C122.687 2 121.386 2.25866 120.173 2.7612C118.96 3.26375 117.858 4.00035 116.929 4.92893C115.054 6.8043 114 9.34784 114 12C114 16.42 116.87 20.17 120.84 21.5C121.34 21.58 121.5 21.27 121.5 21V19.31C118.73 19.91 118.14 17.97 118.14 17.97C117.68 16.81 117.03 16.5 117.03 16.5C116.12 15.88 117.1 15.9 117.1 15.9C118.1 15.97 118.63 16.93 118.63 16.93C119.5 18.45 120.97 18 121.54 17.76C121.63 17.11 121.89 16.67 122.17 16.42C119.95 16.17 117.62 15.31 117.62 11.5C117.62 10.39 118 9.5 118.65 8.79C118.55 8.54 118.2 7.5 118.75 6.15C118.75 6.15 119.59 5.88 121.5 7.17C122.29 6.95 123.15 6.84 124 6.84C124.85 6.84 125.71 6.95 126.5 7.17C128.41 5.88 129.25 6.15 129.25 6.15C129.8 7.5 129.45 8.54 129.35 8.79C130 9.5 130.38 10.39 130.38 11.5C130.38 15.32 128.04 16.16 125.81 16.41C126.17 16.72 126.5 17.33 126.5 18.26V21C126.5 21.27 126.66 21.59 127.17 21.5C131.14 20.16 134 16.42 134 12C134 10.6868 133.741 9.38642 133.239 8.17317C132.736 6.95991 132 5.85752 131.071 4.92893C130.142 4.00035 129.04 3.26375 127.827 2.7612C126.614 2.25866 125.313 2 124 2Z" fill="white"/>
<path d="M59 3C59.5304 3 60.0391 3.21071 60.4142 3.58579C60.7893 3.96086 61 4.46957 61 5V19C61 19.5304 60.7893 20.0391 60.4142 20.4142C60.0391 20.7893 59.5304 21 59 21H45C44.4696 21 43.9609 20.7893 43.5858 20.4142C43.2107 20.0391 43 19.5304 43 19V5C43 4.46957 43.2107 3.96086 43.5858 3.58579C43.9609 3.21071 44.4696 3 45 3H59ZM58.5 18.5V13.2C58.5 12.3354 58.1565 11.5062 57.5452 10.8948C56.9338 10.2835 56.1046 9.94 55.24 9.94C54.39 9.94 53.4 10.46 52.92 11.24V10.13H50.13V18.5H52.92V13.57C52.92 12.8 53.54 12.17 54.31 12.17C54.6813 12.17 55.0374 12.3175 55.2999 12.5801C55.5625 12.8426 55.71 13.1987 55.71 13.57V18.5H58.5ZM46.88 8.56C47.3256 8.56 47.7529 8.383 48.0679 8.06794C48.383 7.75288 48.56 7.32556 48.56 6.88C48.56 5.95 47.81 5.19 46.88 5.19C46.4318 5.19 46.0019 5.36805 45.685 5.68499C45.3681 6.00193 45.19 6.43178 45.19 6.88C45.19 7.81 45.95 8.56 46.88 8.56ZM48.27 18.5V10.13H45.5V18.5H48.27Z" fill="white"/>
<g clip-path="url(#clip0_125_459)">
<path d="M89.4894 10.775L95.3176 4H93.9364L88.8759 9.8825L84.8339 4H80.1719L86.2841 12.8955L80.1719 20H81.5531L86.8974 13.7879L91.1659 20H95.8279L89.489 10.775H89.4894ZM87.5976 12.9738L86.9783 12.088L82.0507 5.03975H84.1723L88.1486 10.728L88.7679 11.6137L93.937 19.0075H91.8158L87.5976 12.9741V12.9738Z" fill="white"/>
</g>
<defs>
<clipPath id="clip0_125_459">
<rect width="16" height="16" fill="white" transform="translate(80 4)"/>
</clipPath>
</defs>
</svg>
