<svg width="29" height="29" viewBox="0 0 29 29" fill="none" xmlns="http://www.w3.org/2000/svg">
<circle cx="14.5" cy="14.5" r="14.5" fill="#AACECE"/>
<path d="M13.25 9C13.25 8.80109 13.329 8.61032 13.4697 8.46967C13.6103 8.32902 13.8011 8.25 14 8.25C14.1989 8.25 14.3897 8.32902 14.5303 8.46967C14.671 8.61032 14.75 8.80109 14.75 9V14.25H20C20.1989 14.25 20.3897 14.329 20.5303 14.4697C20.671 14.6103 20.75 14.8011 20.75 15C20.75 15.1989 20.671 15.3897 20.5303 15.5303C20.3897 15.671 20.1989 15.75 20 15.75H14.75V21C14.75 21.1989 14.671 21.3897 14.5303 21.5303C14.3897 21.671 14.1989 21.75 14 21.75C13.8011 21.75 13.6103 21.671 13.4697 21.5303C13.329 21.3897 13.25 21.1989 13.25 21V15.75H8C7.80109 15.75 7.61032 15.671 7.46967 15.5303C7.32902 15.3897 7.25 15.1989 7.25 15C7.25 14.8011 7.32902 14.6103 7.46967 14.4697C7.61032 14.329 7.80109 14.25 8 14.25H13.25V9Z" fill="white"/>
</svg>
