<svg width="348" height="175" viewBox="0 0 348 175" fill="none" xmlns="http://www.w3.org/2000/svg">
<rect x="50.9209" y="105.254" width="68.0211" height="68.0211" rx="9.69535" transform="rotate(-90 50.9209 105.254)" fill="#7AB2B2"/>
<rect y="172.515" width="66.8811" height="49.7808" rx="9.69535" transform="rotate(-90 0 172.515)" fill="#7AB2B2"/>
<path d="M9.66571 113.664C56.8255 123.239 59.9089 60.9605 56.6795 62.4611C53.45 63.9617 146.697 111.415 94.6288 104.155C42.5608 96.8944 47.615 115.514 47.615 155.358C47.615 195.202 9.66571 113.664 9.66571 113.664Z" fill="#7AB2B2"/>
<rect width="68.0211" height="68.0211" rx="9.69535" transform="matrix(0 -1 -1 0 203.299 104.021)" fill="#EEF7FF"/>
<rect width="68.0211" height="68.0211" rx="9.69535" transform="matrix(0 -1 -1 0 266 171.282)" fill="#EEF7FF"/>
<path d="M244.554 112.432C197.394 122.006 194.311 59.7275 197.54 61.2282C200.77 62.7288 107.523 110.182 159.591 102.922C211.659 95.6615 206.605 114.282 206.605 154.125C206.605 193.969 244.554 112.432 244.554 112.432Z" fill="#EEF7FF"/>
<rect x="59.8857" y="172.123" width="60.801" height="129.202" rx="7.60012" transform="rotate(-90 59.8857 172.123)" fill="#CDE8E5"/>
<g clip-path="url(#clip0_481_569)">
<path d="M312.726 164.111H285.339L286.111 59.0483L297.316 55.978L311.096 59.188L312.726 164.111Z" fill="#AACECE"/>
<path d="M308.836 153.47H286.323V159.637H308.836V153.47Z" fill="#682400"/>
<path d="M328.302 159.549L328.719 174.77H271.126L272.134 159.593L328.302 159.549Z" fill="#004351"/>
<path d="M290.363 57.9319L306.127 57.2779L308.317 174.91L329.664 174.779C329.664 174.779 328.058 75.9266 320.64 62.5199C316.214 54.5215 291.756 57.6966 291.756 57.6966C291.756 57.6966 281.11 58.4118 276.102 64.4912C271.102 70.571 267.7 174.744 267.7 174.744L287.119 174.657L290.363 57.9319Z" fill="white"/>
<path d="M303.616 58.3854L292.528 58.4465L292.82 54.6868L293.166 50.029L303.206 48.6772L303.364 52.4889L303.616 58.3854Z" fill="#FFDBD8"/>
<path d="M303.403 51.765C301.458 52.8116 297.883 53.8149 292.906 53.5443L293.174 50.0378L303.214 48.686L303.403 51.765Z" fill="#B57A77"/>
<path d="M311.923 28.5545C311.844 28.5545 311.765 28.5633 311.695 28.5633V23.3646C311.695 16.9972 308.214 11.3363 303.127 9.63534C300.513 8.76311 298.34 8.73691 297.718 8.75438V8.71076C297.718 8.71076 295.237 8.54502 292.127 9.59176C287.04 11.2926 283.559 16.9536 283.559 23.321V28.4935C283.418 28.476 283.276 28.4586 283.126 28.4586C281.181 28.4586 279.606 30.2031 279.606 32.3576V33.1688C279.606 35.3232 281.181 37.0677 283.126 37.0677C283.276 37.0677 283.418 37.0503 283.559 37.0329C283.615 43.5486 287.308 49.253 292.576 50.762C294.064 51.1894 295.717 51.6256 297.537 51.5907C298.836 51.5645 301.143 51.2505 302.678 50.8056C307.931 49.3054 311.616 43.6272 311.695 37.1375C311.773 37.1462 311.852 37.155 311.931 37.155C313.876 37.155 315.451 35.4105 315.451 33.256V32.4448C315.443 30.299 313.868 28.5545 311.923 28.5545Z" fill="#FFDBD8"/>
<path d="M297.836 36.8409C297.828 36.8409 297.82 36.8409 297.812 36.8409C297.671 36.8321 294.253 36.5966 294.048 33.8926C293.977 32.9419 294.174 32.183 294.631 31.6248C295.04 31.1276 295.576 30.927 295.938 30.8398L296.521 25.9551C296.552 25.676 296.788 25.4754 297.04 25.5103C297.292 25.5452 297.474 25.8068 297.442 26.086L296.757 31.808H296.355C296.355 31.808 295.709 31.8254 295.316 32.3139C295.04 32.6453 294.93 33.1425 294.977 33.788C295.111 35.6023 297.844 35.7942 297.867 35.7942C298.119 35.8116 298.316 36.0558 298.308 36.335C298.285 36.6315 298.08 36.8409 297.836 36.8409Z" fill="#004351"/>
<path d="M311.758 34.8697C311.718 34.8697 311.679 34.861 311.632 34.8522C311.388 34.7737 311.238 34.4946 311.309 34.2242C311.388 33.919 312.088 31.2498 313.632 30.7788C313.876 30.7003 314.136 30.8661 314.199 31.1365C314.27 31.4069 314.12 31.6947 313.876 31.7645C313.002 32.0261 312.364 33.8666 312.206 34.4859C312.143 34.7127 311.954 34.8697 311.758 34.8697Z" fill="#004351"/>
<path d="M313.506 34.7997C313.317 34.7997 313.136 34.6689 313.073 34.4596C312.742 33.4564 312.183 33.1948 312.167 33.186C311.931 33.0814 311.813 32.7848 311.899 32.5231C311.986 32.2615 312.246 32.1219 312.49 32.2178C312.585 32.2527 313.466 32.6452 313.947 34.1019C314.033 34.3723 313.915 34.6602 313.671 34.7648C313.616 34.791 313.561 34.7997 313.506 34.7997Z" fill="#004351"/>
<path d="M283.166 34.5992C282.961 34.5992 282.772 34.451 282.717 34.2242C282.559 33.6049 281.922 31.7644 281.048 31.5027C280.803 31.4242 280.654 31.1451 280.725 30.8747C280.796 30.6043 281.048 30.4386 281.292 30.5171C282.835 30.9794 283.536 33.6572 283.615 33.9625C283.685 34.2329 283.536 34.5207 283.292 34.5905C283.244 34.5905 283.205 34.5992 283.166 34.5992Z" fill="#004351"/>
<path d="M281.41 34.5292C281.355 34.5292 281.299 34.5205 281.252 34.4943C281.008 34.3984 280.89 34.1018 280.977 33.8314C281.457 32.3747 282.339 31.991 282.433 31.9473C282.677 31.8514 282.937 31.991 283.024 32.2526C283.111 32.5143 282.985 32.8109 282.748 32.9068C282.717 32.9243 282.173 33.1859 281.843 34.1803C281.772 34.3984 281.599 34.5292 281.41 34.5292Z" fill="#004351"/>
<path d="M291.426 27.5774C291.426 28.3362 290.867 28.9556 290.181 28.9556C289.497 28.9556 288.938 28.3362 288.938 27.5774C288.938 26.8185 289.497 26.1992 290.181 26.1992C290.867 26.2079 291.426 26.8185 291.426 27.5774Z" fill="#004351"/>
<path d="M304.222 27.6125C304.222 28.3714 303.663 28.9907 302.978 28.9907C302.293 28.9907 301.733 28.3714 301.733 27.6125C301.733 26.8537 302.293 26.2344 302.978 26.2344C303.663 26.2431 304.222 26.8537 304.222 27.6125Z" fill="#004351"/>
<path d="M297.048 41.2458C294.851 41.2458 293.166 40.2861 293.142 40.2687C292.914 40.1381 292.827 39.8238 292.945 39.571C293.064 39.3181 293.347 39.2221 293.575 39.3531C293.749 39.4487 297.827 41.7602 301.348 38.4807C301.544 38.2974 301.836 38.3236 302.001 38.5418C302.166 38.7597 302.143 39.0824 301.946 39.2657C300.316 40.7922 298.56 41.2458 297.048 41.2458Z" fill="#004351"/>
<path d="M292.111 24.3326C292.017 24.3326 291.914 24.2977 291.828 24.2279C290.001 22.6928 288.528 24.132 288.473 24.1931C288.284 24.385 287.993 24.3675 287.82 24.1669C287.646 23.9575 287.654 23.6348 287.843 23.4429C288.56 22.7102 290.426 21.7507 292.394 23.408C292.599 23.5825 292.639 23.9052 292.481 24.132C292.387 24.2628 292.245 24.3326 292.111 24.3326Z" fill="#004351"/>
<path d="M304.694 23.3297C304.6 23.3297 304.497 23.2948 304.411 23.225C302.568 21.6724 301.119 23.1291 301.056 23.1901C300.867 23.382 300.576 23.3733 300.403 23.164C300.229 22.9546 300.237 22.6319 300.426 22.44C301.143 21.7073 303.009 20.7478 304.977 22.4051C305.182 22.5795 305.222 22.9023 305.064 23.1291C304.97 23.2599 304.836 23.3297 304.694 23.3297Z" fill="#004351"/>
<path d="M298.41 153.609C298.088 153.609 297.828 153.322 297.828 152.964L297.749 60.5047C297.749 60.1471 298.009 59.8594 298.332 59.8594C298.654 59.8594 298.914 60.1471 298.914 60.5047L298.993 152.964C298.993 153.322 298.733 153.609 298.41 153.609Z" fill="#CDE8E5"/>
<path d="M305.017 13.0895C305.017 13.0895 299.45 17.0234 294.205 17.2938C288.961 17.5642 290.252 14.7904 290.252 14.7904C290.252 14.7904 287.024 17.9218 284.528 17.9218C284.528 17.9218 284.929 27.8393 284.528 29.8106C284.126 31.7732 271.779 23.827 277.59 11.4933C283.402 -0.840399 297.678 -2.08771 305.749 4.25356C305.749 4.25356 312.931 4.69843 315.269 13.011C318.262 23.6438 312.529 30.4387 311.238 30.4387C309.947 30.4387 309.057 20.3379 309.057 20.3379C309.057 20.3379 305.498 17.8259 305.017 13.0895Z" fill="#004351"/>
<path d="M311.23 30.9443C310.514 30.9443 309.891 30.011 309.199 25.4666C308.883 23.3993 308.679 21.3146 308.608 20.6256C307.884 20.0499 305.34 17.7907 304.663 13.9354C303.064 14.9646 298.584 17.5901 294.229 17.8169C291.906 17.939 290.497 17.5029 289.914 16.4998C289.812 16.3166 289.741 16.1334 289.701 15.9503C288.631 16.8312 286.741 18.1833 285.016 18.41C285.095 20.486 285.347 28.1531 284.985 29.9325C284.914 30.2727 284.678 30.5169 284.347 30.5954C283.111 30.892 280.181 28.9817 278.11 25.9725C276.37 23.4429 273.929 18.1658 277.181 11.2575C279.725 5.86702 284.119 2.09016 289.568 0.642217C295.229 -0.866785 301.474 0.328198 305.915 3.75616C306.954 3.87828 313.49 4.95987 315.711 12.8625C318.026 21.0966 315.215 26.6092 313.892 28.5892C312.931 30.0197 311.892 30.9443 311.23 30.9443ZM305.395 12.217L305.482 13.0369C305.938 17.4767 309.27 19.8754 309.301 19.9016L309.49 20.0324L309.514 20.2854C309.884 24.5245 310.671 29.3306 311.27 29.9151C311.521 29.8366 312.348 29.2434 313.309 27.7083C314.466 25.8503 316.939 20.7215 314.813 13.1678C312.6 5.30876 305.994 4.78543 305.71 4.76797L305.576 4.75924L305.466 4.67205C301.237 1.34874 295.221 0.179922 289.772 1.63658C284.591 3.01475 280.402 6.5997 277.992 11.7286C274.732 18.6542 277.512 23.757 279.465 26.1905C281.488 28.7026 283.575 29.6621 284.087 29.601C284.378 27.8478 284.166 20.6343 284.056 17.9478L284.032 17.4069H284.52C286.819 17.4069 289.914 14.4326 289.946 14.4064L291.78 12.627L290.662 15.0257C290.654 15.0431 290.45 15.5229 290.694 15.9416C290.914 16.3079 291.655 16.9097 294.182 16.7789C299.237 16.5172 304.71 12.6968 304.765 12.6619L305.395 12.217Z" fill="#004351"/>
<path d="M275.732 65.2412C275.732 65.2412 241.337 109.342 252.172 130.835C264.22 154.717 302.395 137.752 302.395 137.752L298.914 115.518L272.504 115.466C272.504 115.475 277.181 70.2483 275.732 65.2412Z" fill="white"/>
<path d="M318.971 60.6359C323.963 61.1506 355.153 107.93 345.122 129.893C333.845 154.595 296.009 134.795 296.009 134.795L298.442 115.004L324.664 117.96C324.672 117.96 314.246 60.1473 318.971 60.6359Z" fill="white"/>
<path d="M318.522 119.635C318.459 119.635 318.396 119.626 318.325 119.6C304.23 114.061 287.67 116.565 287.505 116.591C287.19 116.643 286.89 116.399 286.851 116.041C286.804 115.692 287.024 115.361 287.347 115.317C287.513 115.291 304.364 112.744 318.719 118.388C319.018 118.51 319.176 118.876 319.073 119.208C318.987 119.469 318.766 119.635 318.522 119.635Z" fill="#C0BABA"/>
<path d="M324.405 105.967C324.105 105.967 323.845 105.706 323.829 105.374C323.814 105.095 322.011 77.5404 318.389 69.184C318.247 68.8614 318.373 68.4776 318.664 68.3292C318.955 68.1724 319.302 68.3117 319.436 68.6348C323.152 77.2177 324.916 104.153 324.987 105.296C325.011 105.653 324.767 105.958 324.452 105.985C324.428 105.967 324.42 105.967 324.405 105.967Z" fill="#C0BABA"/>
<path d="M259.692 120.402C259.519 120.402 259.337 120.315 259.227 120.141C259.038 119.853 259.086 119.452 259.345 119.242C259.487 119.129 262.818 116.407 268.291 116.547C268.614 116.556 268.866 116.852 268.858 117.201C268.85 117.55 268.59 117.83 268.275 117.83C268.267 117.83 268.267 117.83 268.259 117.83C263.204 117.716 260.062 120.245 260.03 120.272C259.936 120.368 259.81 120.402 259.692 120.402Z" fill="#C0BABA"/>
<path d="M337.168 121.432C337.05 121.432 336.924 121.388 336.822 121.301C336.775 121.258 333.64 118.737 328.593 118.859C328.262 118.876 328.01 118.588 328.002 118.231C327.995 117.873 328.246 117.585 328.569 117.576C334.042 117.437 337.381 120.159 337.514 120.272C337.774 120.481 337.821 120.891 337.633 121.17C337.514 121.345 337.341 121.432 337.168 121.432Z" fill="#C0BABA"/>
<path d="M272.181 104.598C272.165 104.598 272.149 104.598 272.142 104.598C271.819 104.571 271.582 104.266 271.606 103.908C271.677 102.766 273.441 75.8304 277.158 67.2474C277.299 66.9248 277.646 66.7938 277.929 66.9422C278.221 67.0994 278.339 67.4832 278.205 67.7971C274.583 76.1618 272.779 103.708 272.764 103.987C272.74 104.344 272.48 104.598 272.181 104.598Z" fill="#C0BABA"/>
<path d="M329.396 117.324C329.16 117.324 328.939 117.158 328.853 116.905C328.742 116.573 328.9 116.198 329.199 116.076C334.121 114.079 337.609 115.762 337.759 115.832C338.05 115.98 338.184 116.355 338.05 116.678C337.916 117.001 337.577 117.149 337.286 117.001C337.231 116.975 334.042 115.474 329.601 117.271C329.53 117.306 329.459 117.324 329.396 117.324Z" fill="#C0BABA"/>
<path d="M267.464 116.295C267.401 116.295 267.33 116.286 267.267 116.251C262.786 114.437 259.613 115.963 259.582 115.98C259.29 116.129 258.944 115.98 258.818 115.658C258.684 115.335 258.818 114.951 259.109 114.812C259.259 114.742 262.747 113.059 267.669 115.056C267.968 115.178 268.125 115.545 268.015 115.885C267.928 116.129 267.7 116.295 267.464 116.295Z" fill="#C0BABA"/>
<path d="M287.426 115.954C287.426 115.954 286.055 112.291 283.071 111.488C283.071 111.488 282.591 108.898 280.331 108.453C280.331 108.453 279.866 105.574 276.48 105.574C276.48 105.574 275.976 103.071 272.181 103.969C268.385 104.859 263.306 110.337 264.755 112.125C266.204 113.913 270.566 109.892 270.566 109.892C270.566 109.892 264.196 115.161 265.165 117.577C266.133 119.993 270.244 116.774 270.976 115.789C270.976 115.789 267.503 119.182 269.283 120.612C271.055 122.043 276.622 117.306 276.622 117.306C276.622 117.306 273.795 119.984 275.496 120.97C277.189 121.955 282.189 118.109 282.189 118.109C282.189 118.109 286.788 117.472 287.426 115.954Z" fill="#FFDBD8"/>
<path d="M311.459 116.495C311.459 116.495 312.829 112.832 315.813 112.03C315.813 112.03 316.294 109.439 318.554 108.994C318.554 108.994 319.019 106.116 322.405 106.116C322.405 106.116 322.908 103.612 326.704 104.511C330.499 105.4 335.579 110.878 334.13 112.666C332.681 114.454 328.318 110.433 328.318 110.433C328.318 110.433 334.689 115.701 333.72 118.118C332.752 120.534 328.641 117.315 327.909 116.33C327.909 116.33 331.381 119.723 329.602 121.153C327.83 122.584 322.263 117.847 322.263 117.847C322.263 117.847 325.09 120.525 323.389 121.511C321.696 122.496 316.696 118.65 316.696 118.65C316.696 118.65 312.105 118.013 311.459 116.495Z" fill="#FFDBD8"/>
<path d="M308.025 76.153C307.962 76.153 307.899 76.1443 307.844 76.1356C307.34 76.0224 307.017 75.4815 307.12 74.9235C309.828 60.0078 306.135 57.2777 306.096 57.2515L305.616 57.0681L305.19 54.9575C306.797 55.2278 311.931 58.8565 308.938 75.3334C308.852 75.8216 308.458 76.153 308.025 76.153Z" fill="#003C68"/>
<path d="M307.443 78.4563C309.065 78.4563 310.38 77.0267 310.38 75.2638C310.38 73.5005 309.065 72.0713 307.443 72.0713C305.821 72.0713 304.506 73.5005 304.506 75.2638C304.506 77.0267 305.821 78.4563 307.443 78.4563Z" fill="#003C68"/>
<path d="M307.442 79.4853C305.309 79.4853 303.576 77.5925 303.576 75.2636C303.576 72.9347 305.309 71.042 307.442 71.042C309.577 71.042 311.309 72.9347 311.309 75.2636C311.309 77.5925 309.577 79.4853 307.442 79.4853ZM307.442 73.1002C306.332 73.1002 305.435 74.0686 305.435 75.2636C305.435 76.4586 306.34 77.4266 307.442 77.4266C308.553 77.4266 309.451 76.4586 309.451 75.2636C309.451 74.0774 308.553 73.1002 307.442 73.1002Z" fill="#003C68"/>
<path d="M308.175 77.6012C309.167 77.6012 309.971 76.7304 309.971 75.6561C309.971 74.5818 309.167 73.7109 308.175 73.7109C307.184 73.7109 306.38 74.5818 306.38 75.6561C306.38 76.7304 307.184 77.6012 308.175 77.6012Z" fill="#00548B"/>
<path d="M297.364 84.274C297.324 83.9422 297.135 83.6806 296.875 83.5584C297.025 83.3842 297.119 83.1401 297.095 82.8781C296.962 80.785 296.048 77.9588 293.914 76.2927C292.599 75.2636 291.001 74.8536 289.245 75.0802C286.717 60.627 290.324 57.9579 290.355 57.9317L290.324 57.9492L290.741 55.8818C288.229 56.222 284.607 59.4756 287.426 75.5251C282.93 77.1912 282.363 82.6952 282.701 85.4428C282.748 85.8004 282.977 86.0794 283.268 86.1754C283.071 86.3846 282.969 86.6898 283.024 87.0129C283.056 87.1871 283.378 88.7659 284.473 89.5073C284.835 89.7517 285.237 89.8736 285.654 89.8736C285.89 89.8736 286.134 89.8387 286.386 89.7605C286.819 89.6295 287.071 89.1322 286.945 88.6524C286.827 88.1729 286.379 87.8936 285.945 88.0332C285.607 88.138 285.426 88.0507 285.315 87.9809C284.898 87.7018 284.662 86.9081 284.607 86.6553C284.544 86.3235 284.323 86.0794 284.048 85.9834C284.229 85.7917 284.331 85.5035 284.3 85.2071C284.268 84.9368 283.544 78.5692 288.237 77.1388C290.095 76.5717 291.686 76.7812 292.954 77.7754C294.623 79.084 295.339 81.4129 295.45 83.0178C295.473 83.3667 295.67 83.6545 295.946 83.7767C295.789 83.9597 295.694 84.2216 295.725 84.4919C295.749 84.7534 295.757 85.5821 295.434 86.0008C295.355 86.1056 295.206 86.254 294.851 86.2715C294.403 86.2973 294.056 86.716 294.08 87.2133C294.103 87.6931 294.458 88.0682 294.891 88.0682C294.907 88.0682 294.914 88.0682 294.93 88.0682C295.647 88.0245 296.253 87.7106 296.67 87.1609C297.529 86.0619 297.379 84.4482 297.364 84.274Z" fill="#003C68"/>
<path d="M277.22 144.259C273.952 144.259 272.062 143.936 272.015 143.919C271.7 143.858 271.488 143.526 271.535 143.177C271.59 142.829 271.881 142.593 272.204 142.645C272.338 142.671 285.425 144.913 302.836 137.202C303.135 137.071 303.473 137.229 303.592 137.56C303.71 137.891 303.568 138.266 303.269 138.397C292.142 143.325 282.724 144.259 277.22 144.259Z" fill="#C0BABA"/>
<path d="M325.955 142.768C325.94 142.768 325.924 142.768 325.908 142.768C308.844 141.363 298.308 136.932 292.473 133.452C286.087 129.649 283.796 126.195 283.701 126.047C283.512 125.758 283.575 125.357 283.835 125.148C284.095 124.939 284.457 125.008 284.646 125.296C284.67 125.331 286.93 128.716 293.119 132.379C298.844 135.772 309.199 140.107 325.987 141.485C326.31 141.511 326.546 141.817 326.522 142.174C326.506 142.515 326.254 142.768 325.955 142.768Z" fill="#C0BABA"/>
<path d="M270.251 110.511C270.11 110.511 269.976 110.459 269.866 110.346C269.629 110.11 269.606 109.701 269.826 109.439C269.921 109.325 272.118 106.656 275.26 105.653C275.567 105.557 275.89 105.749 275.976 106.089C276.063 106.429 275.89 106.787 275.582 106.883C272.756 107.79 270.708 110.267 270.692 110.293C270.566 110.433 270.409 110.511 270.251 110.511Z" fill="#B57A77"/>
<path d="M270.968 116.416C270.882 116.416 270.795 116.39 270.709 116.346C270.425 116.19 270.307 115.797 270.449 115.483C270.52 115.335 272.15 111.767 274.181 110.407C276.142 109.089 278.016 108.497 278.095 108.47C278.402 108.374 278.725 108.575 278.811 108.915C278.898 109.255 278.717 109.613 278.41 109.709C278.394 109.718 276.599 110.284 274.78 111.506C273.032 112.683 271.496 116.033 271.48 116.059C271.386 116.286 271.181 116.416 270.968 116.416Z" fill="#B57A77"/>
<path d="M277.095 117.001C276.992 117.001 276.882 116.966 276.788 116.905C276.512 116.722 276.433 116.321 276.599 116.024C276.662 115.902 278.244 113.111 280.741 112.212C281.048 112.099 281.371 112.291 281.473 112.622C281.575 112.963 281.402 113.32 281.103 113.434C279.016 114.184 277.599 116.67 277.591 116.696C277.481 116.888 277.292 117.001 277.095 117.001Z" fill="#B57A77"/>
<path d="M321.467 117.193C321.325 117.193 321.191 117.141 321.081 117.027C321.058 117.001 318.805 114.768 317.278 113.957C316.986 113.808 316.868 113.425 317.002 113.102C317.144 112.779 317.482 112.648 317.774 112.797C319.459 113.686 321.758 115.971 321.861 116.067C322.097 116.303 322.121 116.713 321.9 116.975C321.782 117.123 321.624 117.193 321.467 117.193Z" fill="#B57A77"/>
<path d="M327.577 116.425C327.404 116.425 327.239 116.347 327.129 116.19C327.105 116.155 324.609 112.727 323.065 111.515C321.553 110.32 320.199 109.997 320.191 109.988C319.876 109.919 319.679 109.578 319.742 109.23C319.805 108.881 320.112 108.662 320.427 108.732C320.49 108.75 322.034 109.116 323.742 110.468C325.412 111.794 327.932 115.239 328.034 115.388C328.231 115.667 328.191 116.068 327.947 116.295C327.829 116.373 327.703 116.425 327.577 116.425Z" fill="#B57A77"/>
<path d="M328.192 110.511C328.042 110.511 327.893 110.451 327.783 110.32C327.743 110.276 325.703 108.061 323.609 107.668C323.294 107.607 323.082 107.276 323.129 106.927C323.184 106.578 323.483 106.342 323.798 106.394C326.271 106.848 328.507 109.299 328.601 109.404C328.83 109.657 328.83 110.058 328.601 110.311C328.491 110.442 328.341 110.511 328.192 110.511Z" fill="#B57A77"/>
<path d="M292.694 52.6636L298.915 58.9871L295.19 65.0407L289.859 57.3127L292.694 52.6636Z" fill="#103550"/>
<path d="M303.884 52.7944L297.679 59.1009L301.395 65.1371L306.703 57.4348L303.884 52.7944Z" fill="#103550"/>
<path d="M274.819 79.8343C274.638 79.8343 274.456 79.7383 274.346 79.564C271.976 75.848 272.756 72.3241 272.787 72.1761C272.866 71.8355 273.181 71.6264 273.496 71.7137C273.803 71.801 273.992 72.1499 273.913 72.49C273.882 72.6206 273.244 75.6127 275.291 78.8139C275.48 79.1017 275.417 79.5029 275.149 79.7121C275.047 79.7906 274.929 79.8343 274.819 79.8343Z" fill="#C0BABA"/>
<path d="M321.309 77.7754C321.176 77.7754 321.034 77.723 320.924 77.6186C320.679 77.3829 320.664 76.9729 320.868 76.7114C322.979 74.0598 322.365 70.1783 322.357 70.1434C322.302 69.7945 322.506 69.4631 322.821 69.3932C323.136 69.3321 323.435 69.5588 323.498 69.9076C323.53 70.091 324.215 74.4523 321.735 77.5575C321.632 77.6968 321.467 77.7754 321.309 77.7754Z" fill="#C0BABA"/>
<path d="M307.694 32.3573H304.08C303.757 32.3573 303.497 32.0695 303.497 31.7119C303.497 31.3542 303.757 31.0664 304.08 31.0664H307.694C308.017 31.0664 308.277 31.3542 308.277 31.7119C308.277 32.0695 308.017 32.3573 307.694 32.3573Z" fill="#FF7F90"/>
<path d="M290.536 32.4443H286.922C286.599 32.4443 286.339 32.1564 286.339 31.7988C286.339 31.4412 286.599 31.1533 286.922 31.1533H290.536C290.859 31.1533 291.119 31.4412 291.119 31.7988C291.119 32.1564 290.859 32.4443 290.536 32.4443Z" fill="#FF7F90"/>
<path d="M271.338 168.437C271.086 168.437 270.858 168.254 270.779 167.975C270.685 167.635 270.866 167.277 271.173 167.173C271.228 167.155 276.771 165.254 280.929 159.008C281.118 158.721 281.48 158.659 281.74 158.869C282 159.078 282.055 159.479 281.866 159.767C277.472 166.379 271.748 168.324 271.511 168.403C271.448 168.429 271.385 168.437 271.338 168.437Z" fill="#C0BABA"/>
<path d="M325.412 168.263C325.357 168.263 325.301 168.255 325.246 168.237C325.002 168.159 319.285 166.213 314.892 159.602C314.702 159.314 314.758 158.913 315.017 158.703C315.277 158.494 315.639 158.555 315.828 158.843C319.994 165.106 325.53 166.99 325.585 167.007C325.892 167.112 326.065 167.47 325.978 167.81C325.892 168.08 325.656 168.263 325.412 168.263Z" fill="#C0BABA"/>
<path d="M305.292 11.9207C305.245 11.9207 305.198 11.912 305.143 11.8945C304.899 11.8073 304.765 11.5107 304.852 11.2403C305.166 10.2024 305.923 7.19308 305.686 5.75386C305.639 5.47474 305.805 5.20434 306.056 5.15199C306.308 5.09965 306.552 5.28284 306.6 5.56197C306.931 7.55071 305.781 11.3973 305.734 11.5543C305.671 11.7811 305.49 11.9207 305.292 11.9207Z" fill="#056370"/>
<path d="M277.677 14.7466C277.646 14.7466 277.614 14.7465 277.582 14.7378C277.331 14.6768 277.173 14.4064 277.22 14.136C277.26 13.9353 278.165 9.2688 283.055 5.42214C283.268 5.25644 283.551 5.30875 283.701 5.54426C283.851 5.77977 283.803 6.09379 283.591 6.25952C279.016 9.85321 278.142 14.293 278.126 14.3453C278.086 14.5808 277.897 14.7466 277.677 14.7466Z" fill="#056370"/>
<path d="M280.583 15.1305C280.568 15.1305 280.552 15.1305 280.528 15.1305C280.276 15.0956 280.087 14.8426 280.119 14.5635C280.127 14.4501 280.434 11.7112 283.079 9.23403C283.276 9.05083 283.568 9.07702 283.733 9.29507C283.898 9.51315 283.875 9.83586 283.678 10.0191C281.316 12.2346 281.048 14.6507 281.04 14.6769C281.016 14.9386 280.812 15.1305 280.583 15.1305Z" fill="#056370"/>
<path d="M314.741 16.5693C314.513 16.5693 314.316 16.3774 314.285 16.1244C313.883 12.7488 312.182 11.17 312.167 11.1526C311.97 10.9694 311.938 10.6467 312.104 10.4286C312.269 10.2106 312.553 10.1757 312.757 10.3588C312.836 10.4286 314.749 12.1906 315.206 15.9936C315.238 16.2727 315.064 16.5344 314.804 16.5693C314.781 16.5693 314.757 16.5693 314.741 16.5693Z" fill="#056370"/>
</g>
<g clip-path="url(#clip1_481_569)">
<path d="M196.858 74.329C196.858 74.329 192.881 85.459 192.755 92.7073C192.574 102.887 203.905 105.556 211.575 104.369C219.245 103.183 222.457 98.7348 222.812 94.5913C223.166 90.4395 220.583 73.6138 220.583 73.6138L196.858 74.329Z" fill="#004351"/>
<path d="M208.119 105.111C203.606 105.111 198.598 103.873 195.472 100.794C193.322 98.6825 192.259 95.9523 192.315 92.6987C192.441 85.4504 196.283 74.6083 196.449 74.1547L196.559 73.8581L220.962 73.1167L221.025 73.5354C221.127 74.2245 223.615 90.4746 223.261 94.6438C223.088 96.6501 221.741 103.305 211.646 104.867C210.536 105.024 209.347 105.111 208.119 105.111ZM197.165 74.8088C196.535 76.6319 193.307 86.2964 193.196 92.7162C193.141 95.6733 194.102 98.1503 196.055 100.06C199.827 103.768 206.536 104.649 211.512 103.881C220.97 102.416 222.214 96.3623 222.371 94.5394C222.686 90.8584 220.607 76.7365 220.206 74.111L197.165 74.8088Z" fill="#004351"/>
<path d="M212.788 91.9833L205.819 92.0619L205.764 89.1134L205.709 85.9648V85.895L207.197 85.6246L212.379 84.6738L212.52 87.2208L212.788 91.9833Z" fill="#FBDAD7"/>
<path d="M212.52 87.2212C211.205 87.9365 208.056 89.0964 205.764 89.1051L205.709 85.9565L207.197 85.6163L212.379 84.6655L212.52 87.2212Z" fill="#B57A77"/>
<path d="M219.016 70.1861C218.961 70.1861 218.906 70.1948 218.843 70.1948V66.3656C218.843 61.6729 216.276 57.4948 212.528 56.2475C210.599 55.602 209 55.5846 208.543 55.5933V55.5584C208.543 55.5584 206.717 55.4363 204.425 56.2039C200.677 57.4599 198.11 61.6293 198.11 66.322V70.1338C198.007 70.1163 197.897 70.1076 197.787 70.1076C196.354 70.1076 195.196 71.3898 195.196 72.9773V73.5792C195.196 75.1667 196.354 76.4489 197.787 76.4489C197.897 76.4489 200.417 86.977 208.41 87.1515C215.457 87.3085 218.961 76.5099 219.016 76.5099C220.45 76.5099 221.607 75.2277 221.607 73.6403V73.0384C221.615 71.4683 220.45 70.1861 219.016 70.1861Z" fill="#FBDAD7"/>
<path d="M209.299 78.071C209.291 78.071 209.283 78.071 209.283 78.071C209.181 78.0622 206.835 77.9052 206.701 76.0386C206.653 75.3844 206.787 74.861 207.102 74.4773C207.378 74.1371 207.74 73.9975 207.984 73.9452L208.378 70.6393C208.402 70.43 208.575 70.2904 208.756 70.3166C208.945 70.3428 209.071 70.5347 209.047 70.7353L208.575 74.6517H208.276C208.276 74.6517 207.85 74.6692 207.583 74.9919C207.401 75.2099 207.331 75.5414 207.362 75.9776C207.457 77.1987 209.291 77.3208 209.307 77.3208C209.496 77.3295 209.638 77.5127 209.63 77.7133C209.622 77.9139 209.472 78.071 209.299 78.071Z" fill="#004351"/>
<path d="M219.245 75.472C219.213 75.472 219.182 75.4633 219.158 75.4546C218.977 75.4022 218.874 75.1929 218.922 74.9923C218.977 74.7829 219.457 72.9512 220.52 72.6284C220.701 72.5761 220.89 72.6895 220.938 72.8901C220.985 73.0907 220.882 73.3001 220.701 73.3524C220.111 73.5269 219.685 74.7655 219.583 75.1929C219.528 75.3673 219.394 75.472 219.245 75.472Z" fill="#004351"/>
<path d="M220.442 75.4285C220.3 75.4285 220.174 75.3325 220.127 75.1843C219.906 74.5126 219.536 74.3381 219.521 74.3294C219.347 74.2509 219.261 74.0329 219.332 73.8497C219.395 73.6578 219.584 73.5618 219.757 73.6316C219.828 73.6578 220.426 73.9282 220.765 74.9313C220.828 75.1232 220.741 75.3413 220.56 75.411C220.52 75.4198 220.481 75.4285 220.442 75.4285Z" fill="#004351"/>
<path d="M197.551 75.2361C197.401 75.2361 197.268 75.1228 197.228 74.957C197.126 74.5384 196.693 73.2998 196.11 73.1166C195.929 73.0643 195.827 72.8549 195.874 72.6543C195.921 72.4537 196.11 72.3403 196.291 72.3926C197.354 72.7154 197.835 74.5471 197.89 74.7564C197.937 74.9571 197.835 75.1664 197.653 75.2187C197.606 75.2275 197.583 75.2361 197.551 75.2361Z" fill="#004351"/>
<path d="M196.354 75.1842C196.315 75.1842 196.275 75.1755 196.236 75.158C196.063 75.0882 195.968 74.8702 196.031 74.6783C196.362 73.6752 196.968 73.4135 197.039 73.3786C197.212 73.3088 197.409 73.4135 197.472 73.6054C197.535 73.7973 197.449 74.0154 197.275 74.0851C197.252 74.0939 196.89 74.2683 196.669 74.94C196.622 75.097 196.496 75.1842 196.354 75.1842Z" fill="#004351"/>
<path d="M204.929 71.7385C204.929 72.2531 204.551 72.6718 204.087 72.6718C203.622 72.6718 203.244 72.2531 203.244 71.7385C203.244 71.2238 203.622 70.8052 204.087 70.8052C204.551 70.8052 204.929 71.2238 204.929 71.7385Z" fill="#004351"/>
<path d="M213.638 71.7649C213.638 72.2795 213.261 72.6982 212.796 72.6982C212.331 72.6982 211.953 72.2795 211.953 71.7649C211.953 71.2502 212.331 70.8315 212.796 70.8315C213.261 70.8315 213.638 71.2502 213.638 71.7649Z" fill="#004351"/>
<path d="M208.756 81.0629C207.252 81.0629 206.103 80.4088 206.087 80.4C205.921 80.3041 205.858 80.0773 205.945 79.8941C206.032 79.7109 206.236 79.6412 206.402 79.7371C206.52 79.8069 209.284 81.3595 211.67 79.144C211.812 79.0132 212.024 79.0306 212.15 79.1876C212.268 79.3446 212.253 79.5801 212.111 79.7197C210.993 80.7577 209.796 81.0629 208.756 81.0629Z" fill="#004351"/>
<path d="M205.394 69.6626C205.299 69.6626 205.205 69.6277 205.126 69.5666C203.953 68.581 203.04 69.4968 203.008 69.5317C202.827 69.7149 202.551 69.7062 202.386 69.5056C202.221 69.3049 202.228 68.9997 202.41 68.8165C202.921 68.2844 204.26 67.6041 205.67 68.7816C205.866 68.9473 205.906 69.2526 205.756 69.4707C205.662 69.6015 205.528 69.6626 205.394 69.6626Z" fill="#004351"/>
<path d="M213.961 68.9824C213.867 68.9824 213.772 68.9475 213.694 68.8865C212.56 67.927 211.67 68.7556 211.568 68.8603C211.387 69.0435 211.111 69.026 210.946 68.8254C210.78 68.6248 210.788 68.3195 210.969 68.1363C211.481 67.6042 212.82 66.9239 214.229 68.1014C214.426 68.2672 214.466 68.5724 214.316 68.7905C214.229 68.9126 214.095 68.9824 213.961 68.9824Z" fill="#004351"/>
<path d="M216.599 59.7713C216.599 59.7713 211.607 69.7848 201.141 68.206C201.141 68.206 201.378 72.9511 199.354 73.7361C197.33 74.5298 192.606 67.1506 196.771 58.3234C200.937 49.4962 213.748 50.6824 216.481 54.8954C219.221 59.1171 216.599 59.7713 216.599 59.7713Z" fill="#004351"/>
<path d="M199.031 74.2858C198.361 74.2858 197.605 73.7973 196.881 72.8727C194.637 70.003 193.519 64.1501 196.369 58.088C198.243 54.1105 202.11 51.6159 206.968 51.2321C211.197 50.9006 215.347 52.3137 216.827 54.599C217.992 56.3958 218.394 57.8525 218.024 58.9254C217.764 59.693 217.189 60.0331 216.882 60.164C216.157 61.4811 211.126 69.8635 201.574 68.7383C201.566 70.1077 201.346 73.4484 199.487 74.1811C199.354 74.2596 199.196 74.2858 199.031 74.2858ZM208.196 52.1741C207.811 52.1741 207.425 52.1916 207.039 52.2177C202.488 52.5754 198.889 54.8868 197.157 58.5503C194.086 65.0573 196.07 70.3432 197.55 72.236C198.251 73.1257 198.889 73.4048 199.204 73.2739C200.606 72.7244 200.755 69.4447 200.692 68.2323L200.661 67.6392L201.188 67.7177C201.921 67.8311 202.629 67.8834 203.314 67.8834C211.937 67.8834 216.157 59.6319 216.205 59.536L216.299 59.3441L216.488 59.3004C216.52 59.2917 217.024 59.1434 217.205 58.5852C217.378 58.0705 217.323 57.0587 216.11 55.1834C214.96 53.3866 211.677 52.1741 208.196 52.1741Z" fill="#004351"/>
<path d="M214.819 60.3031C214.819 60.3031 213.023 67.4992 217.315 70.5783C217.315 70.5783 217.315 73.0816 218.622 73.3433C219.93 73.605 222.544 67.2811 221.599 62.6756C220.646 58.0614 217.315 57.2764 217.315 57.2764L214.819 60.3031Z" fill="#004351"/>
<path d="M218.709 73.8407C218.654 73.8407 218.599 73.832 218.544 73.8233C217.173 73.5441 216.929 71.5728 216.882 70.8401C212.606 67.5343 214.315 60.469 214.394 60.1637L214.425 60.0503L217.166 56.7271L217.418 56.7881C217.567 56.823 221.032 57.704 222.04 62.5624C222.843 66.4614 221.213 71.5467 219.78 73.204C219.41 73.6314 219.048 73.8407 218.709 73.8407ZM215.221 60.5388C215.024 61.4285 213.866 67.5168 217.56 70.1598L217.764 70.3081V70.5785C217.764 71.1193 217.945 72.7068 218.709 72.8638C218.741 72.8725 218.906 72.8201 219.174 72.4887C220.45 70.9448 221.891 66.287 221.166 62.7892C220.426 59.2043 218.197 58.1052 217.457 57.8348L215.221 60.5388Z" fill="#004351"/>
<path d="M192.031 146.281L186.377 172.214H230.615L225.332 146.281H192.031Z" fill="#448894"/>
<path d="M204.755 90.2997L213.559 89.9072L213.763 93.0997C213.763 93.0997 222.819 94.5912 227.229 97.4436L222.41 135.282L225.323 146.281H192.022L194.999 134.296L191.668 97.9409C191.668 97.9409 195.589 94.9143 204.992 93.4573L204.755 90.2997Z" fill="#448894"/>
<path d="M191.487 98.6826C191.487 98.6826 172.132 122.103 173.203 140.481C174.274 158.859 196.039 159.845 196.039 159.845L199.606 147.59C199.606 147.59 188.905 143.045 187.298 139.094C185.692 135.143 195.488 122.007 195.488 122.007C195.488 122.007 193.614 111.862 191.487 98.6826Z" fill="white"/>
<path d="M215.08 134.802L220.261 164.372C220.505 165.767 219.639 167.093 218.371 167.285L198.276 170.277C197.15 170.443 196.087 169.649 195.819 168.419L189.543 140.202C189.236 138.823 190.039 137.445 191.299 137.183L212.497 132.84C213.694 132.604 214.851 133.477 215.08 134.802Z" fill="#FFAC5C"/>
<path d="M197.976 170.914C196.716 170.914 195.59 169.963 195.283 168.568L189.007 140.35C188.818 139.521 188.952 138.667 189.369 137.943C189.786 137.219 190.44 136.739 191.196 136.582L212.394 132.238C213.89 131.933 215.339 133.023 215.63 134.681L220.812 164.25C220.961 165.087 220.788 165.934 220.339 166.631C219.89 167.329 219.221 167.774 218.449 167.887L198.346 170.888C198.22 170.905 198.094 170.914 197.976 170.914ZM212.89 133.424C212.788 133.424 212.685 133.433 212.591 133.459L191.393 137.803C190.936 137.899 190.542 138.187 190.29 138.623C190.038 139.059 189.96 139.574 190.07 140.071L196.346 168.289C196.551 169.213 197.346 169.806 198.196 169.684L218.292 166.692C218.756 166.622 219.158 166.352 219.426 165.933C219.693 165.515 219.796 165.009 219.709 164.503L214.528 134.933C214.386 134.044 213.677 133.424 212.89 133.424Z" fill="#D88744"/>
<path d="M221.111 149.117L218.496 149.709C218.496 149.709 215.465 148.654 212.252 148.724C209.039 148.794 208.149 149.971 208.921 150.966C209.693 151.951 212.724 151.559 213.622 152.283C214.512 153.007 209.338 154.716 206.905 154.716C204.472 154.716 203.275 153.731 202.566 155.309C201.85 156.888 205.716 157.944 206.905 158.075C206.905 158.075 206.905 160.377 209.582 160.709C209.582 160.709 209.582 162.226 212.079 162.226C212.079 162.226 212.968 163.02 214.693 162.82C216.418 162.619 219.748 160.116 220.701 157.752L222.426 157.089C222.418 157.089 222.055 151.288 221.111 149.117Z" fill="#FBDAD7"/>
<path d="M227.23 97.4438C227.23 97.4438 247.388 122.835 246.317 141.214C245.246 159.592 223.481 160.577 223.481 160.577L219.914 148.323C219.914 148.323 230.615 143.778 232.222 139.827C233.828 135.876 224.032 122.739 224.032 122.739C224.032 122.739 225.111 110.624 227.23 97.4438Z" fill="white"/>
<path d="M198.244 134.34L198.11 133.8C197.953 133.163 198.315 132.517 198.898 132.387L201.614 131.785C202.095 131.68 202.575 131.959 202.756 132.465L203.15 133.52L198.244 134.34Z" fill="#E0CBB8"/>
<path d="M195.803 135.666L196.519 138.632L206.323 136.643L205.473 133.451C205.315 132.866 204.788 132.509 204.244 132.622L196.638 134.201C196.031 134.314 195.645 134.995 195.803 135.666Z" fill="#FFEEDC"/>
<path d="M227.23 97.4438C227.23 97.4438 220.505 117.698 223.812 123.027C225.584 125.888 229.569 132.177 229.569 132.177L243.656 123.437C243.648 123.437 232.127 101.02 227.23 97.4438Z" fill="#448894"/>
<path d="M191.912 97.749C191.912 97.749 198.637 118.003 195.33 123.332C193.558 126.193 189.574 132.482 189.574 132.482L175.486 123.742C175.494 123.742 187.014 101.334 191.912 97.749Z" fill="#448894"/>
<path d="M240.033 140.551C239.946 140.551 239.852 140.525 239.765 140.472C237.025 138.806 233.812 139.391 233.78 139.4C233.481 139.46 233.19 139.234 233.143 138.902C233.088 138.571 233.292 138.257 233.591 138.196C233.741 138.17 237.214 137.524 240.293 139.408C240.56 139.574 240.655 139.94 240.513 140.237C240.419 140.438 240.23 140.551 240.033 140.551Z" fill="#C7C4C4"/>
<path d="M237.009 143.08C236.883 143.08 236.75 143.028 236.647 142.932C235.096 141.44 233.348 141.205 233.332 141.196C233.025 141.161 232.812 140.856 232.844 140.516C232.875 140.176 233.151 139.94 233.458 139.975C233.545 139.984 235.568 140.263 237.372 141.999C237.6 142.217 237.624 142.609 237.427 142.862C237.316 143.01 237.167 143.08 237.009 143.08Z" fill="#C7C4C4"/>
<path d="M179.266 138.92C179.038 138.92 178.817 138.754 178.738 138.501C178.644 138.178 178.801 137.829 179.085 137.725C183.25 136.189 185.77 137.707 185.873 137.768C186.14 137.934 186.235 138.309 186.085 138.606C185.936 138.902 185.597 139.007 185.337 138.841C185.306 138.824 183.101 137.533 179.439 138.885C179.384 138.902 179.321 138.92 179.266 138.92Z" fill="#C7C4C4"/>
<path d="M181.109 140.961C180.872 140.961 180.66 140.795 180.581 140.534C180.487 140.211 180.644 139.87 180.935 139.766C183.077 138.998 185.046 139.155 185.133 139.164C185.44 139.19 185.668 139.487 185.644 139.818C185.621 140.158 185.353 140.411 185.054 140.385C185.03 140.385 183.211 140.245 181.282 140.926C181.219 140.952 181.164 140.961 181.109 140.961Z" fill="#C7C4C4"/>
<path d="M193.975 125.644C193.731 125.644 193.511 125.47 193.44 125.191C193.377 124.955 191.983 119.25 192.542 113.808C193.093 108.426 194.755 102.363 194.778 102.303C194.865 101.98 195.18 101.797 195.471 101.893C195.763 101.988 195.928 102.338 195.842 102.66C195.826 102.721 194.188 108.679 193.652 113.947C193.117 119.154 194.511 124.807 194.519 124.868C194.597 125.191 194.424 125.531 194.133 125.618C194.078 125.635 194.03 125.644 193.975 125.644Z" fill="#2D6974"/>
<path d="M223.607 124.902C223.56 124.902 223.513 124.894 223.458 124.876C223.166 124.789 222.993 124.449 223.071 124.126C223.087 124.074 224.473 118.413 223.938 113.206C223.395 107.937 221.765 101.979 221.749 101.919C221.662 101.596 221.828 101.255 222.119 101.151C222.41 101.055 222.717 101.238 222.812 101.561C222.827 101.622 224.489 107.684 225.048 113.066C225.607 118.509 224.205 124.213 224.15 124.449C224.079 124.728 223.851 124.902 223.607 124.902Z" fill="#2D6974"/>
<path d="M193.755 108.609C193.7 108.609 193.645 108.6 193.59 108.583C191.542 107.876 191.046 104.204 190.991 103.794C190.952 103.462 191.164 103.148 191.463 103.105C191.771 103.061 192.046 103.297 192.086 103.628C192.196 104.544 192.747 107.013 193.912 107.414C194.204 107.518 194.369 107.858 194.275 108.181C194.212 108.443 193.991 108.609 193.755 108.609Z" fill="#2D6974"/>
<path d="M223.332 106.891C223.095 106.891 222.875 106.725 222.804 106.463C222.709 106.14 222.875 105.8 223.166 105.696C224.34 105.294 224.891 102.765 224.993 101.91C225.032 101.579 225.308 101.343 225.615 101.387C225.915 101.43 226.127 101.735 226.088 102.076C226.04 102.494 225.536 106.158 223.489 106.864C223.442 106.882 223.387 106.891 223.332 106.891Z" fill="#2D6974"/>
<path d="M212.598 95.0451C212.591 95.0451 212.591 95.0451 212.583 95.0451L206.094 94.8796C205.787 94.8708 205.543 94.5914 205.551 94.2513C205.559 93.9112 205.811 93.6409 206.118 93.6496L212.606 93.8151C212.913 93.8239 213.158 94.1033 213.15 94.4434C213.15 94.7835 212.898 95.0451 212.598 95.0451Z" fill="#2D6974"/>
<path d="M217.323 128.461C217.291 128.461 217.26 128.461 217.229 128.453C209 126.856 198.913 128.278 198.81 128.296C198.511 128.339 198.228 128.104 198.188 127.763C198.149 127.432 198.362 127.118 198.669 127.074C198.771 127.057 209.023 125.609 217.417 127.24C217.717 127.301 217.922 127.615 217.867 127.947C217.819 128.252 217.583 128.461 217.323 128.461Z" fill="#2D6974"/>
<path d="M208.111 158.842C207.489 158.842 207.079 158.763 207.055 158.763C206.756 158.702 206.552 158.388 206.607 158.057C206.662 157.725 206.945 157.498 207.244 157.56C207.268 157.56 208.426 157.769 209.827 157.403C210.126 157.324 210.426 157.525 210.497 157.856C210.567 158.188 210.386 158.519 210.087 158.597C209.323 158.781 208.638 158.842 208.111 158.842Z" fill="#B57A77"/>
<path d="M209.803 161.336C209.622 161.336 209.504 161.319 209.473 161.311C209.173 161.249 208.977 160.927 209.032 160.595C209.087 160.264 209.37 160.046 209.67 160.098C209.717 160.107 210.425 160.202 211.52 159.496C211.78 159.322 212.126 159.426 212.276 159.714C212.434 160.002 212.339 160.386 212.079 160.551C211.04 161.223 210.229 161.336 209.803 161.336Z" fill="#B57A77"/>
<path d="M212.072 162.837C211.788 162.837 211.544 162.593 211.52 162.27C211.497 161.93 211.725 161.642 212.024 161.607C212.284 161.581 213.087 161.424 213.418 161.04C213.631 160.796 213.977 160.778 214.198 161.014C214.418 161.249 214.434 161.633 214.222 161.877C213.544 162.68 212.26 162.82 212.111 162.828C212.095 162.837 212.087 162.837 212.072 162.837Z" fill="#B57A77"/>
<path d="M215.662 75.2363H213.126C212.819 75.2363 212.575 74.9659 212.575 74.6257C212.575 74.2855 212.819 74.0151 213.126 74.0151H215.662C215.969 74.0151 216.213 74.2855 216.213 74.6257C216.213 74.9659 215.969 75.2363 215.662 75.2363Z" fill="#FF7F90"/>
<path d="M203.63 75.3149H201.094C200.787 75.3149 200.543 75.0445 200.543 74.7043C200.543 74.3641 200.787 74.0938 201.094 74.0938H203.63C203.937 74.0938 204.181 74.3641 204.181 74.7043C204.181 75.0445 203.937 75.3149 203.63 75.3149Z" fill="#FF7F90"/>
<path d="M214.56 64.0019C214.442 64.0019 214.323 63.9496 214.229 63.8449C214.064 63.6443 214.079 63.339 214.26 63.1559C214.284 63.1297 216.646 60.7048 217.166 57.6083C217.213 57.3379 217.442 57.1635 217.678 57.2158C217.922 57.2681 218.08 57.5211 218.032 57.7828C217.458 61.2107 214.961 63.7664 214.851 63.8798C214.773 63.9583 214.662 64.0019 214.56 64.0019Z" fill="#056370"/>
<path d="M196.44 62.824C196.409 62.824 196.378 62.824 196.354 62.8153C196.118 62.763 195.96 62.5013 196.007 62.2396C196.031 62.0913 196.7 58.5762 199.134 55.9507C199.307 55.7588 199.59 55.7675 199.756 55.9594C199.929 56.1513 199.921 56.4653 199.748 56.6485C197.511 59.0559 196.874 62.3966 196.866 62.4315C196.834 62.6583 196.645 62.824 196.44 62.824Z" fill="#056370"/>
<path d="M197.802 64.7605C197.794 64.7605 197.779 64.7605 197.771 64.7605C197.527 64.743 197.346 64.5076 197.361 64.2372C197.369 64.1238 197.574 61.3936 199.196 59.1607C199.346 58.9513 199.629 58.9164 199.818 59.0821C200.007 59.2479 200.039 59.5619 199.889 59.7712C198.448 61.76 198.251 64.2808 198.251 64.3069C198.227 64.5599 198.031 64.7605 197.802 64.7605Z" fill="#056370"/>
</g>
<defs>
<clipPath id="clip0_481_569">
<rect width="97.18" height="175" fill="white" transform="translate(250.061)"/>
</clipPath>
<clipPath id="clip1_481_569">
<rect width="73.6442" height="121.475" fill="white" transform="translate(173 50.8677)"/>
</clipPath>
</defs>
</svg>
