<svg width="40" height="40" viewBox="0 0 40 40" fill="none" xmlns="http://www.w3.org/2000/svg">
<path d="M26.8558 27.6113C26.8725 27.678 26.8725 27.7438 26.8725 27.8105V30.9522H3.75V27.8105C3.75 26.7572 4.39667 25.8038 5.38333 25.4147L11.9825 22.803C12.8533 22.463 13.085 21.3105 12.3808 20.6805C11.0875 19.5197 10.2417 17.613 10.2417 15.4572C10.2417 11.9172 12.5133 9.04883 15.315 9.04883C18.1092 9.04883 20.3808 11.9172 20.3808 15.4572C20.3808 17.613 19.535 19.5197 18.2417 20.6805C17.5375 21.3105 17.7692 22.463 18.64 22.803L24.0367 24.9338V24.9422" stroke="black" stroke-width="0.833333" stroke-linecap="round" stroke-linejoin="round"/>
<path d="M29.1004 12.0297C27.7929 13.1322 26.5704 13.8272 23.3112 14.463C23.1626 14.4909 23.0284 14.5698 22.9317 14.686C22.835 14.8022 22.7818 14.9485 22.7812 15.0997V20.9647C22.7812 24.6838 26.2062 28.3572 29.5154 28.3572C32.7162 28.3572 36.2504 24.6838 36.2504 20.9647V15.0997C36.2497 14.9485 36.1963 14.8023 36.0994 14.6863C36.0025 14.5702 35.8682 14.4916 35.7196 14.4638C32.4612 13.8272 31.2387 13.1322 29.9321 12.0297C29.8152 11.9323 29.6679 11.8789 29.5158 11.8789C29.3637 11.8789 29.2172 11.9323 29.1004 12.0297Z" stroke="black" stroke-width="0.833333" stroke-linecap="round" stroke-linejoin="round"/>
<path d="M33.351 17.9175L28.6444 22.4075L26.6094 20.3716" stroke="black" stroke-width="0.833333" stroke-linecap="round" stroke-linejoin="round"/>
</svg>
