<svg width="194" height="320" viewBox="0 0 194 320" fill="none" xmlns="http://www.w3.org/2000/svg">
<g clip-path="url(#clip0_265_131)">
<path d="M62.8482 61.8043C62.8482 61.8043 52.3727 91.1239 52.0408 110.218C51.5637 137.033 81.4136 144.064 101.618 140.939C121.822 137.814 130.285 126.096 131.219 115.181C132.152 104.244 125.348 59.9202 125.348 59.9202L62.8482 61.8043Z" fill="#004351"/>
<path d="M92.5116 142.892C80.6256 142.892 67.4328 139.63 59.1976 131.519C53.5346 125.958 50.7342 118.766 50.8794 110.195C51.2113 91.1007 61.3342 62.5396 61.7698 61.3447L62.0602 60.5634L126.344 58.6104L126.51 59.7132C126.78 61.5285 133.334 104.336 132.401 115.319C131.945 120.604 128.398 138.136 101.804 142.249C98.8798 142.663 95.7476 142.892 92.5116 142.892ZM63.6574 63.068C61.998 67.8704 53.4931 93.3295 53.2027 110.241C53.0575 118.031 55.5882 124.556 60.7326 129.588C70.6687 139.354 88.3422 141.675 101.452 139.653C126.365 135.792 129.642 119.846 130.057 115.044C130.887 105.347 125.41 68.1461 124.353 61.2298L63.6574 63.068Z" fill="#004351"/>
<path d="M104.812 108.311L86.4545 108.518L86.3093 100.751L86.1641 92.4566V92.2727L90.0846 91.5604L103.734 89.0559L104.107 95.7653L104.812 108.311Z" fill="#FBDAD7"/>
<path d="M104.107 95.7651C100.643 97.6493 92.3457 100.705 86.3093 100.728L86.1641 92.4334L90.0846 91.5372L103.734 89.0327L104.107 95.7651Z" fill="#B57A77"/>
<path d="M121.22 50.89C121.075 50.89 120.93 50.913 120.764 50.913V40.8258C120.764 28.4638 114.002 17.4575 104.128 14.1717C99.0459 12.4713 94.835 12.4254 93.6318 12.4484V12.3564C93.6318 12.3564 88.8194 12.0347 82.783 14.0568C72.9091 17.3655 66.1468 28.3489 66.1468 40.7109V50.7521C65.8771 50.7061 65.5867 50.6832 65.2963 50.6832C61.521 50.6832 58.4717 54.0609 58.4717 58.2428V59.8283C58.4717 64.0102 61.521 67.388 65.2963 67.388C65.5867 67.388 72.2246 95.122 93.2792 95.5816C111.844 95.9952 121.075 67.5488 121.22 67.5488C124.996 67.5488 128.045 64.1711 128.045 59.9892V58.4037C128.066 54.2677 124.996 50.89 121.22 50.89Z" fill="#FBDAD7"/>
<path d="M95.6226 71.6617C95.6019 71.6617 95.5812 71.6617 95.5812 71.6617C95.3115 71.6387 89.1299 71.2251 88.7773 66.3079C88.6528 64.5846 89.0055 63.2059 89.8352 62.1949C90.5612 61.2988 91.5154 60.9311 92.1585 60.7932L93.1957 52.0847C93.2579 51.5333 93.7142 51.1656 94.1913 51.2346C94.6892 51.3035 95.0211 51.809 94.9588 52.3375L93.7143 62.6545H92.926C92.926 62.6545 91.8058 62.7004 91.1006 63.5506C90.6235 64.125 90.4368 64.9982 90.5197 66.1471C90.7687 69.3639 95.6019 69.6856 95.6434 69.6856C96.1412 69.7086 96.5146 70.1911 96.4939 70.7196C96.4731 71.2481 96.079 71.6617 95.6226 71.6617Z" fill="#004351"/>
<path d="M121.822 64.8142C121.739 64.8142 121.656 64.7913 121.594 64.7683C121.117 64.6304 120.847 64.0789 120.971 63.5505C121.117 62.999 122.382 58.1737 125.182 57.3235C125.659 57.1857 126.157 57.4843 126.282 58.0128C126.406 58.5413 126.136 59.0928 125.659 59.2306C124.104 59.6902 122.983 62.9531 122.714 64.079C122.569 64.5385 122.216 64.8142 121.822 64.8142Z" fill="#004351"/>
<path d="M124.975 64.6995C124.601 64.6995 124.27 64.4468 124.145 64.0562C123.564 62.2869 122.589 61.8273 122.548 61.8043C122.091 61.5975 121.863 61.0231 122.05 60.5406C122.216 60.0351 122.714 59.7823 123.17 59.9661C123.357 60.0351 124.933 60.7474 125.825 63.3898C125.991 63.8953 125.763 64.4698 125.286 64.6536C125.182 64.6766 125.079 64.6995 124.975 64.6995Z" fill="#004351"/>
<path d="M64.6732 64.1939C64.2791 64.1939 63.9264 63.8952 63.8227 63.4586C63.553 62.3557 62.4121 59.0929 60.8771 58.6104C60.4 58.4725 60.1304 57.921 60.2548 57.3926C60.3793 56.8641 60.8771 56.5653 61.3542 56.7032C64.1546 57.5534 65.4199 62.3787 65.5651 62.9302C65.6896 63.4587 65.4199 64.0101 64.9428 64.148C64.8184 64.171 64.7562 64.1939 64.6732 64.1939Z" fill="#004351"/>
<path d="M61.5203 64.056C61.4165 64.056 61.3128 64.033 61.2091 63.987C60.7528 63.8032 60.5038 63.2288 60.6698 62.7233C61.541 60.0808 63.1382 59.3915 63.3249 59.2996C63.7813 59.1157 64.2999 59.3915 64.4658 59.897C64.6318 60.4025 64.4036 60.9769 63.9472 61.1607C63.885 61.1837 62.9308 61.6433 62.35 63.4126C62.2255 63.8262 61.8936 64.056 61.5203 64.056Z" fill="#004351"/>
<path d="M84.11 54.9798C84.11 56.3354 83.1143 57.4384 81.8905 57.4384C80.6666 57.4384 79.6709 56.3354 79.6709 54.9798C79.6709 53.6241 80.6666 52.5212 81.8905 52.5212C83.1143 52.5212 84.11 53.6241 84.11 54.9798Z" fill="#004351"/>
<path d="M107.052 55.0487C107.052 56.4044 106.057 57.5073 104.833 57.5073C103.609 57.5073 102.613 56.4044 102.613 55.0487C102.613 53.693 103.609 52.5901 104.833 52.5901C106.057 52.5901 107.052 53.693 107.052 55.0487Z" fill="#004351"/>
<path d="M94.1913 79.543C90.2293 79.543 87.2008 77.8197 87.1593 77.7967C86.7237 77.544 86.5578 76.9465 86.7859 76.464C87.0141 75.9814 87.5534 75.7976 87.989 76.0504C88.3002 76.2342 95.5811 80.3243 101.867 74.4879C102.24 74.1433 102.8 74.1892 103.132 74.6028C103.443 75.0164 103.402 75.6368 103.028 76.0045C100.083 78.7388 96.9295 79.543 94.1913 79.543Z" fill="#004351"/>
<path d="M85.3345 49.5112C85.0855 49.5112 84.8366 49.4193 84.6292 49.2584C81.5384 46.6619 79.1322 49.0746 79.0492 49.1665C78.5721 49.649 77.8461 49.626 77.4105 49.0976C76.9749 48.5691 76.9956 47.7649 77.4727 47.2824C78.821 45.8807 82.3474 44.0885 86.0605 47.1904C86.5791 47.627 86.6828 48.4313 86.2887 49.0057C86.0397 49.3504 85.6871 49.5112 85.3345 49.5112Z" fill="#004351"/>
<path d="M107.903 47.7189C107.654 47.7189 107.405 47.627 107.198 47.4662C104.211 44.9386 101.867 47.1215 101.597 47.3972C101.12 47.8798 100.394 47.8338 99.9584 47.3053C99.5228 46.7768 99.5435 45.9726 100.02 45.4901C101.369 44.0885 104.895 42.2962 108.608 45.3982C109.127 45.8348 109.231 46.639 108.836 47.2134C108.608 47.5351 108.256 47.7189 107.903 47.7189Z" fill="#004351"/>
<path d="M114.852 23.4544C114.852 23.4544 101.701 49.8328 74.1328 45.6738C74.1328 45.6738 74.7551 58.1737 69.424 60.2417C64.093 62.3326 51.6469 42.8936 62.6202 19.6402C73.5935 -3.61324 107.343 -0.488328 114.541 10.6099C121.76 21.7311 114.852 23.4544 114.852 23.4544Z" fill="#004351"/>
<path d="M68.5733 61.6892C66.8101 61.6892 64.8188 60.4025 62.9104 57.9668C56.9985 50.4072 54.0529 34.9891 61.5621 19.0197C66.499 8.54183 76.684 1.97025 89.4828 0.959232C100.622 0.0860813 111.554 3.80843 115.454 9.82858C118.524 14.562 119.582 18.3993 118.607 21.2256C117.922 23.2476 116.408 24.1437 115.599 24.4884C113.69 27.958 100.435 50.0396 75.2735 47.0755C75.2528 50.6829 74.6719 59.4834 69.7765 61.4135C69.4238 61.6203 69.0089 61.6892 68.5733 61.6892ZM92.7187 3.44079C91.7023 3.44079 90.6859 3.48679 89.6695 3.55572C77.6797 4.49781 68.2 10.5869 63.6364 20.2375C55.5465 37.3788 60.7738 51.3033 64.6736 56.2895C66.5198 58.6332 68.2 59.3685 69.0297 59.0238C72.722 57.5762 73.1162 48.9366 72.9502 45.7427L72.8672 44.1802L74.2571 44.387C76.1862 44.6857 78.0531 44.8236 79.8578 44.8236C102.572 44.8236 113.69 23.0867 113.815 22.834L114.064 22.3285L114.562 22.2136C114.645 22.1906 115.972 21.8 116.449 20.3294C116.906 18.9737 116.76 16.3083 113.566 11.3681C110.537 6.63472 101.887 3.44079 92.7187 3.44079Z" fill="#004351"/>
<path d="M110.164 24.8561C110.164 24.8561 105.434 43.8126 116.74 51.9238C116.74 51.9238 116.74 58.5184 120.183 59.2077C123.627 59.897 130.513 43.2382 128.024 31.106C125.514 18.9508 116.74 16.8828 116.74 16.8828L110.164 24.8561Z" fill="#004351"/>
<path d="M120.411 60.5175C120.266 60.5175 120.121 60.4945 119.976 60.4716C116.366 59.7363 115.723 54.5433 115.599 52.6132C104.335 43.9046 108.836 25.2927 109.044 24.4885L109.127 24.1898L116.346 15.4353L117.009 15.5962C117.403 15.6881 126.531 18.0088 129.186 30.8074C131.302 41.0784 127.008 54.4744 123.232 58.8402C122.257 59.9661 121.303 60.5175 120.411 60.5175ZM111.222 25.4765C110.703 27.8203 107.654 43.8587 117.383 50.8209L117.922 51.2116V51.9239C117.922 53.3485 118.399 57.5304 120.411 57.944C120.494 57.967 120.93 57.8291 121.635 56.956C124.996 52.8889 128.792 40.6189 126.883 31.4048C124.933 21.961 119.063 19.0658 117.113 18.3535L111.222 25.4765Z" fill="#004351"/>
<path d="M50.1321 251.347L35.2383 319.66H151.775L137.857 251.347H50.1321Z" fill="#448894"/>
<path d="M83.6533 103.876L106.845 102.842L107.384 111.252C107.384 111.252 131.239 115.181 142.856 122.695L130.161 222.372L137.836 251.347H50.1112L57.9522 219.776L49.1777 124.005C49.1777 124.005 59.508 116.032 84.2757 112.194L83.6533 103.876Z" fill="#448894"/>
<path d="M48.7011 125.958C48.7011 125.958 -2.28634 187.653 0.534769 236.067C3.35588 284.481 60.6908 287.077 60.6908 287.077L70.0876 254.794C70.0876 254.794 41.8972 242.822 37.6656 232.413C33.4339 222.005 59.2388 187.4 59.2388 187.4C59.2388 187.4 54.3019 160.677 48.7011 125.958Z" fill="white"/>
<path d="M110.849 221.108L124.498 299.003C125.141 302.679 122.859 306.172 119.519 306.677L66.5825 314.559C63.6162 314.995 60.8158 312.904 60.1105 309.664L43.578 235.332C42.769 231.701 44.8848 228.071 48.2038 227.381L104.045 215.938C107.198 215.318 110.247 217.616 110.849 221.108Z" fill="#FFAC5C"/>
<path d="M65.7933 316.236C62.4744 316.236 59.508 313.731 58.699 310.055L42.1665 235.722C41.6687 233.539 42.0213 231.288 43.1207 229.38C44.2201 227.473 45.9418 226.21 47.9332 225.796L103.775 214.353C107.716 213.549 111.533 216.421 112.301 220.787L125.95 298.681C126.344 300.887 125.888 303.116 124.705 304.954C123.523 306.792 121.76 307.964 119.727 308.263L66.7683 316.167C66.4364 316.213 66.1045 316.236 65.7933 316.236ZM105.082 217.478C104.812 217.478 104.543 217.501 104.294 217.57L48.4518 229.013C47.2486 229.266 46.2115 230.024 45.5477 231.173C44.8839 232.322 44.6765 233.677 44.9669 234.987L61.4994 309.32C62.0388 311.755 64.1338 313.318 66.3741 312.996L119.312 305.115C120.536 304.931 121.594 304.219 122.299 303.116C123.004 302.013 123.274 300.68 123.046 299.347L109.396 221.453C109.023 219.109 107.156 217.478 105.082 217.478Z" fill="#D88744"/>
<path d="M126.738 258.815L119.851 260.377C119.851 260.377 111.865 257.597 103.402 257.781C94.9379 257.965 92.5939 261.067 94.6268 263.686C96.6596 266.283 104.646 265.249 107.011 267.156C109.355 269.063 95.7261 273.566 89.3164 273.566C82.9067 273.566 79.7537 270.97 77.8868 275.129C75.9991 279.288 86.1841 282.068 89.3164 282.413C89.3164 282.413 89.3164 288.479 96.3692 289.352C96.3692 289.352 96.3692 293.35 102.945 293.35C102.945 293.35 105.289 295.441 109.832 294.913C114.375 294.384 123.149 287.79 125.659 281.563L130.202 279.816C130.181 279.816 129.227 264.536 126.738 258.815Z" fill="#FBDAD7"/>
<path d="M142.856 122.695C142.856 122.695 195.959 189.583 193.138 237.997C190.317 286.411 132.982 289.007 132.982 289.007L123.585 256.724C123.585 256.724 151.775 244.752 156.007 234.344C160.239 223.935 134.434 189.33 134.434 189.33C134.434 189.33 137.276 157.414 142.856 122.695Z" fill="white"/>
<path d="M66.4987 219.891L66.146 218.466C65.7312 216.789 66.6854 215.088 68.2204 214.744L75.3769 213.158C76.6423 212.882 77.9076 213.618 78.3847 214.95L79.4219 217.731L66.4987 219.891Z" fill="#E0CBB8"/>
<path d="M60.0685 223.383L61.9562 231.196L87.7818 225.957L85.5415 217.547C85.1266 216.007 83.7368 215.065 82.3055 215.364L62.2673 219.523C60.6701 219.822 59.6537 221.614 60.0685 223.383Z" fill="#FFEEDC"/>
<path d="M142.856 122.695C142.856 122.695 125.141 176.049 133.853 190.089C138.52 197.625 149.017 214.192 149.017 214.192L186.127 191.169C186.106 191.169 155.758 132.116 142.856 122.695Z" fill="#448894"/>
<path d="M49.8217 123.499C49.8217 123.499 67.5366 176.853 58.8243 190.893C54.157 198.429 43.6608 214.996 43.6608 214.996L6.55078 191.973C6.57152 191.973 36.9192 132.943 49.8217 123.499Z" fill="#448894"/>
<path d="M176.585 236.251C176.356 236.251 176.108 236.182 175.879 236.044C168.661 231.655 160.197 233.195 160.114 233.218C159.326 233.378 158.559 232.781 158.434 231.908C158.289 231.035 158.828 230.208 159.616 230.047C160.011 229.978 169.158 228.277 177.269 233.241C177.974 233.677 178.223 234.642 177.85 235.423C177.601 235.952 177.103 236.251 176.585 236.251Z" fill="#C7C4C4"/>
<path d="M168.619 242.914C168.287 242.914 167.935 242.776 167.665 242.524C163.578 238.594 158.973 237.974 158.932 237.951C158.123 237.859 157.563 237.055 157.646 236.159C157.729 235.263 158.455 234.642 159.264 234.734C159.492 234.757 164.823 235.492 169.573 240.065C170.175 240.639 170.237 241.673 169.719 242.34C169.428 242.73 169.034 242.914 168.619 242.914Z" fill="#C7C4C4"/>
<path d="M16.5071 231.954C15.9056 231.954 15.3248 231.517 15.1173 230.851C14.8684 230.001 15.2833 229.082 16.03 228.806C27.0033 224.762 33.6412 228.76 33.9109 228.921C34.6162 229.357 34.8651 230.345 34.471 231.127C34.0769 231.908 33.1849 232.184 32.5004 231.747C32.4174 231.701 26.6092 228.3 16.9635 231.862C16.8183 231.908 16.6523 231.954 16.5071 231.954Z" fill="#C7C4C4"/>
<path d="M21.3614 237.331C20.7391 237.331 20.179 236.894 19.9716 236.205C19.7227 235.355 20.1375 234.458 20.905 234.183C26.5473 232.161 31.7331 232.574 31.9613 232.597C32.7703 232.666 33.3719 233.447 33.3096 234.321C33.2474 235.217 32.5421 235.883 31.7539 235.814C31.6917 235.814 26.8999 235.446 21.8178 237.239C21.6518 237.308 21.5066 237.331 21.3614 237.331Z" fill="#C7C4C4"/>
<path d="M55.2558 196.982C54.6128 196.982 54.032 196.522 53.8453 195.787C53.6794 195.167 50.0078 180.139 51.4806 165.801C52.9326 151.624 57.3095 135.654 57.3717 135.494C57.5999 134.643 58.4296 134.161 59.1971 134.414C59.9646 134.666 60.4002 135.586 60.1721 136.436C60.1306 136.597 55.8159 152.29 54.4054 166.169C52.9948 179.886 56.6664 194.776 56.6872 194.937C56.8946 195.787 56.4383 196.683 55.6707 196.913C55.5255 196.959 55.4011 196.982 55.2558 196.982Z" fill="#2D6974"/>
<path d="M133.314 195.029C133.189 195.029 133.065 195.006 132.92 194.96C132.152 194.73 131.696 193.834 131.903 192.984C131.945 192.846 135.595 177.933 134.185 164.216C132.754 150.337 128.46 134.643 128.418 134.483C128.19 133.632 128.626 132.736 129.393 132.461C130.161 132.208 130.97 132.69 131.219 133.541C131.26 133.701 135.637 149.671 137.11 163.848C138.583 178.186 134.89 193.214 134.745 193.834C134.558 194.569 133.957 195.029 133.314 195.029Z" fill="#2D6974"/>
<path d="M54.6751 152.107C54.5299 152.107 54.3847 152.084 54.2395 152.038C48.8462 150.176 47.5394 140.503 47.3942 139.423C47.2905 138.55 47.8505 137.723 48.6388 137.608C49.4478 137.493 50.1738 138.113 50.2775 138.986C50.5679 141.399 52.0199 147.902 55.09 148.959C55.8575 149.234 56.2931 150.13 56.0442 150.981C55.8782 151.67 55.2974 152.107 54.6751 152.107Z" fill="#2D6974"/>
<path d="M132.588 147.58C131.965 147.58 131.385 147.143 131.198 146.454C130.949 145.604 131.385 144.708 132.152 144.432C135.243 143.375 136.695 136.712 136.965 134.46C137.068 133.587 137.794 132.966 138.603 133.081C139.392 133.196 139.952 134 139.848 134.896C139.723 135.999 138.396 145.65 133.003 147.511C132.878 147.557 132.733 147.58 132.588 147.58Z" fill="#2D6974"/>
<path d="M104.314 116.376C104.294 116.376 104.294 116.376 104.273 116.376L87.1797 115.94C86.3707 115.917 85.7277 115.181 85.7485 114.285C85.7692 113.389 86.433 112.677 87.242 112.7L104.335 113.136C105.144 113.159 105.787 113.895 105.766 114.791C105.766 115.687 105.103 116.376 104.314 116.376Z" fill="#2D6974"/>
<path d="M116.76 204.404C116.677 204.404 116.594 204.404 116.512 204.381C94.835 200.176 68.2626 203.921 67.9929 203.967C67.2047 204.082 66.4579 203.462 66.3542 202.565C66.2505 201.692 66.8106 200.865 67.6196 200.75C67.8892 200.704 94.8972 196.89 117.009 201.187C117.798 201.348 118.337 202.175 118.192 203.048C118.067 203.852 117.445 204.404 116.76 204.404Z" fill="#2D6974"/>
<path d="M92.4905 284.435C90.8518 284.435 89.7731 284.228 89.7108 284.228C88.9226 284.067 88.3833 283.24 88.5285 282.367C88.6737 281.494 89.4204 280.896 90.2087 281.057C90.2709 281.057 93.3202 281.609 97.0125 280.644C97.8008 280.437 98.5891 280.965 98.7758 281.838C98.9624 282.712 98.4853 283.585 97.6971 283.791C95.685 284.274 93.8803 284.435 92.4905 284.435Z" fill="#B57A77"/>
<path d="M96.9507 291.006C96.4736 291.006 96.1625 290.961 96.0795 290.938C95.2912 290.777 94.7726 289.927 94.9179 289.053C95.0631 288.18 95.8098 287.606 96.5981 287.744C96.7225 287.767 98.5894 288.019 101.472 286.158C102.157 285.699 103.07 285.974 103.464 286.733C103.879 287.491 103.63 288.502 102.945 288.938C100.207 290.708 98.0709 291.006 96.9507 291.006Z" fill="#B57A77"/>
<path d="M102.925 294.959C102.178 294.959 101.535 294.315 101.472 293.465C101.41 292.569 102.012 291.811 102.8 291.719C103.485 291.65 105.6 291.236 106.472 290.225C107.032 289.582 107.944 289.536 108.525 290.156C109.106 290.777 109.148 291.788 108.588 292.431C106.804 294.545 103.422 294.913 103.028 294.936C102.987 294.959 102.966 294.959 102.925 294.959Z" fill="#B57A77"/>
<path d="M112.384 64.1939H105.704C104.895 64.1939 104.252 63.4816 104.252 62.5854C104.252 61.6893 104.895 60.9771 105.704 60.9771H112.384C113.193 60.9771 113.836 61.6893 113.836 62.5854C113.836 63.4816 113.193 64.1939 112.384 64.1939Z" fill="#FF7F90"/>
<path d="M80.6871 64.4006H74.0077C73.1987 64.4006 72.5557 63.6884 72.5557 62.7922C72.5557 61.8961 73.1987 61.1838 74.0077 61.1838H80.6871C81.4961 61.1838 82.1392 61.8961 82.1392 62.7922C82.1392 63.6884 81.4961 64.4006 80.6871 64.4006Z" fill="#FF7F90"/>
<path d="M109.479 34.5988C109.168 34.5988 108.857 34.4609 108.608 34.1852C108.173 33.6567 108.214 32.8525 108.691 32.37C108.753 32.301 114.976 25.9133 116.346 17.7562C116.47 17.0439 117.072 16.5843 117.694 16.7222C118.337 16.86 118.752 17.5264 118.627 18.2157C117.113 27.2459 110.537 33.9784 110.247 34.2771C110.04 34.4839 109.749 34.5988 109.479 34.5988Z" fill="#056370"/>
<path d="M61.7489 31.4967C61.666 31.4967 61.583 31.4967 61.5208 31.4738C60.8984 31.3359 60.4836 30.6465 60.608 29.9572C60.6703 29.5666 62.4335 20.3066 68.8432 13.3903C69.2996 12.8848 70.0463 12.9078 70.4819 13.4133C70.9383 13.9188 70.9175 14.746 70.4612 15.2285C64.57 21.5704 62.8898 30.3708 62.8691 30.4627C62.7861 31.0601 62.2883 31.4967 61.7489 31.4967Z" fill="#056370"/>
<path d="M65.3371 36.5977C65.3163 36.5977 65.2749 36.5977 65.2541 36.5977C64.6111 36.5517 64.134 35.9314 64.1754 35.2191C64.1962 34.9204 64.7355 27.7284 69.0087 21.8461C69.4028 21.2946 70.1496 21.2027 70.6474 21.6393C71.1452 22.0759 71.2282 22.903 70.8341 23.4545C67.0381 28.6934 66.5195 35.334 66.5195 35.4029C66.4572 36.0692 65.9386 36.5977 65.3371 36.5977Z" fill="#056370"/>
</g>
<defs>
<clipPath id="clip0_265_131">
<rect width="194" height="320" fill="white"/>
</clipPath>
</defs>
</svg>
