<svg width="26" height="30" viewBox="0 0 26 30" fill="none" xmlns="http://www.w3.org/2000/svg">
<path d="M22.6423 11.9658H3.35262C2.02096 11.9658 0.941406 12.9392 0.941406 14.1399V27.1841C0.941406 28.3848 2.02096 29.3581 3.35262 29.3581H22.6423C23.9741 29.3581 25.0536 28.3848 25.0536 27.1841V14.1399C25.0536 12.9392 23.9741 11.9658 22.6423 11.9658Z" stroke="black" stroke-width="1.16403" stroke-linecap="round" stroke-linejoin="round"/>
<path d="M21.4371 11.9659V8.70484C21.4371 6.68677 20.5481 4.75135 18.9653 3.32438C17.3826 1.89738 15.2361 1.0957 12.9978 1.0957C10.7596 1.0957 8.61305 1.89738 7.0304 3.32438C5.44773 4.75135 4.55859 6.68677 4.55859 8.70484V11.9659" stroke="black" stroke-width="1.16403" stroke-linecap="round" stroke-linejoin="round"/>
<path d="M12.9976 21.749C13.6634 21.749 14.2032 21.2623 14.2032 20.662C14.2032 20.0616 13.6634 19.575 12.9976 19.575C12.3318 19.575 11.792 20.0616 11.792 20.662C11.792 21.2623 12.3318 21.749 12.9976 21.749Z" stroke="black" stroke-width="1.16403" stroke-linecap="round" stroke-linejoin="round"/>
</svg>
