<svg width="793" height="1024" viewBox="0 0 793 1024" fill="none" xmlns="http://www.w3.org/2000/svg">
<path d="M133.789 121.572C175.685 73.1485 129.513 35.9469 133.789 -1H793V1028C541.425 1024.99 7.45837 1025.77 1.52094 1024.08C-9.0668 1021.08 37.9744 987.074 69.8126 993.196C101.651 999.318 131.168 931.202 89.1239 872.193C44.159 809.085 76.3278 772.768 100.76 777.307C118.107 780.531 166.726 749.565 89.1239 676.929C-39.5557 556.486 131.019 501.289 175.684 456.501C220.349 411.714 290.108 326.868 232.693 279.957C178.89 235.999 86.703 175.995 133.789 121.572Z" fill="#7AB2B2"/>
</svg>
