<svg width="16" height="18" viewBox="0 0 16 18" fill="none" xmlns="http://www.w3.org/2000/svg">
<path d="M7.875 9C9.06847 9 10.2131 8.52589 11.057 7.68198C11.9009 6.83807 12.375 5.69347 12.375 4.5C12.375 3.30653 11.9009 2.16193 11.057 1.31802C10.2131 0.474106 9.06847 0 7.875 0C6.68153 0 5.53693 0.474106 4.69302 1.31802C3.84911 2.16193 3.375 3.30653 3.375 4.5C3.375 5.69347 3.84911 6.83807 4.69302 7.68198C5.53693 8.52589 6.68153 9 7.875 9ZM4.5 10.9406C1.89844 11.7035 0 14.1082 0 16.9559C0 17.5324 0.467578 18 1.04414 18H14.7059C15.2824 18 15.75 17.5324 15.75 16.9559C15.75 14.1082 13.8516 11.7035 11.25 10.9406V12.7266C12.2203 12.9762 12.9375 13.8586 12.9375 14.9062V16.3125C12.9375 16.6219 12.6844 16.875 12.375 16.875H11.8125C11.5031 16.875 11.25 16.6219 11.25 16.3125C11.25 16.0031 11.5031 15.75 11.8125 15.75V14.9062C11.8125 14.284 11.3098 13.7812 10.6875 13.7812C10.0652 13.7812 9.5625 14.284 9.5625 14.9062V15.75C9.87188 15.75 10.125 16.0031 10.125 16.3125C10.125 16.6219 9.87188 16.875 9.5625 16.875H9C8.69062 16.875 8.4375 16.6219 8.4375 16.3125V14.9062C8.4375 13.8586 9.15469 12.9762 10.125 12.7266V10.7191C9.91406 10.698 9.69961 10.6875 9.48164 10.6875H6.26836C6.05039 10.6875 5.83594 10.698 5.625 10.7191V13.0184C6.43711 13.2609 7.03125 14.0133 7.03125 14.9062C7.03125 15.9926 6.14883 16.875 5.0625 16.875C3.97617 16.875 3.09375 15.9926 3.09375 14.9062C3.09375 14.0133 3.68789 13.2609 4.5 13.0184V10.9406ZM5.0625 15.75C5.28628 15.75 5.50089 15.6611 5.65912 15.5029C5.81736 15.3446 5.90625 15.13 5.90625 14.9062C5.90625 14.6825 5.81736 14.4679 5.65912 14.3096C5.50089 14.1514 5.28628 14.0625 5.0625 14.0625C4.83872 14.0625 4.62411 14.1514 4.46588 14.3096C4.30764 14.4679 4.21875 14.6825 4.21875 14.9062C4.21875 15.13 4.30764 15.3446 4.46588 15.5029C4.62411 15.6611 4.83872 15.75 5.0625 15.75Z" fill="black"/>
</svg>
