<svg width="27" height="27" viewBox="0 0 27 27" fill="none" xmlns="http://www.w3.org/2000/svg">
<path d="M2.25 6.625C2.25 6.02826 2.48705 5.45597 2.90901 5.03401C3.33097 4.61205 3.90326 4.375 4.5 4.375H11.25V24.625H4.5C3.90326 24.625 3.33097 24.3879 2.90901 23.966C2.48705 23.544 2.25 22.9717 2.25 22.375V6.625ZM15.75 4.375H22.5C23.0967 4.375 23.669 4.61205 24.091 5.03401C24.5129 5.45597 24.75 6.02826 24.75 6.625V12.25H15.75V4.375ZM15.75 16.75H24.75V22.375C24.75 22.9717 24.5129 23.544 24.091 23.966C23.669 24.3879 23.0967 24.625 22.5 24.625H15.75V16.75Z" stroke="white" stroke-width="2.25" stroke-linecap="round" stroke-linejoin="round"/>
</svg>
