<svg width="29" height="29" viewBox="0 0 29 29" fill="none" xmlns="http://www.w3.org/2000/svg">
<path d="M15.709 3.625C12.8248 3.625 10.0587 4.77076 8.0192 6.81021C5.97974 8.84967 4.83398 11.6158 4.83398 14.5H1.20898L5.9094 19.2004L5.99398 19.3696L10.8757 14.5H7.25065C7.25065 9.82375 11.0327 6.04167 15.709 6.04167C20.3852 6.04167 24.1673 9.82375 24.1673 14.5C24.1673 19.1763 20.3852 22.9583 15.709 22.9583C13.3769 22.9583 11.2623 22.0038 9.73982 20.4692L8.02398 22.185C9.03087 23.1978 10.2284 24.0012 11.5474 24.5487C12.8664 25.0962 14.2808 25.3771 15.709 25.375C18.5932 25.375 21.3593 24.2292 23.3988 22.1898C25.4382 20.1503 26.584 17.3842 26.584 14.5C26.584 11.6158 25.4382 8.84967 23.3988 6.81021C21.3593 4.77076 18.5932 3.625 15.709 3.625ZM14.5007 9.66667V15.7083L19.6723 18.7775L20.5423 17.3154L16.3132 14.8021V9.66667H14.5007Z" fill="white"/>
</svg>
