<svg width="22" height="22" viewBox="0 0 22 22" fill="none" xmlns="http://www.w3.org/2000/svg">
<path fill-rule="evenodd" clip-rule="evenodd" d="M6.04167 4.83333C6.04167 3.55145 6.55089 2.32208 7.45732 1.41565C8.36374 0.509225 9.59312 0 10.875 0C12.1569 0 13.3863 0.509225 14.2927 1.41565C15.1991 2.32208 15.7083 3.55145 15.7083 4.83333C15.7083 6.11521 15.1991 7.34459 14.2927 8.25102C13.3863 9.15744 12.1569 9.66667 10.875 9.66667C9.59312 9.66667 8.36374 9.15744 7.45732 8.25102C6.55089 7.34459 6.04167 6.11521 6.04167 4.83333ZM6.04167 12.0833C4.43932 12.0833 2.9026 12.7199 1.76956 13.8529C0.636531 14.9859 0 16.5226 0 18.125C0 19.0864 0.381919 20.0084 1.06174 20.6883C1.74156 21.3681 2.66359 21.75 3.625 21.75H18.125C19.0864 21.75 20.0084 21.3681 20.6883 20.6883C21.3681 20.0084 21.75 19.0864 21.75 18.125C21.75 16.5226 21.1135 14.9859 19.9804 13.8529C18.8474 12.7199 17.3107 12.0833 15.7083 12.0833H6.04167Z" fill="white"/>
</svg>
