<svg width="12" height="15" viewBox="0 0 12 15" fill="none" xmlns="http://www.w3.org/2000/svg">
<path fill-rule="evenodd" clip-rule="evenodd" d="M1.40619 2.35612C0.976472 2.85621 0.635602 3.44991 0.40304 4.10331C0.170479 4.75672 0.0507813 5.45704 0.0507813 6.16428C0.0507812 6.87152 0.170479 7.57183 0.40304 8.22524C0.635602 8.87864 0.976472 9.47234 1.40619 9.97244C1.83591 10.4725 2.34606 10.8692 2.90751 11.1399C3.46896 11.4105 4.07072 11.5498 4.67843 11.5498C5.28615 11.5498 5.88791 11.4105 6.44936 11.1399C7.01081 10.8692 7.52096 10.4725 7.95068 9.97244C8.79353 8.95684 9.25991 7.59662 9.24937 6.18473C9.23883 4.77284 8.75221 3.42226 7.89431 2.42386C7.03642 1.42547 5.8759 0.859152 4.66271 0.846883C3.44951 0.834614 2.28071 1.37738 1.40804 2.35827M7.29734 9.2121C6.95501 9.61944 6.54665 9.9437 6.0959 10.1661C5.64515 10.3885 5.16096 10.5046 4.67138 10.5078C4.18179 10.5109 3.69654 10.401 3.24371 10.1844C2.79088 9.96777 2.37947 9.64876 2.03331 9.24584C1.68715 8.84291 1.41311 8.36407 1.22705 7.83704C1.041 7.31001 0.946634 6.74526 0.949416 6.17549C0.952199 5.60573 1.05208 5.04226 1.24326 4.51773C1.43445 3.99319 1.71315 3.51801 2.06323 3.11969C2.76008 2.3268 3.69749 1.88573 4.67203 1.89217C5.64657 1.89862 6.57962 2.35207 7.26867 3.15412C7.95773 3.95617 8.3472 5.0421 8.35257 6.17625C8.35794 7.31041 7.97877 8.40127 7.29734 9.2121Z" fill="black"/>
<path d="M7.29528 10.7556C7.12176 10.5535 7.02433 10.2795 7.02441 9.9938C7.0245 9.70811 7.1221 9.43416 7.29575 9.23222C7.46939 9.03028 7.70485 8.91689 7.95034 8.91699C8.19582 8.91709 8.43122 9.03068 8.60474 9.23276L11.2218 12.2795C11.3102 12.3789 11.3807 12.4977 11.4292 12.6291C11.4777 12.7605 11.5032 12.9018 11.5043 13.0448C11.5053 13.1878 11.4819 13.3296 11.4354 13.462C11.3889 13.5943 11.3202 13.7146 11.2333 13.8157C11.1464 13.9168 11.043 13.9968 10.9293 14.0509C10.8156 14.1051 10.6937 14.1323 10.5709 14.1311C10.448 14.1298 10.3266 14.1001 10.2136 14.0437C10.1007 13.9872 9.99863 13.9052 9.91326 13.8023L7.29528 10.7556Z" fill="black"/>
</svg>
